<?xml version="1.0" encoding="UTF-8"?>
<svg id="Capa_1" data-name="Capa 1" xmlns="http://www.w3.org/2000/svg" viewBox="0 0 1080 1080">
  <defs>
    <style>
      .cls-1 {
        fill: #1d1d1b;
      }
    </style>
  </defs>
  <path class="cls-1" d="M1000.18,274.61c0,15.09.41,29.76-2.06,44.71-2.26,13.71-5.27,27.31-8.99,40.7-6.54,23.53-15.36,46.42-26.41,68.2-9.06,17.86-19.61,34.98-31.57,51.05-9.02,12.13-18.83,23.68-29.45,34.43-1.53,1.55-3.07,3.08-4.64,4.59-9.65,9.32-16.72,14.8-19.11,16.59-.17.12-.31.23-.43.31-.12.1-.22.17-.29.22-.11.08-.17.12-.17.12-36.19,26.64-82.33,42.11-126.47,47.34-2.8.32-6.6,4.66-8.25,7.28-28.72,45.88-48.77,95.31-61.75,148.05-6.35,25.77-10.61,50.26-14.95,76.41l-16.41,99.03c-4.84,29.25-26.31,48.48-53.25,55.23-29.23,7.33-56.81-1.36-77.42-23.12-18.96-20-28.67-47.45-18.6-74.65l59.85-161.76c10.97-29.65,24.27-56.57,34.28-86.43,8.52-25.45,13.87-50.51,20.37-76.66.85-3.41,3.04-10.47.78-13.46-25.3-33.63-47-71.96-48.8-113.07-7.02-104.4,34.2-184.78,62.95-227.29,8.29-12.27,15.55-21.38,20.33-27.01.01-.01.02-.02.02-.04.35-.41.7-.81,1.05-1.21,1.41-1.61,2.82-3.21,4.26-4.78.19-.2.34-.36.43-.46.06-.07.11-.12.14-.16,43.33-47.23,101.32-77.38,168.04-74.06,36.31,1.8,68.34,15.86,96.68,37.19,49.91,37.54,75.25,91.99,79.83,152.69Z"/>
  <path class="cls-1" d="M649.73,165.44c-.68.79-1.34,1.61-2.02,2.41.71-.86,1.39-1.67,2.02-2.41Z"/>
  <path class="cls-1" d="M629.15,192.35c5.79-8.54,11.99-16.71,18.56-24.51-4.69,5.68-11.11,13.95-18.31,24.6l-.25-.1Z"/>
  <path class="cls-1" d="M79.81,301.08v-.06s-.02,0,0,.06Z"/>
  <path class="cls-1" d="M531.39,996.01l-12.19,3.45h-15.96c-35.88-5.6-64.21-30.54-72.42-65.96-2.8-12.12-3.73-23.64-4.96-36.19-5.72-57.67-15.15-113.74-29.91-169.85-13.87-52.75-30.63-88.62-56.73-135.78-5.41-9.78-14.75-16.53-26.24-17.89-53.11-6.31-101.77-30.02-138.12-69.03-80.55-83.82-92.71-180.98-92.71-180.98,0,0-2.2-22.66-2.33-22.75v-30.81c4.71-55.08,25.89-106.05,68.11-143.72,30.02-26.77,66.17-41.72,105.37-45.95h26.47c1.38.88,4.46.97,7.54,1.33,62.8,7.32,119.24,42.23,157.63,92.79,40.47,53.66,64.55,128.6,67.09,182.1-.05.79.66,12.24.61,13.03-3.53,58.05-16.1,105.82-51.62,152.11-1.17,1.51-2.01,6.44-1.65,8.5,9.7,55.99,28.44,108.69,55.9,158.19,5.89,10.63,6.26,22.38,1.96,33.56-17.97,46.65-35.58,92.29-50.96,139.85-11.78,36.41-2.76,74.24,21.75,102.81,12.07,14.06,27.13,23.2,43.38,31.21Z"/>
  <path class="cls-1" d="M880.1,533.23c-.72.55-1.42,1.11-2.14,1.65.51-.38,1.23-.93,2.14-1.65ZM897.07,518.29c-7.61,7.34-13.6,12.29-16.97,14.94,6.06-4.63,11.83-9.57,17.24-14.85l-.26-.1Z"/>
  <path class="cls-1" d="M655.06,159.4c-1.43,1.57-2.85,3.17-4.26,4.78,2.03-2.38,3.51-3.98,4.26-4.78Z"/>
</svg>