<?xml version="1.0" encoding="UTF-8"?>
<svg id="Capa_1" data-name="Capa 1" xmlns="http://www.w3.org/2000/svg" viewBox="0 0 1080 1080">
  <defs>
    <style>
      .cls-1 {
        fill: #1d1d1b;
      }
    </style>
  </defs>
  <path class="cls-1" d="M526.71,166.21c8.15,34.05,14.4,68.16,18.4,102.33,8.26,68.29,8.08,136.53.94,203.87-7.79,67.29-21.95,133.81-43.12,198.8-16.31,51.03-36.1,101.3-58.54,150.94l-88.16-124.97c11.69,108.11-8.67,255.14-37.24,365.16,93.39-64.77,224.38-134.58,329.89-160.89l-152.74-41c32.62-51.1,60.29-105.84,81.61-163.41,26.08-69.55,42.12-143.5,46.53-218.27,3.95-74.77-3.77-150.34-24.97-221.63-10.69-35.6-24.51-70.11-41.55-102.75-17.28-32.44-37.39-63.6-62.79-89.78,13.61,33.55,23.38,67.63,31.76,101.61Z"/>
</svg>