<?xml version="1.0" encoding="UTF-8"?>
<svg id="Capa_1" data-name="Capa 1" xmlns="http://www.w3.org/2000/svg" viewBox="0 0 1080 1080">
  <defs>
    <style>
      .cls-1 {
        fill: #1d1d1b;
      }
    </style>
  </defs>
  <path class="cls-1" d="M127.99,453.84c32.12,13.94,64.62,26.02,97.58,35.89,65.82,19.99,133.05,31.67,200.61,36.33,67.62,4.02,135.59,1.62,203.27-7.94,53.09-7.2,106.03-17.96,158.82-31.44l-107.76-108.53c104.43,30.29,252.77,35.78,366.07,26.75-80.01,80.72-171.51,197.6-215.74,296.93l-13.85-157.54c-55.99,23.25-114.7,40.99-175.1,51.99-73.02,13.6-148.63,16.56-223.04,7.91-74.32-9.1-147.4-29.82-213.92-63.08-33.2-16.71-64.79-36.32-93.97-58.77-28.95-22.66-56.14-47.86-77.51-77.43,30.68,19.23,62.54,34.77,94.55,48.93Z"/>
</svg>