<?xml version="1.0" encoding="UTF-8"?>
<svg id="Capa_3" data-name="Capa 3" xmlns="http://www.w3.org/2000/svg" viewBox="0 0 930.12 475.36">
  <defs>
    <style>
      .cls-1 {
        fill: #527bff;
      }

      .cls-2 {
        fill: #fff;
        stroke: #d9d9d9;
        stroke-miterlimit: 45.71;
        stroke-width: 7.87px;
      }
    </style>
  </defs>
  <rect class="cls-2" x="184.49" y="46.57" width="561.14" height="382.23" rx="62.86" ry="62.86"/>
  <g>
    <path class="cls-1" d="M360.29,215.84c-4.28-24.74-26.09-43.57-52.35-43.57s-48.08,18.83-52.36,43.57c-.51,2.9-.77,5.87-.77,8.91v79.15c.03.2.06.41.1.61,1.33,7.21,7.6,12.68,15.15,12.68s13.83-5.46,15.15-12.68l.65-30.85h43.75v27.99c0,.64.04,1.27.11,1.89.95,7.7,7.57,13.65,15.61,13.65s14.67-5.96,15.61-13.65c.08-.62.11-1.25.11-1.89v-76.89c0-3.03-.26-6.01-.77-8.91ZM329.55,241.9h-43.95c.24,0,.11-12.74.04-18.97,0-.71-.01-1.34-.03-1.85.02-.5.06-1,.14-1.49,1.26-9.49,10.55-16.86,21.83-16.86s20.58,7.37,21.82,16.86c.1.72.15,1.46.15,2.2v20.11Z"/>
    <path class="cls-1" d="M670.95,225.32v76.52c0,8.25-6.83,14.95-15.27,14.95s-15.27-6.69-15.27-14.95v-76.52c0-8.26,6.83-14.95,15.27-14.95s15.27,6.69,15.27,14.95Z"/>
    <circle class="cls-1" cx="655.48" cy="178.19" r="19.83"/>
    <path class="cls-1" d="M474.98,158.18c-8.43,0-15.27,6.69-15.27,14.95v33.01c-8.38-4.6-18-7.21-28.23-7.21-32.46,0-58.77,26.31-58.77,58.77s26.31,58.77,58.77,58.77,58.77-26.31,58.77-58.77v-84.57c0-8.25-6.83-14.95-15.27-14.95ZM431.51,286.21c-15.58,0-28.2-12.63-28.2-28.2s12.63-28.2,28.2-28.2,28.2,12.63,28.2,28.2-12.63,28.2-28.2,28.2Z"/>
    <path class="cls-1" d="M603.46,158.37c-8.43,0-15.27,6.69-15.27,14.95v32.65c-8.38-4.6-18-7.21-28.23-7.21-32.46,0-58.77,26.31-58.77,58.77s26.31,58.77,58.77,58.77,58.58-26.12,58.76-58.41c0-.12,0-.24,0-.36v-84.2c0-8.25-6.83-14.95-15.27-14.95ZM559.96,286.21c-15.58,0-28.2-12.63-28.2-28.2s12.63-28.2,28.2-28.2,28.2,12.63,28.2,28.2-12.63,28.2-28.2,28.2Z"/>
  </g>
</svg>