<?xml version="1.0" encoding="UTF-8"?>
<svg id="Capa_3" data-name="Capa 3" xmlns="http://www.w3.org/2000/svg" viewBox="0 0 930.12 475.36">
  <defs>
    <style>
      .cls-1, .cls-2 {
        fill: #fff;
      }

      .cls-2 {
        stroke: #d9d9d9;
        stroke-miterlimit: 45.71;
        stroke-width: 7.87px;
      }
    </style>
  </defs>
  <rect class="cls-2" x="190.18" y="49.61" width="549.76" height="376.15" rx="48.28" ry="48.28"/>
  <g>
    <path d="M599.95,237.68c0,74.5-60.39,134.89-134.89,134.89s-134.89-60.39-134.89-134.89,60.39-134.89,134.89-134.89,134.89,60.39,134.89,134.89ZM415.39,210.84c33.18-9.94,58.93-15.14,92.93-20.43,3.24-.5,4.89-4.32,3.81-7.27l-8.2-22.4c-1-2.74-4.05-5.08-7.08-4.74-12.84,1.4-25.38,3.39-38.15,5.67-17.27,3.08-34.14,7.09-50.97,11.75-5.16,1.43-7.35,5.9-5.96,10.98l5.88,21.45c.91,3.31,3.79,6.18,7.75,4.99ZM392.76,281.08c22.69-10.34,45.98-18.76,69.9-25.64,23.71-6.82,47.7-11.84,72.01-15.85,2.68-.44,3.84-4.33,3.06-6.62l-7.78-22.87c-.73-2.15-3.61-4.69-6.18-4.39-46.9,5.55-96.48,18.12-139.62,37.39-3.81,1.7-4.77,6.4-3.98,10.02l5.11,23.74c.37,1.72,1.21,3.22,2.52,3.91,1.51.8,3.13,1.14,4.97.3ZM446.61,319.57c29.36-10.5,58.81-19.38,88.96-26.81,2.47-.61,3.22-4.56,2.57-6.53l-7.46-22.85c-.75-2.29-3.9-5.04-6.58-4.51-27.22,5.42-63.09,15.12-89.19,24.3-4.14,1.46-5.23,5.89-4.15,9.58l6.75,23.23c1.66,3.23,5.35,4.92,9.09,3.58Z"/>
    <path class="cls-1" d="M392.76,281.08c-1.84.84-3.46.49-4.97-.3-1.31-.69-2.15-2.19-2.52-3.91l-5.11-23.74c-.78-3.62.18-8.32,3.98-10.02,43.14-19.27,92.71-31.85,139.62-37.39,2.57-.3,5.44,2.24,6.18,4.39l7.78,22.87c.78,2.29-.38,6.18-3.06,6.62-24.31,4.02-48.3,9.03-72.01,15.85-23.92,6.88-47.21,15.3-69.9,25.64Z"/>
    <path class="cls-1" d="M415.39,210.84c-3.95,1.18-6.84-1.68-7.75-4.99l-5.88-21.45c-1.39-5.08.8-9.55,5.96-10.98,16.83-4.66,33.7-8.67,50.97-11.75,12.78-2.28,25.31-4.26,38.15-5.67,3.04-.33,6.08,2,7.08,4.74l8.2,22.4c1.08,2.94-.57,6.76-3.81,7.27-33.99,5.3-59.75,10.49-92.93,20.43Z"/>
    <path class="cls-1" d="M446.61,319.57c-3.74,1.34-7.43-.35-9.09-3.58l-6.75-23.23c-1.07-3.7.01-8.13,4.15-9.58,26.1-9.18,61.97-18.88,89.19-24.3,2.67-.53,5.83,2.22,6.58,4.51l7.46,22.85c.65,1.98-.1,5.92-2.57,6.53-30.15,7.43-59.6,16.31-88.96,26.81Z"/>
  </g>
</svg>