<?xml version="1.0" encoding="UTF-8"?>
<svg id="Capa_3" data-name="Capa 3" xmlns="http://www.w3.org/2000/svg" viewBox="0 0 930.12 475.36">
  <defs>
    <style>
      .cls-1 {
        fill: #fff;
        stroke: #d9d9d9;
        stroke-miterlimit: 45.71;
        stroke-width: 7.87px;
      }

      .cls-2 {
        fill: #000102;
        fill-rule: evenodd;
      }
    </style>
  </defs>
  <rect class="cls-1" x="190.18" y="49.61" width="549.76" height="376.15" rx="48.28" ry="48.28"/>
  <g id="surface1">
    <path class="cls-2" d="M415.73,338.72c1.12,17.64,14.81,25.96,31.62,22,3.72-.89,5.49-2.3,8.26-3.25l-2.95-7.43c-4.25,1.3-9.73,4.95-17.4,2.3-5.07-1.83-8.61-6.25-8.79-12.86l30.56-.06c0-13.92-4.19-27.55-20.24-27.66-15.69-.18-21.89,13.04-21.06,26.96M426.35,331.88c.53-6.43,3.48-11.8,10.09-11.86,6.37,0,9.62,5.55,9.68,11.86h-19.76ZM380.69,357.06l-2.95-6.96c-2.77.77-4.48,2.13-8.08,2.77-9.38,1.59-17.88-2.77-18.05-13.45h30.5c0-10.68-1.89-22.95-13.81-26.66-5.49-1.77-12.21-1.12-16.75,1.59-16.52,9.91-15.69,47.6,13.27,47.25,5.55-.06,12.62-1.59,15.87-4.54M351.43,331.76c.77-6.37,3.19-11.62,9.97-11.74,6.55-.12,9.67,5.31,9.97,11.86l-19.94-.12ZM462.45,338.01c.65,28.02,31.09,26.49,39.29,19.05-.3-1.18-2.36-6.43-3.07-7.14-5.6,2.3-11.09,4.9-17.87,1.53-10.56-5.19-9.79-24.84.89-29.73,4.13-1.89,9.85-1.71,14.16.12,1.54.71,2.66,1.47,3.9,2.01v-9.08c-6.25-2.48-10.79-4.13-18.7-2.36-11.92,2.77-18.82,13.69-18.58,25.6M392.02,312.94l.12-10.5c-.12-3.71,3.25-9.5,7.85-11.62,4.25-1.95,12.33-2.06,16.34.53l-1.95,8.32c-11.98-2.65-11.92-.41-11.92,13.27h13.04l-3.36,8.32-9.67.06v39.17c-1.95.23-8.73.35-10.44-.12v-38.99l-5.25-.12-3.24-8.26,8.49-.06ZM516.72,103.52c33.57,11.74,53.04,45.31,45.48,84.83-8.79,46.07-51.15,84.01-97.16,88.84-3.66-.12-3.71-2.18-3.83-5.25.18-6.37.41-12.8.59-19.17.06-.94-.29-1.24-.71-1.36-4.72-.47-9.38-1.53-13.98-2.95-4.95-1.95-9.97-4.78-14.98-8.02-2.3-1.12-2.01-6.43-1.94-8.49.41-3.78,3.18-12.57,7.67-12.98,5.37-.3,7.91,2.54,13.22,5.13,9.32,4.42,22.36,7.02,32.03,2.48,4.66-2.83,5.78-6.67,3.6-11.5-3.78-7.91-21.89-14.4-30.09-18.35-19.64-8.38-30.62-25.37-27.14-45.6,2.6-14.93,16.58-26.25,31.21-28.32v-7.14c-18.05,5.25-31.8,15.63-44.12,27.73-17.88,17.46-28.38,39.52-29.26,67.72,1.42,34.51,19.35,49.79,38.11,61.24-32.21-12.45-50.62-45.37-43.24-84.01,9.02-47.31,53.39-86.01,100.87-89.14,1.89,1.12,2.01,1.3,3.01,3.83-.42,5.96-.77,11.92-1.18,17.88,9.38,1.89,18.23,4.54,25.37,10.62.24,13.69-10.03,19.41-13.92,17.34.18-.65-15.45-4.95-18.7-5.72-3.95-.65-7.85-.41-11.74,1.36-4.6,2.18-6.78,5.42-4.6,10.5,1.89,3.78,5.01,6.25,8.43,8.38,9.85,5.31,19.7,10.68,29.56,15.99,8.49,4.78,14.57,10.97,18.46,18.46,2.83,7.43,3.48,14.98,1.83,22.65-1.95,6.26-4.31,11.68-7.91,15.1-3.01,3.42-6.31,6.07-9.85,7.96-5.02,2.66-10.03,5.01-15.22,5.84-.18,3.19-.3,6.31-.47,9.5.41.23.83.12,1.3,0,11.15-3.6,20.94-9.91,30.5-16.81,12.39-10.91,23.95-22.36,30.03-37.16,4.13-8.26,7.31-17.4,8.85-28.14,3.36-30.09-7.61-58.4-40.06-73.27M490.83,90.89c54.21,0,89.85,43.6,79.58,97.45-10.26,53.86-62.59,97.46-116.8,97.46s-89.9-43.6-79.64-97.46c10.32-53.86,62.59-97.45,116.86-97.45M512.36,321.55l.12,28.38c.23,2.71.59,4.25,1.12,5.37,3.83,8.38,17.11,7.61,24.84,2.59l-3.42-7.14c-2.54.95-5.54,3.07-9.14,1.95-3.18-.94-2.95-4.72-2.95-8.43v-22.95l21.42.06,17.22,39.29c.35,1.71-3.48,8.5-4.31,9.62-5.96,8.38-11.5,4.83-16.28,3.78l-2.36,8.49c9.09,3.48,18.58,2.18,23.89-3.6,4.72-5.13,7.43-12.33,10.38-20.35l16.52-45.66h-10.97l-11.62,35.1c-1.18-1.3-10.15-23.77-11.8-27.61-2.24-5.19-5.49-7.43-12.39-7.49-6.49-.06-13.04,0-19.7,0v-14.1c-2.3.53-8.85,2.48-10.56,3.36v10.56l-8.49.12.06,8.44"/>
  </g>
</svg>