<?xml version="1.0" encoding="UTF-8"?>
<svg id="Capa_3" data-name="Capa 3" xmlns="http://www.w3.org/2000/svg" viewBox="0 0 930.12 475.36">
  <defs>
    <style>
      .cls-1 {
        fill: #fff;
        stroke: #d9d9d9;
        stroke-miterlimit: 45.71;
        stroke-width: 7.87px;
      }

      .cls-2 {
        fill: #f9a000;
      }

      .cls-2, .cls-3, .cls-4 {
        fill-rule: evenodd;
      }

      .cls-3 {
        fill: #ed0006;
      }

      .cls-4 {
        fill: #ff5e00;
      }
    </style>
  </defs>
  <rect class="cls-1" x="184.49" y="46.57" width="561.14" height="382.23" rx="62.86" ry="62.86"/>
  <path class="cls-3" d="M468.27,325.2c-19.38,16.72-44.52,26.82-71.99,26.82-61.3,0-110.99-50.27-110.99-112.28s49.69-112.28,110.99-112.28c27.47,0,52.61,10.1,71.99,26.82,19.38-16.73,44.52-26.82,71.99-26.82,61.3,0,110.99,50.27,110.99,112.28s-49.69,112.28-110.99,112.28c-27.47,0-52.61-10.1-71.99-26.82Z"/>
  <path class="cls-2" d="M468.27,325.2c23.86-20.59,39-51.24,39-85.46s-15.13-64.86-39-85.46c19.38-16.73,44.52-26.82,71.99-26.82,61.3,0,110.99,50.27,110.99,112.28s-49.69,112.28-110.99,112.28c-27.47,0-52.61-10.1-71.99-26.82Z"/>
  <path class="cls-4" d="M468.27,154.29c23.86,20.59,39,51.24,39,85.46s-15.13,64.86-39,85.45c-23.86-20.59-39-51.24-39-85.45s15.13-64.86,39-85.46Z"/>
</svg>