<?xml version="1.0" encoding="UTF-8"?>
<svg id="Capa_3" data-name="Capa 3" xmlns="http://www.w3.org/2000/svg" viewBox="0 0 930.12 475.36">
  <defs>
    <style>
      .cls-1 {
        fill: #ca0080;
      }

      .cls-2 {
        fill: #200020;
      }

      .cls-3 {
        fill: #fff;
        stroke: #d9d9d9;
        stroke-miterlimit: 45.71;
        stroke-width: 7.87px;
      }
    </style>
  </defs>
  <rect class="cls-3" x="190.18" y="49.61" width="549.76" height="376.15" rx="48.28" ry="48.28"/>
  <g>
    <g>
      <path class="cls-2" d="M373.42,282.63l-27.79.03c-1.37,0-2.53-.73-3.2-1.92l-41.13-73.91c-.33-.6-.89-.88-1.43-.81-.4.06-1.06.62-1.06,1.23v71.15c0,2.45-2.04,4.21-4.35,4.2h-17.2c-2.11-.01-4.22-1.71-4.22-3.99v-110.24c0-2.45,1.76-4.39,4.25-4.39h28.83c1.4,0,2.54.71,3.21,1.92l39.99,71.74c.35.62.96.9,1.51.8.44-.08.99-.65.99-1.31v-68.76c0-2.42,1.77-4.36,4.17-4.37l16.71-.07c2.42,0,4.76,1.43,4.76,4.21v110.24c0,2.2-1.75,4.24-4.06,4.25Z"/>
      <path class="cls-2" d="M552.98,311.41c-2.77,0-4.2-2.22-4.2-4.64v-33.38c-7.79,8.48-20.28,12.36-31.45,10.47-9.28-1.27-17.3-6.21-22.7-13.82-9.88-13.94-10.99-33.95-5.55-49.8,4.39-12.79,13.8-23.3,27.5-25.94,11.27-2.17,24.29.4,32.14,9.33l.13-4.59c.06-2.02,2.01-3.72,4-3.71l17.28.05c2.49,0,4.42,1.96,4.42,4.45v107.39c0,2.41-2.02,4.21-4.29,4.21l-17.29-.02ZM546.24,257.55c4.63-7.71,4.76-19.68,3.08-28.25-1.81-9.24-7.42-16.66-17.46-17.09-10.78-.46-17.19,7.4-19.21,17.25-1.29,6.28-1.34,12.68-.18,18.99,1.55,8.42,6.47,15.76,15.46,16.98,7.37.99,14.37-1.31,18.31-7.87Z"/>
      <path class="cls-2" d="M472.89,253.03c2.09,0,3.43,1.79,3.03,3.62-3.2,14.68-14.65,24.34-29.12,27.42-11.34,2.42-23.99,1.68-34.55-3.41-12.07-5.82-19.5-16.57-21.87-29.68-1.34-7.41-1.3-14.85.08-22.26,2.85-15.3,12.39-27.92,27.39-32.95,8.4-2.81,17.46-3.44,26.12-1.73,13.77,2.71,24.71,12.02,29.68,25.08,2.55,6.7,3.69,13.8,3.47,21-.06,2-1.62,4.02-3.74,4.02l-58.79.02c.77,10.68,5.45,20.19,16.77,22.14,9.65,1.26,18.95-.84,23.24-10.46.67-1.5,1.77-2.86,3.58-2.85l14.71.03ZM451.71,227.78c-.28-2.6-.79-4.43-1.61-6.4-3.87-8.77-13.38-11.06-22.08-8.75-7.19,2.14-10.78,7.91-12.41,15.16h36.1Z"/>
      <path class="cls-2" d="M662.49,195.33c2.35,0,4.1,2.02,4.1,4.26l-.03,47.97c0,5.53-.89,10.78-2.68,15.93-4.55,13-15.74,19.24-28.91,20.76-6.37.74-12.67.71-19.02-.19-12.55-1.79-23-8.02-27.39-20.35-1.78-5-2.73-10.13-2.74-15.57l-.05-48.57c0-2.29,1.8-4.24,4.07-4.24h17.6c2.49,0,4.1,2.09,4.1,4.47l.02,45.94c0,3.33.65,6.4,1.85,9.34,2.91,7.1,10.67,8.71,17.35,7.05,3.77-.94,6.66-3.54,8.12-7.16,1.17-2.91,1.79-5.95,1.79-9.24l.04-46.36c0-2.31,2.02-4.07,4.21-4.07l17.56.02Z"/>
      <path class="cls-2" d="M699.32,282.67h-17.58c-2.35-.02-4.29-1.87-4.29-4.3v-78.97c0-2.34,2.06-4.09,4.21-4.09h17.43c2.14,0,4.17,1.72,4.17,4.03v78.8c.01,2.44-1.43,4.18-3.95,4.53Z"/>
    </g>
    <path class="cls-1" d="M251.32,189.45h-20.46c-2.58,0-4.45-2.48-3.93-4.91v-15.52c-.54-2.56,1.34-5.04,4.07-5.04h20.03c2.48,0,4.31,1.91,4.31,4.33v16.94c-.01,2.12-1.68,4.19-4.01,4.2Z"/>
  </g>
</svg>