<?xml version="1.0" encoding="UTF-8"?>
<svg id="Capa_3" data-name="Capa 3" xmlns="http://www.w3.org/2000/svg" viewBox="0 0 930.12 475.36">
  <defs>
    <style>
      .cls-1 {
        fill: #135faa;
      }

      .cls-2 {
        fill: #fbb516;
      }

      .cls-3 {
        fill: #fbb617;
      }

      .cls-4 {
        fill: #fbb618;
      }

      .cls-5 {
        fill: #fcb617;
      }

      .cls-6 {
        fill: #fbb71c;
      }

      .cls-7 {
        fill: #fcb616;
      }

      .cls-8 {
        fill: #fbb616;
      }

      .cls-9 {
        fill: #fff;
        stroke: #d9d9d9;
        stroke-miterlimit: 45.71;
        stroke-width: 7.87px;
      }

      .cls-10 {
        fill: #fbb619;
      }
    </style>
  </defs>
  <rect class="cls-9" x="190.18" y="49.61" width="549.76" height="376.15" rx="48.28" ry="48.28"/>
  <g>
    <path class="cls-5" d="M405.84,270.08c-26.63-4.03-22.83,12.44-32.69,4.67-4.66-3.67-4.98-8.92-1.76-13.13,4.76-6.23,9.72-2.82,15.11.74,4.42,2.93,11.64.02,16.99.93l11.7-21.45-83.74.68c-3.44.03-5.89,7.39-11.41,4.41-3.19-1.72-6.26-2.92-6.06-9.14.11-3.6,2.3-5.86,6.38-8.65,4.64-3.17,7.02,4.74,11.02,5.16,21.88,2.29,43.47-.06,66.34,1.05-3.29-8.75-8.67-13.55-13.12-21.79-11.58.89-23.33-1.39-34.87.97-3.91.8-6.57,5.89-11.14,3.98-3.79-1.59-5.98-4.14-6.32-8.96-.3-4.33,3.05-6.04,6.56-8.51,5.31-3.74,6.99,3.93,10.87,4.89,12.06,2.99,24.84-.08,37.69,1.15,6.91,8.5,12.04,18.41,18.22,27.93l43.69.61c.69,0,1.16,3.03.79,3.59-.56.83-1.48,2.43-3.42,2.46l-24.51.27-16.31,28.14Z"/>
    <path class="cls-5" d="M392.41,285.74c4.77-2.99,9.81.34,12.01,4.06,2.68,4.53.81,9.38-4.34,12.06-3.7,1.93-7.99.98-11.13-3.11-2.74-3.57-1.99-9.6,3.46-13.01Z"/>
    <path class="cls-5" d="M391.92,173.41c5.65-3.11,10.57-1.06,13.34,3.04,2.51,3.72.96,8.32-2.52,10.91-3.82,2.83-9.99,2.16-12.42-.97-2.61-3.36-2.78-10.58,1.6-12.99Z"/>
    <path class="cls-5" d="M374.58,144.86c4.64-2.19,10.27-1.22,11.84,3.96,1.11,3.67,1.95,9.4-3.59,11.4-3.65,1.32-8.63,1.33-12.08-3.63-2.16-3.09-1.85-9.05,3.83-11.73Z"/>
    <path class="cls-5" d="M374.64,315.34c4.11-2.03,10.49-1.12,12.15,3.69,1.08,3.14.49,9.62-3.88,11.7-3.55,1.69-8.81,1.17-12.13-3.57-2.24-3.19-1.85-9,3.86-11.82Z"/>
    <path class="cls-5" d="M356.07,172.74c5.55-2,9.25.45,11.75,4.87,2.37,4.2-.08,8.33-4.07,10.3-4.49,2.22-9.8,1.62-11.86-2.7-2.15-4.51-1.4-10.46,4.18-12.47Z"/>
    <path class="cls-8" d="M337.5,260.94c4.11-2.31,8.88-.95,10.66,2.3,1.89,3.45,1.85,8.36-2.68,10.49-2.93,1.38-6.67,1.66-9.38-1.58-2.34-2.8-3.52-8.45,1.4-11.21Z"/>
    <path class="cls-8" d="M301.69,202.49c3.58-1.05,8.15,1.37,9.03,4.02,1.43,4.3-.32,8.82-4.17,10.12-4.34,1.46-8.2.18-9.84-4.55-1.18-3.4,0-8.14,4.98-9.6Z"/>
    <path class="cls-3" d="M355.97,287.44c3.6-2.58,8.67-.74,10.36,2.29,1.92,3.45,1.97,8.3-2.61,10.49-2.84,1.36-6.48,1.73-9.42-1.55-2.3-2.56-2.84-8,1.67-11.23Z"/>
    <path class="cls-3" d="M299.73,260.93c3.45-2.54,8.61-.79,10.36,2.29,1.77,3.11,1.71,8.08-2.25,10.82-2.93,2.03-6.27.88-9.44-2.18-2.59-2.49-3.57-7.32,1.34-10.93Z"/>
    <path class="cls-5" d="M336.11,146.57c3.71-1.98,8.64-1.52,11.07,1.57,2.3,2.92,1.84,6.96-1.48,10-3.01,2.75-7.38,2.8-10.04-.16-2.41-2.68-2.8-9.69.45-11.42Z"/>
    <path class="cls-7" d="M318.19,175.1c2.89-2.89,8.61-1.7,10.79,1.19,2.31,3.04,1.79,7.04-1.49,9.99-2.82,2.54-6.2,2.72-9.11.7-3.41-2.37-3.77-8.3-.19-11.87Z"/>
    <path class="cls-5" d="M339.22,315.32c3.74-1.04,8.04,2.29,9.2,4.71,1.53,3.2-1.22,8.8-4.06,9.42-3.86.84-8.23-.46-9.42-3.26-1.77-4.14-1.65-9.21,4.29-10.87Z"/>
    <path class="cls-5" d="M282.83,230.88c4.29-1.26,7.68,2.53,8.83,4.86,2,4.04-.84,8.42-3.7,9.21-3.84,1.06-8.26-.64-9.34-3.22-1.79-4.27-1.51-9.18,4.2-10.85Z"/>
    <path class="cls-8" d="M301.18,148.24c3.37-1.92,7.2-1.02,7.9,1.87.69,2.82,1.11,7.21-2.32,8.7-2.24.97-5.23.11-7.48-2.06-2.14-2.06-2.46-6.03,1.9-8.51Z"/>
    <path class="cls-8" d="M319.66,288.77c2.66-1.34,6.68-1.26,8.7.87,1.89,2,1.15,6.04-1.38,8.55-2.19,2.18-5.49,2.17-7.87-.79-1.7-2.12-3.02-6.82.55-8.62Z"/>
    <path class="cls-8" d="M263.36,262.28c2.66-1.35,6.67-1.28,8.7.87,1.88,2,1.16,6.03-1.38,8.55-2.19,2.17-5.49,2.17-7.87-.79-1.7-2.12-3.02-6.82.55-8.62Z"/>
    <path class="cls-8" d="M303.26,316.78c3.32-.95,6.06,2.13,7.15,4.45,1.44,3.08-1.76,5.62-3.99,6.42-3.08,1.1-6.11-.31-7.94-3.1-1.69-2.59,1.1-6.72,4.77-7.77Z"/>
    <path class="cls-8" d="M283.52,288.67c2.84-1.29,6.56-.86,7.33,2.18.64,2.52,1.29,7-2.23,8.66-2.58,1.21-5.98.39-7.93-3.34-1.23-2.35-1.48-5.55,2.83-7.5Z"/>
    <path class="cls-8" d="M265.34,204.2c2.54-1.15,6.42.42,7.21,2.34,1.19,2.88.89,7.34-2.24,8.58-2.81,1.11-6.25-.24-8.23-3.06-1.72-2.44-.52-6.14,3.26-7.85Z"/>
    <path class="cls-8" d="M281.54,176.2c2.67-1.38,6.54-1.33,8.71.82,1.82,1.8,1.3,5.75-1.34,8.6-1.93,2.07-5,1.24-7.78-.97-2.18-1.74-2.96-6.7.41-8.44Z"/>
    <path class="cls-8" d="M255.1,232.6c2.46-1.88,6.78.3,7.53,2.12,1.08,2.64.98,7.23-2.22,8.55-2.26.93-5.06.18-7.53-2.08-1.88-1.72-1.7-5.59,2.22-8.59Z"/>
    <path class="cls-2" d="M238.06,263.98c2.13-1.84,3.46.22,4.28.99,1.87,1.76.2,3.3-.92,4.25-1.07.91-3.05,1.27-4.1.63-1.66-1.02-1.37-4.05.75-5.87Z"/>
    <path class="cls-4" d="M256.27,177.88c2.13-1.84,3.44.2,4.28.98,1.78,1.66.39,3.43-.97,4.13-1.17.6-3,1.47-4.06.78-1.64-1.08-1.37-4.06.75-5.89Z"/>
    <path class="cls-10" d="M228.59,234.08c1.23-.93,2.31,1.68,3.08,2.11,1.98,1.1.76,2.91-.34,3.38-1.66.71-3.46,1.09-4.09.47-1.27-1.26-1.29-3.98,1.34-5.95Z"/>
    <path class="cls-6" d="M257.08,290.33c.76-.48,2.36,1.37,2.61,2.23.41,1.39-.74,3.68-2.35,4-1.17.23-3.53-1.04-4-2.48-.37-1.14,2.44-2.94,3.74-3.76Z"/>
    <path class="cls-4" d="M236.76,208.06c.94-1.99,3.25-1.19,4.63-.39,1.28.73,1.92,2.48.17,3.37-.79.4-1.76,2.64-2.62,2.36-1.34-.44-3.49-2.56-2.19-5.33Z"/>
    <g>
      <path class="cls-1" d="M480.94,283.89c-8.82.38-16.21-3.74-22.78-9.55l-8.1,43.63c-.43,2.31-.78,4.3-2.54,4.93-1.82.66-5.78-.37-5.29-3.04l17.67-97.89c2.56-14.17,11.28-27.76,26.75-29.46,10.34-1.14,20.39-.57,31.23.11,6.56.41,18.03,7.15,17.41,15.01-1.49,18.95-5.29,37.18-8.98,55.84-1.78,9.01-9.94,18.87-18.34,19.24l-27.03,1.17ZM519.77,260.23l7.86-45.31c.71-4.11.18-8.17-2.27-11.11-1.68-2.02-5.23-3.79-9.01-3.51-11.13.84-21.95-1.1-33.03.66-8.42,1.34-13.94,11.02-15.39,18.8l-8.37,45.17c3.82,3.5,7.18,10.16,12.68,10.89,17.39,2.29,44,4.77,47.53-15.58Z"/>
      <path class="cls-1" d="M627.43,267.65c1.19,4.85,6.74,8.82,11.38,8.83l49.58.16c1.67,0,3.02,1.71,3.42,2.53.59,1.2-1.29,4.05-3.45,4.04l-51.05-.24c-11.94-.06-18.68-11.64-16.9-23.09,2.77-17.75,6.23-64,26.82-65.56,14.69-1.12,28.13-.75,42.88-.1,4.21.18,11.48,6.02,12.36,10.06,2.77,12.7.47,24.96-2.42,37.47l-62.81.05c-5.92,0-8.44,4.42-8.42,9.95,0,5.01-2.91,9.63-1.38,15.9ZM694.73,234.85c.14-10.33,7.6-33.68-7.79-34.17-12.25-.39-24.14-.91-36.33.24-13.77,1.29-17.5,22.77-18.55,34.33l62.68-.4Z"/>
      <path class="cls-1" d="M591.58,282.58l-55.24.72c-1.66.02-3.06-1.93-3.44-2.77-.57-1.23,1.28-3.83,3.46-3.85l52.52-.51c8.23-.08,13.31-7.46,15.33-14.02,1.77-5.72,1.39-18.47-5.83-20.79-17.04-5.47-49.12,8.94-53.15-19.01-1.98-13.72,7.55-29.73,22.48-29.86l47.82-.43c1.65-.01,3.06,1.87,3.43,2.72.55,1.25-1.27,3.82-3.45,3.85l-45.78.56c-7.79.1-13.93,6.26-15.84,11.91-2.08,6.15-2.64,17.3,4.52,19.68,12.12,4.03,37.63-4.04,47.87,7.35,6.4,7.12,7.9,17.58,4.64,27.42-2.14,6.47-9.38,16.91-19.33,17.03Z"/>
    </g>
  </g>
</svg>