<?xml version="1.0" encoding="UTF-8"?>
<svg id="Capa_3" data-name="Capa 3" xmlns="http://www.w3.org/2000/svg" viewBox="0 0 930.12 475.36">
  <defs>
    <style>
      .cls-1 {
        fill: #00d200;
      }

      .cls-2 {
        fill: #fff;
        stroke: #d9d9d9;
        stroke-miterlimit: 45.71;
        stroke-width: 7.87px;
      }

      .cls-3 {
        fill: #0232a1;
      }
    </style>
  </defs>
  <rect class="cls-2" x="55.58" y="46.57" width="818.97" height="382.23" rx="62.86" ry="62.86"/>
  <g>
    <path class="cls-1" d="M652.73,277.4c-5.37,2.58-11.12,5.19-17.37,5.37-18.82.57-34.08-12.38-37.24-30.06-3.18-17.82,7.38-35.62,25.38-40.98,10.19-3.04,20.25-1.52,29.4,2.66l.26-17.55,21.62-4.29.04,88.96-20.15.37-1.93-4.48ZM652.78,258.31v-24.55c-4.46-4.16-11.29-5.89-17.15-5.31-10.4,1.04-17.35,9.57-16.59,19.21.76,9.63,9.01,17.03,19.45,16.61,4.74-.19,11.65-1.54,14.29-5.96Z"/>
    <path class="cls-3" d="M335.95,254.16c6.46,13.05,21.21,13.86,31.68,5.77l14.37,12.41c-9.19,8.48-19.86,11.05-31.58,10.77-17.03-.39-31.51-11.51-35.8-26.96-4.55-16.43,2.75-33.57,17.17-41.6s33.3-6.17,44.88,6.44c8.27,9,10.98,21.05,9.67,32.87l-50.38.28ZM364.82,238.5c-2.83-8.45-9.13-11.14-15.46-10.98-6.4.16-12.17,4.14-13.73,11.09l29.19-.11Z"/>
    <path class="cls-1" d="M541.13,253.84c2.54,6.63,8.43,10.02,13.51,10.95,7.06,1.3,12.78-.71,18.42-4.83l14.03,12.49c-9.89,8.84-21.82,11.6-34.44,10.43-15.71-1.46-28.66-12.56-32.51-26.13-4.55-16.05,1.76-31.96,14.02-40.29,13.96-9.48,31.88-8.97,44.47,1.56,10.34,8.65,14.37,21.81,12.67,34.74-1.79.45-4.51,1.15-5.92,1.15l-44.25-.07ZM570.65,238.83c-3.53-8.21-9.16-11.72-16.36-11.38-6.11.29-11.92,4.08-13.49,11.37h29.86Z"/>
    <path class="cls-1" d="M825.31,248.55c.54-6.21.81-12.82,6.22-17.42,4.27.79,9.68,3.11,13.81,5.44,5.59,19.52-5.89,39.47-25.64,44.97-7.22,2.01-14.63,2.1-21.97.34-17.05-4.07-28.69-19.17-28.39-36.14s13.13-31.91,30.6-35.23c17.04-3.23,34.59,3.7,42.45,19.39-4.9-1.07-8.6-4.1-12.78-2.53-3.2,1.2-4.83,5.4-6.59,8.88-4.78-6.27-12.33-9.43-19.79-7.29s-12.55,9.02-12.67,17.09c-.14,9.66,6.71,17.38,15.78,18.29,9.14.91,18.07-5.58,18.96-15.8Z"/>
    <path class="cls-3" d="M244.98,273.26c-13.56,14.51-44.32,11.83-60.18.81l10.58-14.72c8.62,7.03,32.75,11.68,34.73,2.4.32-1.5-2.06-4.41-3.73-4.7l-21.67-3.78c-10.25-1.79-17.43-9.51-17.99-18.83-.59-9.89,4.94-18.52,14.88-21.97,15.08-5.23,31.45-2.61,45.75,5.9l-10.28,14.02c-7.29-5.6-31.65-10.32-30.94-1,.12,1.53,2.61,3.93,4.4,4.25l24.23,4.28c7.34,1.3,13.09,7.28,14.92,12.95,2.41,7.48.46,14.85-4.72,20.39Z"/>
    <path class="cls-3" d="M143.23,273.65c-13.72,14-44.06,11.43-59.86.37l10.44-14.67c10.18,5.89,19.78,9.49,30.67,6.57,1.71-.46,4.05-2.74,4.22-4.2.21-1.75-2.17-4.52-4.2-4.86l-20.52-3.38c-5-.83-10.49-3.72-13.86-7.44-5.04-5.54-5.79-12.97-3.54-20.49,6.06-20.26,43.18-18.81,59.45-7.14l-10.46,13.99c-7.39-5.39-29.03-10.28-30.81-1.79-.32,1.55,2.03,4.55,3.9,4.88l24.34,4.3c7.48,1.32,13.55,7.27,15.36,13.2,2.33,7.62.34,15.08-5.11,20.64Z"/>
    <path class="cls-1" d="M422.49,262.07c8.5,4.87,17.82,2.04,24.31-5.2l12.79,13.62c-14.27,14.88-36.78,16.88-52.78,5.07-11.49-8.48-16-21.63-13.77-35.7,2.7-17.06,17.5-29.38,34.95-30.05,12.49-.48,23.63,3.59,32.36,12.99l-13.45,13.57c-6.12-6.66-13.74-9.91-21.72-7.01-6.52,2.37-10.43,8.65-11.03,14.45-.73,7.12,1.67,14.45,8.34,18.27Z"/>
    <path class="cls-3" d="M306.98,263.52l-.08,17.3c-8.51,1.9-15.86,2.62-23.99,1.21-9.36-1.62-16.94-8.91-17.02-18.78l-.28-33.98-9.2-.35-.17-16.82c8.71-2.04,15-7.96,17.2-16.92l14.03-3.06.31,18.72,19.84.31-.03,17.87-19.91.19-.02,28.81c0,8.16,11.77,6.8,19.32,5.51Z"/>
    <path class="cls-1" d="M762.97,263.63v17.03c-8.04,1.96-15.63,2.7-23.34,1.47-10.95-1.75-17.72-9.96-17.71-20.78v-32.13s-9.48-.42-9.48-.42l-.11-16.8c8.62-1.9,14.59-7.34,16.73-16.06,3.93-1.82,8.62-2.63,14.32-3.19l.36,18.16,19.35.33.12,17.65-19.59.1v28.36c0,9.65,12.55,7.09,19.36,6.28Z"/>
    <path class="cls-1" d="M487.85,281.26c-7.19.61-14.09.56-21.8.18l-.06-70.21,20.8-.28,1.45,6.34c7.19-6.84,16.77-10.07,26.61-6.35l-.14,18.68c-11.22-3.86-20.47-1.47-26.86,6.94v44.7Z"/>
    <polygon class="cls-3" points="177.95 281.71 156.03 281.9 156.02 211.16 177.95 210.94 177.95 281.71"/>
    <polygon class="cls-1" points="705.65 281.44 683.74 281.75 683.69 211.17 705.58 211.09 705.65 281.44"/>
    <path class="cls-3" d="M178.9,192.31c-.11,6.83-5.96,11.15-11.78,11.16-6.26.01-11.66-4.42-12.07-11.18l23.85.02Z"/>
    <path class="cls-1" d="M705.91,192.34c1.1,6.37-5,10.91-10.87,11.12s-11.6-3.41-12.44-10.98l23.3-.14Z"/>
    <path class="cls-1" d="M566.9,192.39c0,6.59-5.67,11.03-11.7,11.08-5.88.05-11.25-4.32-11.89-11.04l23.59-.04Z"/>
  </g>
</svg>