<?xml version="1.0" encoding="UTF-8"?>
<svg id="Nuevo" xmlns="http://www.w3.org/2000/svg" viewBox="0 0 512 512">
  <path d="M487.39,252.79h-2.41c4.57-4.49,7.42-10.81,7.42-17.81,0-10.55-6.46-19.55-15.55-23.09-9.38-30.78-24.97-58.85-45.31-82.75-.32-.38-.66-.76-.98-1.14-.56-.66-1.13-1.31-1.7-1.96-.88-1-1.77-2-2.67-2.98-.03-.04-.07-.07-.1-.11-3.98-4.37-8.12-8.58-12.43-12.64,0-.71-.03-1.41-.08-2.1-.51-7.03-4.48-13.32-10.46-17.05-52.32-32.61-102.21-44.04-146.34-44.13-1.01-.01-2.02-.03-3.04-.03-16.48,0-32.56,1.71-48.07,4.95-54.49,10.59-94.95,35.54-112.18,47.7-6.58,4.64-10.18,12.46-9.3,20.28-24.52,25.98-43.02,57.61-53.31,92.7-8.31,3.94-14.06,12.47-14.06,22.37,0,7,2.88,13.31,7.5,17.81h-.78c-2.76,0-5,2.24-5,5v155.99c0,2.76,2.24,5,5,5h28.31v9.84c0,3.45,2.8,6.25,6.25,6.25h43.79c3.45,0,6.25-2.8,6.25-6.25v-189.11c0-3.45-2.8-6.25-6.25-6.25h-35.49c9.97-41.19,29.44-74.63,56.85-98.92,1.25-.84,2.49-1.66,3.73-2.47,2.34,4.05,9.62,11.72,29.4,4.31,25.92-9.72,77.76-62.37,185.49-6.48,0,0,15.62,11.31,28.29-4.9.74.47,1.41.9,2.01,1.3,2.24,1.47,4.74,2.52,7.35,3.09,30.87,24.86,52.9,60.34,64.3,104.08h-33.41c-4.51,0-8.17,3.66-8.17,8.17v185.27c0,4.51,3.66,8.17,8.17,8.17h39.95c4.51,0,8.17-3.66,8.17-8.17v-7.91h28.89c2.76,0,5-2.24,5-5v-155.99c0-2.76-2.24-5-5-5Z"/>
  <rect x="129.39" y="405" width="40.78" height="28.72" rx="2.37" ry="2.37"/>
  <rect x="182.8" y="405" width="40.78" height="28.72" rx="2.57" ry="2.57"/>
  <rect x="235.07" y="405" width="40.78" height="28.72" rx="3.25" ry="3.25"/>
  <rect x="287.92" y="405" width="40.78" height="28.72" rx="2.93" ry="2.93"/>
  <rect x="340.76" y="405" width="40.78" height="28.72" rx="2.83" ry="2.83"/>
  <rect x="129.39" y="365.95" width="40.78" height="28.72" rx="2.37" ry="2.37"/>
  <rect x="182.8" y="365.95" width="40.78" height="28.72" rx="2.57" ry="2.57"/>
  <rect x="235.07" y="365.95" width="40.78" height="28.72" rx="3.25" ry="3.25"/>
  <rect x="287.92" y="365.95" width="40.78" height="28.72" rx="2.93" ry="2.93"/>
  <rect x="340.76" y="365.95" width="40.78" height="28.72" rx="2.83" ry="2.83"/>
  <rect x="182.8" y="327.46" width="40.78" height="28.72" rx="2.57" ry="2.57"/>
  <rect x="183.38" y="288.98" width="40.78" height="28.72" rx="2.57" ry="2.57"/>
  <rect x="235.07" y="327.46" width="40.78" height="28.72" rx="3.25" ry="3.25"/>
  <rect x="287.92" y="327.46" width="40.78" height="28.72" rx="2.93" ry="2.93"/>
  <rect x="235.07" y="288.98" width="40.78" height="28.72" rx="3.25" ry="3.25"/>
  <rect x="235.07" y="250.49" width="40.78" height="28.72" rx="3.25" ry="3.25"/>
</svg>