<?xml version="1.0" encoding="UTF-8"?>
<svg id="Capa_1" data-name="Capa 1" xmlns="http://www.w3.org/2000/svg" viewBox="0 0 800 800">
  <defs>
    <style>
      .cls-1 {
        fill: none;
        stroke: #fff;
        stroke-miterlimit: 10;
        stroke-width: 4px;
      }
    </style>
  </defs>
  <g>
    <path d="M546.33,589.94c-97.94,28.46-201.65,27.72-298.29-1.54-64.9-19.65-132.91-58.1-168.14-117.11-26.83-44.93-26.86-97.97-.09-142.93,36.26-60.9,107.22-99.7,174.2-119.06,95.45-27.6,197.59-27.48,292.97.45,67.43,19.75,139.32,59.51,174.46,121.78,24.41,43.26,24.42,93.29-.03,136.53-35.07,62.02-106.85,102.06-175.08,121.89ZM141.21,373.54c38.38,15.56,56.55-48.64,66.09-74.44,6.9.06,13.93,2.01,20.57,5.33l-12.29,59.66c-2.91,14.11,7.85,25.95,21.59,26.18,10.86.18,21.75-2.36,31.07-7.54,5.67-3.16,6.3-11.09,3.74-16.36-2.16-4.44-7.33-7.29-13.52-6.85-4.68.34-8.67,5.21-10.94,10.7-1.5.36-5.32-.19-6.36-1.54s-2.3-5.98-1.94-7.69l24.64-115.86c-29.92-11.41-53.37,23.91-68.02,43.68-14.62-2.16-45.79,5.41-39.31,23.65.94,2.63,5.92,5.45,8.66,5.47,2.89.02,7.94-2.08,9.29-4.19l-.64-9.46c4.09-3.51,10.27-5.45,15.61-4.94-10.16,17.72-15.7,48.16-30.83,55.99-6.34-4.25-12.63-6.8-19.43-3.16-3.88,2.07-6.72,6.88-6.44,11.24.24,3.79,3.92,8.28,8.47,10.12ZM442.49,254.86c-7.21,2.14-9.54,9.5-6.69,15.97,1.88,4.26,8.06,7.34,14.15,5.23,4.91-1.7,8.54-8.06,6.73-13.67-1.76-5.46-7.34-9.57-14.19-7.54ZM270.93,284.26l-10.12,48.44c-1.21,5.81-.24,15.03,4.6,18.68,10,7.53,22.47,2.93,30.12-7.71,3.61,9.73,10.43,12.42,19.28,10.88,11.65-2.02,17.85-11.96,22.88-22.52,1.87,8.13,2.94,16.14,9.16,19.9,10.85,6.56,22.61,2.09,30.54-7.79,4.64,9.27,11.94,11.42,20.63,9.38,11.53-2.7,18.84-13.2,21.5-24.33-1.85-.23-4.99-.65-5.64.56l-2.64,4.93c-1.12,2.1-4.28,4.88-6.13,6.17-1.59,1.1-8.65-1.38-8.25-3.34l16.74-81.18-20.82,2.57-6.23,28.07c-11.1-7.15-23.41-3.45-32.33,5.04-9.65,9.19-13.09,22.92-16.01,35.26-12.99,4.14-2.71,5.98-15.29,13.67-1.61.99-8.12-1.5-7.67-3.7l10.59-52.9-20.31-.15-9.67,45.32c-1.8,8.45-10.46,13.77-13.2,10.57-.84-.99-1.83-4.42-1.55-5.77l10.31-49.87-20.51-.19ZM441.66,354.42c12.16-2.19,17.1-11.41,23.21-20.73,2.32,7.4,3.95,14.32,9.43,17.46,13.47,7.72,28.76,2.86,37.76-9.03,6.82-9.02,7.5-20.03,11.07-30.4,3.13-5.62,11.12-10.95,12.38-18.9-5.35-3.49-5.39,5.05-12.85,8.53-2.1-7.75-3.75-14.7-10.65-17.06-13.12-4.49-26.45,1.17-34.6,12.02-6.65,8.86-9.51,20.61-11.74,31.1-13.1,3.87-2.57,5.63-16.21,13.55-1.63.95-8.38-1.37-8-3.3l10.56-53.35-20.53.08-10.51,51.56c-.96,4.73,1.68,12.13,4.37,14.97,3.44,3.64,10.37,4.57,16.32,3.5ZM231.36,549.17c32.88,13.29,78.41,2.52,85.75-38.13,3.16-17.48-1.39-34.53-13.31-47.73l-20.24-22.43c-7.95-8.81-10.81-22.31-4.22-32.63,6.25-9.79,23.5-10.7,30.02-.92s-.55,20.68-8.58,26.86c3.6,5.42,10.44,6.59,16.63,4.44,4.51-1.57,9.3-6.95,11.07-12.32,4.4-13.38-.39-26.82-13.63-32.02-17.14-6.73-36.71-6.03-52.73,3.02-19.14,10.81-24.46,34.15-11.48,51.84l21.91,29.88c14.58,19.89,11.31,50.54-7.96,56.37-7.84,2.37-16.38,1.56-22.51-3.95-8.57-7.7-8.92-21.87-.04-29.65,5.2-4.56,13.66-5.09,20.1-6.2,1.06-6.69-5.03-12.3-10.91-14-20.46-5.91-38.55,8.31-41.27,28.82-2.21,16.7,4.52,31.94,21.41,38.77ZM492.87,506.72l23.06.15,11.48-52.85c1.2-5.52,6.09-11.76,11.78-12.24,3.3-.28,5.96,6.18,5.32,9.29l-6.89,33.35c-1.37,6.65.16,15.26,5.7,19.31,9.29,6.79,22.75,4.74,30.39-3.74,4.66-5.17,7.62-11.42,11.19-18.11,2.11,8.94,2.93,17.55,10.01,22.11,11.21,7.23,24.72,3.56,33.8-7.89,4.43,8.66,11.02,12.59,20.07,11.36,7.53-1.02,14.79-7.19,14.1-15.54-2.76-.29-6.91-.81-9-1.45s-1.75-6.94-1.28-9.14l18.09-85.1-23.76,3.03-7.04,32.77c-11.68-11.23-29.52-3.44-38.73,7.06-9.46,10.8-13.15,24.98-15.65,38.59-5.46-.17-8.75,1.87-10.04,6.57-1.58,5.74-10.62,10.99-14.84,4.98-5.35-11.5,17.48-49.41-.9-59.74-8.7-4.89-18.35-2.5-25.88,2.75l-2.75-4.98-21.47.46-16.76,79ZM486.41,485.16c-1.27,2.48-4.81,5.46-6.99,6.47-1.86.86-7.42-1-9.25-3.41l12.39-60.53-23.06-.1-10.6,50.22c-2.22,10.51-11.49,16.71-15,13.2-1.12-1.12-2.35-5.12-1.92-7.16l11.74-56.14-22.97-.29-3.62,15.3c-6.86,5.4-15.25,8.08-23.74,9.01-1.37-9.93-2.15-19.74-11.29-23.49-13.38-5.49-28.99.11-38.11,11.25-10.96,13.4-15.81,30.62-14.6,47.84.72,10.23,7.96,17.43,17.44,19.31,29.47,5.84,42.86-22.65,46.07-46.23l22.16-7.86-6.05,30.79c-1.45,7.39.02,17.18,6.53,21.28,11.84,7.46,25.25.78,32.64-9.91,2.72,5.7,5.74,10.86,10.65,12.1,19.67,4.96,32.25-12.19,37.91-28.47-2.98-.25-6.59-.5-7.31.9l-3.04,5.94Z"/>
    <path d="M628.8,482.72c-.73,3.4-4.45,6.22-6.23,7.7-2.03,1.69-10.34,1.58-11.04-1.14-4.57-17.8,3.45-48.59,20.11-52.49,1.78-.42,6.34,3.27,5.9,5.36l-8.73,40.58Z"/>
    <path d="M229.8,296.08l-18.82-4.91c7.51-13.18,12.39-25.22,26.31-35.18-1.69,13.44-4.18,24.01-7.49,40.08Z"/>
    <path d="M378.5,460.8c-.66,10.22-8.04,34.27-20.44,31.68-13.84-2.89,3.22-63.82,18.51-55.53,10.09,5.47-10.19,14.12,1.94,23.86Z"/>
    <path d="M376.91,332.43c-.55,2.63-4.39,6.01-6.05,7.38-1.9,1.57-8.95,1.07-9.59-1.59-3.61-14.88,2.34-38.94,15.92-45.71,1.77-.88,7.73,1.86,7.27,4.05l-7.54,35.87Z"/>
    <path d="M509.3,313.84c-.07,8.56-8.13,32.27-18.47,27.31-9.78-4.69,2.15-52.48,15.96-49.26,9.16,2.13-6.28,13.73,2.51,21.95Z"/>
  </g>
  <path d="M749.89,322.32c-38.22-70.89-116.42-116.15-189.76-138.64-103.74-31.8-214.83-31.93-318.65-.52-72.85,22.04-150.03,66.22-189.47,135.55-29.12,51.19-29.08,111.57.1,162.72,38.32,67.18,112.29,110.95,182.88,133.32,105.11,33.31,217.91,34.16,324.44,1.76,74.22-22.58,152.29-68.15,190.43-138.76,26.59-49.23,26.58-106.19.03-155.43ZM721.42,468.06c-35.07,62.02-106.85,102.06-175.08,121.89-97.94,28.46-201.65,27.72-298.29-1.54-64.9-19.65-132.91-58.1-168.14-117.11-26.83-44.93-26.86-97.97-.09-142.93,36.26-60.9,107.22-99.7,174.2-119.06,95.45-27.6,197.59-27.48,292.97.45,67.43,19.75,139.32,59.5,174.46,121.78,24.41,43.26,24.42,93.29-.03,136.53Z"/>
  <path class="cls-1" d="M721.44,331.53c-35.15-62.27-107.03-102.03-174.46-121.78-95.38-27.93-197.52-28.05-292.97-.45-66.98,19.36-137.94,58.16-174.2,119.06-26.77,44.97-26.74,98,.09,142.93,35.23,59.01,103.24,97.46,168.14,117.11,96.63,29.26,200.34,30.01,298.29,1.54,68.23-19.83,140.02-59.86,175.08-121.89,24.45-43.25,24.44-93.27.03-136.53Z"/>
</svg>