<?xml version="1.0" encoding="UTF-8"?>
<svg id="Capa_1" data-name="Capa 1" xmlns="http://www.w3.org/2000/svg" viewBox="0 0 800 800">
  <g>
    <path d="M490.03,694.25l16.1-36.65h13.92v2.33c-1.35,0-2.41.23-3.16.53-.83.3-1.43.75-1.88,1.43s-.75,1.66-.9,2.78c-.15,1.2-.23,2.71-.23,4.59v24.31c0,2.03.08,3.69.23,4.89s.45,2.11.98,2.78c.45.68,1.13,1.13,2.03,1.28.9.23,2.03.3,3.54.38v2.33h-20.09v-2.33c1.43,0,2.63-.15,3.54-.38s1.58-.68,2.11-1.28.83-1.51.98-2.63.23-2.71.23-4.59v-28.75h-.6l-18.14,40.64h-1.35l-17.76-40.64h-.23v28.37c0,2.03.08,3.69.23,4.89s.45,2.11.98,2.78c.45.68,1.13,1.13,2.03,1.28.9.23,2.03.3,3.54.38v2.33h-17.31v-2.33c1.43,0,2.63-.15,3.54-.38s1.58-.68,2.11-1.28.83-1.51.98-2.63.23-2.71.23-4.59v-25.21c0-1.73,0-3.16-.23-4.29-.15-1.13-.45-2.03-.9-2.71-.45-.68-1.05-1.13-1.88-1.43s-1.88-.45-3.24-.53v-2.33h14.82l15.65,36.65h.23-.08Z"/>
    <path d="M568.37,682.43c0-1.73,0-3.01-.15-3.99-.08-.98-.3-1.73-.68-2.26s-.9-.9-1.58-1.05c-.68-.15-1.66-.38-2.78-.45v-2.18h11.21v19.04c0,2.33,0,4.29.08,5.79,0,1.51.15,2.63.3,3.31.08.53.23.98.38,1.28s.45.53.83.75c.38.15.83.3,1.43.38.6,0,1.35.08,2.33.08v2.18l-10.23.75-.68-7.45h-.23c-1.58,2.56-3.39,4.44-5.42,5.64s-4.21,1.73-6.4,1.73-3.39-.3-5.04-.98c-1.66-.68-2.86-1.58-3.69-2.63-.68-.9-1.2-2.18-1.51-3.76s-.45-3.69-.45-6.25v-9.86c0-1.73,0-3.01-.15-3.99-.08-.98-.3-1.73-.68-2.26s-.9-.9-1.58-1.05c-.68-.15-1.66-.38-2.78-.45v-2.18h11.21v16.93c0,4.52.53,7.75,1.58,9.78,1.05,2.03,2.71,3.01,5.04,3.01,3.61,0,6.47-2.41,8.5-7.15.23-.53.38-.98.53-1.35s.23-.9.3-1.35c.08-.53.15-1.05.15-1.66v-8.35h.15Z"/>
    <path d="M603.89,705.39h-1.35v-10.69h1.58c1.58,5.79,4.52,8.73,8.8,8.73s2.93-.38,3.91-1.2,1.43-2.03,1.43-3.69-.08-1.13-.3-1.58c-.15-.45-.53-.9-1.05-1.35s-1.2-1.05-2.18-1.66c-.9-.6-2.18-1.43-3.69-2.33-1.43-.9-2.63-1.66-3.69-2.41s-1.88-1.51-2.63-2.26c-.68-.75-1.2-1.58-1.58-2.48s-.53-1.88-.53-3.01.23-2.71.68-3.84c.45-1.2,1.13-2.18,1.96-3.01s1.81-1.51,2.93-1.96,2.33-.68,3.69-.68,2.26.15,3.46.53,2.26.83,3.16,1.43l1.2-1.28h1.2v8.96h-1.58c-.9-2.48-1.88-4.29-3.01-5.42-1.05-1.05-2.41-1.58-3.99-1.58s-2.56.38-3.39,1.13-1.28,1.81-1.28,3.09.15,1.28.38,1.81.6,1.05,1.05,1.51,1.13.98,1.88,1.51,1.66,1.13,2.78,1.73c1.81,1.13,3.31,2.11,4.59,3.01s2.26,1.73,3.09,2.56c.75.83,1.35,1.73,1.73,2.63s.53,1.96.53,3.09c0,2.93-.98,5.27-2.86,6.92-1.88,1.66-4.44,2.48-7.53,2.48s-6.02-.9-8.28-2.78l-1.2,2.18.08-.08Z"/>
    <path d="M658.22,695.53c0,1.58,0,2.93.23,3.84.15.98.45,1.73.83,2.26s.98.9,1.73,1.13,1.73.3,3.01.38v2.18h-17.76v-2.18c1.2,0,2.26-.15,3.01-.38s1.43-.6,1.81-1.13c.45-.53.75-1.2.9-2.18.15-.9.23-2.11.23-3.54v-7.9c0-2.41,0-4.36-.08-5.94,0-1.58-.15-2.63-.38-3.16-.23-.98-.68-1.58-1.43-1.96s-2.18-.53-4.21-.53v-2.18l12.12-2.33v23.63h0ZM651.07,659.33c0-1.05.38-1.96,1.13-2.71s1.66-1.13,2.71-1.13,1.96.38,2.71,1.13,1.13,1.66,1.13,2.71-.38,1.96-1.13,2.71c-.75.75-1.66,1.13-2.71,1.13s-1.96-.38-2.71-1.13-1.13-1.66-1.13-2.71Z"/>
    <path d="M713.91,700.19c-1.51,1.81-3.39,3.24-5.79,4.21-2.33.98-4.89,1.51-7.6,1.51s-4.21-.38-6.02-1.2-3.39-1.96-4.74-3.39c-1.35-1.43-2.33-3.24-3.09-5.27s-1.05-4.36-1.05-6.85.38-5.04,1.2-7.15c.83-2.11,1.96-3.91,3.54-5.49s3.31-2.63,5.42-3.46,4.44-1.2,7.07-1.2,3.09.15,4.44.38c1.35.3,2.48.68,3.46,1.13s1.73,1.05,2.26,1.73c.53.68.83,1.43.83,2.18s-.3,1.51-.83,1.96c-.53.45-1.28.68-2.26.68s-1.35-.15-1.88-.45c-.53-.3-1.13-.98-1.96-2.11-.83-.98-1.66-1.66-2.41-2.03-.75-.38-1.73-.6-2.93-.6-2.93,0-5.19,1.13-6.7,3.39s-2.26,5.64-2.26,10.01.83,8.35,2.48,10.84c1.66,2.48,4.14,3.69,7.37,3.69s3.39-.38,4.89-1.05,3.09-1.81,4.67-3.31l1.88,1.81v.08Z"/>
  </g>
  <path d="M714.96,562.4h0c-.23-28.6-22.12-52.68-52.75-52.68s-31.61,10.54-37.02,15.95v-6.17c0-3.61-2.93-6.55-6.55-6.55h-9.48c-3.61,0-6.55,2.93-6.55,6.55v113.48c0,3.61,2.93,6.55,6.55,6.55h9.48c3.61,0,6.55-2.93,6.55-6.55v-64.34c0-25.28,14.07-37.1,33.19-37.1s33.94,2.48,33.94,35.14h0v66.3c0,3.61,2.93,6.55,6.55,6.55h9.48c3.61,0,6.55-2.93,6.55-6.55v-70.66l.08.08Z"/>
  <path d="M514.19,642.25c-16.48,0-58.17-4.06-58.17-65.85s41.61-65.85,58.17-65.85,58.17,4.06,58.17,65.85-41.61,65.85-58.17,65.85ZM550.08,576.4c0-34.39-17.99-44.4-35.9-44.4s-35.9,10.08-35.9,44.4,17.99,44.4,35.9,44.4,35.9-10.08,35.9-44.4Z"/>
  <path d="M383.4,510.1c16.71,0,46.73,10.01,46.73,28.37s-1.58,6.62-8.73,6.62-10.23-.3-14.75-5.04c-4.36-4.67-11.74-8.43-24.91-8.43s-25.51,8.58-25.13,15.05c.53,9.56,6.1,13.92,30.93,18.66,29.05,5.57,46.21,15.58,46.21,39.28s-24.76,37.55-51.4,37.55-50.34-15.88-50.34-29.27,3.91-6.47,9.26-6.47,10.01,0,14.67,4.52c5.64,5.42,15.73,10.23,25.89,10.23s29.42-4.59,29.42-16.86-16.93-16.63-34.39-19.34c-26.94-4.21-42.22-14.45-42.89-38.15-.53-18.81,16.48-36.72,49.29-36.72h.15Z"/>
  <path d="M310.4,512.66c-7.6,0-13.09,3.24-15.13,7.53l-37.17,80.82-36.57-80.82c-1.96-4.36-7.45-7.53-15.13-7.53s-10.01,4.67-7.6,9.86c0,0,25.51,55.54,45.68,100.69,1.05,2.41,1.05,5.12,0,7.45l-21.37,46.36c-1.28,3.24-.83,9.71,9.26,9.71s12.57-5.04,14.37-8.96c1.88-3.91,71.34-155.25,71.34-155.25,2.41-5.19,0-9.86-7.6-9.86h-.08Z"/>
  <path d="M192.41,630.58c-1.96-5.27-60.35-154.19-60.35-154.19-1.2-2.86-2.63-7.37-12.49-7.37h-9.71c-9.86,0-11.21,4.59-12.49,7.37,0,0-58.4,148.93-60.35,154.19-2.11,5.72.9,9.86,8.13,9.78,7.22,0,12.42-.98,14.52-6.25l12.12-31.08c.38-.98,1.35-1.66,2.41-1.66h80.97c1.05,0,2.03.68,2.41,1.66l12.12,31.08c2.11,5.34,7.22,6.17,14.52,6.25,7.22,0,10.31-3.99,8.13-9.78h.08ZM82.09,576.85l31.91-81.88c.3-.68,1.28-.68,1.58,0l31.91,81.88c.38.98-.3,2.03-1.35,2.03h-62.61c-1.05,0-1.73-1.05-1.35-2.03h-.08Z"/>
  <path d="M747.85,639.84c-8.73,0-15.8-7.07-15.8-15.8s7.07-15.8,15.8-15.8,15.8,7.07,15.8,15.8-7.07,15.8-15.8,15.8ZM747.85,610.49c-7.53,0-13.62,6.1-13.62,13.62s6.1,13.62,13.62,13.62,13.62-6.1,13.62-13.62-6.1-13.62-13.62-13.62Z"/>
  <path d="M160.88,485.87l94.82-158.11c1.96-3.31,4.89-6.02,8.35-7.68l181.74-88.05c2.48-1.2,3.46-4.21,2.26-6.7l-7.68-15.13c-1.2-2.33-3.99-3.31-6.4-2.26l-142.53,63.59c-1.2.53-2.41-.83-1.66-1.96l109.27-175.04c.53-.83,1.73-.83,2.26,0l32.89,49.67s-12.42-7.45-19.72-12.42c-4.59-3.09-8.5-6.4-10.84-8.5-1.13-1.05-2.93-.68-3.69.68l-42.59,82.93,90.3-39.73c1.73-.75,3.69-.08,4.59,1.58l39.81,72.02c.98,1.81.3,4.14-1.58,4.97l-211.69,100.46c-1.2.6-2.26,1.58-2.93,2.71l-41.39,72.62c-.6,1.05.53,2.18,1.58,1.58l171.8-97.15c2.48-1.43,5.57-1.28,7.9.3l150.43,100.39c.68.45,1.58-.3,1.2-1.05l-53.05-114.53c-.6-1.2,1.13-2.18,1.88-1.05l126.73,185.35c.75,1.13-.53,2.56-1.73,1.81l-228.17-134.4c-1.66-.98-3.69-1.05-5.34-.15l-245.02,124.99c-1.13.6-2.26-.68-1.66-1.73h-.15Z"/>
  <path d="M741.98,632.62v-17.68h7.07c1.43,0,2.48.15,3.24.45s1.35.9,1.81,1.66c.45.83.68,1.66.68,2.63s-.38,2.33-1.13,3.16c-.75.83-1.88,1.43-3.39,1.66.53.3.98.6,1.28.9.6.6,1.2,1.43,1.73,2.33l2.78,4.82h-2.63l-2.11-3.69c-.6-1.05-1.13-1.88-1.51-2.41s-.75-.98-1.05-1.2-.6-.38-.98-.45c-.23,0-.6-.08-1.2-.08h-2.48v7.83h-2.11v.08ZM744.08,622.76h4.59c.98,0,1.73-.08,2.26-.3.53-.23.98-.6,1.28-1.05.3-.45.45-.98.45-1.58,0-.83-.3-1.51-.83-2.03-.53-.53-1.43-.83-2.63-.83h-5.04v5.87l-.08-.08Z"/>
</svg>