<?xml version="1.0" encoding="UTF-8"?>
<svg id="Capa_1" data-name="Capa 1" xmlns="http://www.w3.org/2000/svg" viewBox="0 0 1600 400">
  <defs>
    <style>
      .cls-1 {
        font-family: ArialMT, Arial;
        font-size: 68.7px;
      }
    </style>
  </defs>
  <path d="M1417.76,219.09c1.62,7.02.87,13.89.88,22.01h-170.95c-4.86.01-8.32-3.29-9.04-7.74-.79-4.93.9-9.53,4.65-13.16l123.46-119.44-125.22-.53.02-22.24,170.14.02c5.4,0,9.49,3.92,9.77,8.96.22,3.79-.66,8.04-4.07,11.34l-121.58,117.31c-1.08,1.04-1.28,1.96-1.21,2.29s1.23,1.19,2.27,1.19h120.88Z"/>
  <path d="M951.86,241.09l-170.37.03c-5.27,0-9.14-3.05-9.81-8.32-.49-3.9.86-8.74,4.09-11.88l124.13-120.19-125.38-.5v-22.24s169.98,0,169.98,0c4.82,0,8.6,2.69,9.72,6.9,1.54,5.77-.76,10.85-5.19,14.91l-122.88,118.75,125.67.63.03,21.91Z"/>
  <path d="M636.25,219.08h120.53s-.03,21.87-.03,21.87l-141.36-.57c-25.93-.1-46.27-20.66-47.62-46.16-1.2-22.58-.5-43.99-.31-66.68.12-14.08,6.5-27.56,16.92-36.59,9.88-8.56,22.39-12.58,35.78-12.59l136.59-.12.02,22.04-120.94.02c-13.75,0-25.66,10.64-25.67,24.56l-.05,69.16c-.01,14.16,11.64,25.07,26.15,25.07Z"/>
  <path d="M1171.2,78.48l-88.03,157.48c-1.99,3.57-5.88,5.19-9.55,5.18l-16-.02c-4.01,0-7.64-2.22-9.75-5.99l-87.51-156.69,39.54-.17,66.03,121.32,65.86-121.24,39.41.15Z"/>
  <polygon points="1217.33 240.6 1182.68 240.93 1182.65 78.26 1217.31 78.27 1217.33 240.6"/>
  <polygon points="754.2 169.21 625.02 169.23 625 148.15 754.15 148.15 754.2 169.21"/>
  <path d="M1466.82,99.89l.68-15.63-5.17,13.97c-.23.62-1.32,1.69-1.81,2.03s-2.28-.96-2.52-1.65l-4.62-13.23-.07,13.65c0,1.26-4.54,1.31-4.53.14l.13-19.91c.01-1.59,5.65-1.26,6.25.44l5.05,14.26,5.09-14.67c.52-1.49,6.09-1.41,6.1.04l.15,19.67c0,.66-3.35,1.1-4.74.89Z"/>
  <path d="M1440.42,98.89c-.02.75-3.43,1.89-3.68,1.27s-.75-2.2-.76-2.93l-.22-15.37c-3.16.22-6.14.86-6.04-3.49l16.27-.1c.31,1.01.51,3.32-.15,3.38l-5.02.43-.39,16.81Z"/>
  <g>
    <path d="M220.45,348.22c-38.43,7.26-90.6-5.77-91.97-52.39-1.27-42.86,35.42-61.27,73.3-68.78,13.4,42.07,49.16,72.32,95.13,77.2-20.33,23.44-47.19,37.89-76.46,43.97Z"/>
    <path d="M316.18,269.04c-2.23,10.54-6.67,18.92-13.1,27.05-43.56-1.6-80.69-29.89-93.76-70.88,9.48-1.1,18.17-1.91,27.75-2.34,11.43,28.06,37.68,46.18,67.75,46.95l11.36-.78Z"/>
    <path d="M245.32,223.37c25.89-1.95,70.33,3.89,72.42,38.18-29.95,4.45-59.11-9.92-72.42-38.18Z"/>
  </g>
  <g>
    <path d="M452.89,291.22c4.36,38.86-2.81,81.77-49.4,79.65-42.83-1.95-68.18-31.78-72.83-70.12,42.96-10.21,75.8-43.6,84.12-89.07,21.85,22.03,34.25,49.9,38.11,79.54Z"/>
    <path d="M381.12,189.83c10.34,3.01,18.37,8.07,25.99,15.09-4.86,43.31-35.86,78.22-77.72,88.18-.39-9.54-.54-18.26-.25-27.85,28.84-9.29,48.87-34.11,51.9-64.04l.07-11.39Z"/>
    <path d="M330.26,257.06c0-25.96,9.16-69.84,43.5-69.36,2.19,30.2-14.32,58.2-43.5,69.36Z"/>
  </g>
  <g>
    <path d="M388.19,42.05c38.16-8.56,90.74,2.7,93.69,49.25,2.72,42.79-33.33,62.43-70.93,71.22-14.82-41.59-51.58-70.61-97.69-73.93,19.52-24.12,45.88-39.47,74.92-46.53Z"/>
    <path d="M295.2,124.42c1.87-10.61,6.03-19.14,12.18-27.48,43.59.12,81.65,27.14,96.11,67.67-9.44,1.42-18.09,2.52-27.65,3.27-12.37-27.66-39.23-44.87-69.3-44.63l-11.33,1.17Z"/>
    <path d="M367.56,167.67c-25.8,2.82-70.42-1.51-73.68-35.7,29.78-5.46,59.41,7.91,73.68,35.7Z"/>
  </g>
  <g>
    <path d="M146.28,116.19c-8.8-35.64,19.24-84.14,68.42-86.99,45.21-2.61,49.91,30.38,58.96,65.5-44.02,13.92-74.9,48.33-78.69,91.41-25.35-18.2-41.4-42.8-48.68-69.93Z"/>
    <path d="M232.7,202.93c-11.19-1.73-20.17-5.6-28.94-11.33.4-40.73,29.17-76.35,72.06-89.92,1.44,8.82,2.55,16.9,3.29,25.84-29.29,11.61-47.64,36.73-47.57,64.84l1.16,10.58Z"/>
    <path d="M278.82,135.24c2.82,24.11-2.03,65.8-38.17,68.91-5.58-27.82,8.72-55.53,38.17-68.91Z"/>
  </g>
  <text class="cls-1" transform="translate(570.54 331.59) scale(.97 1)"><tspan x="0" y="0">Creating Easy Smart Homes</tspan></text>
</svg>