<?xml version="1.0" encoding="UTF-8"?>
<svg id="Capa_1" data-name="Capa 1" xmlns="http://www.w3.org/2000/svg" viewBox="0 0 1600 400">
  <path d="M1219.23,105.72c-35.56-1.18-74.02,19.29-92.26,57.82-11.32,21.75-19.95,45.96-25.69,69.72-.52,2.1-.99,4.2-1.44,6.29-.58,3.38-.62,7.71-.31,12.14,1.41,18.71,18.02,41.33,45.4,42.61h32.48c35.55,1.18,73.99-19.29,92.24-57.82,11.32-21.76,19.95-45.99,25.69-69.74.51-2.11,1-4.22,1.44-6.29.59-3.39.63-7.71.31-12.14-1.41-18.72-18.02-41.32-45.4-42.59h-32.46ZM609.44,107.46l14.54,185.03h29.16s-.12,0-.17,0h1.72c5.8-.18,10.98-3.21,14.06-7.82h.02l118.89-177.21h-30.75l-85.17,127.19-9.99-127.19h-52.32ZM808.91,107.46l-68.23,185.03h52.38l68.21-185.03h-52.36ZM931.8,107.46c-47.04.58-67.84,52.91-42.13,86.44,13.04,15.92,31.66,32.43,42.17,49.87,6.66,9.43-.46,25.15-13.2,25.3h-83.07l-8.6,23.42h105.18c41.22-.12,69.11-48.66,41.45-85.89-12.77-18.86-33.02-31.74-44.99-50.16-7.12-9.61.04-25.4,12.9-25.56h77.31l8.62-23.42h-95.64ZM1063.68,107.46l-68.19,185.03h52.36l68.21-185.03h-52.38ZM1346.38,107.46l-68.51,185.03h26.98l47.21-127.53.24,2.29,42.41,114.53c2.54,6.02,8.37,10.34,15.23,10.7h24.67l68.53-185.03h-26.98l-46.3,125.05-49.29-125.05h-34.18ZM1231.18,124.86c9.87.76,17.72,9.06,17.72,19.14.08,2.48-.35,4.93-1.27,7.16l-34.6,94.23c-6.98,18.08-23.21,29.16-42.49,29.73h-5.11c-9.87-.76-17.72-9.06-17.72-19.14-.08-2.48.36-4.96,1.29-7.18l34.59-94.23c6.99-18.08,23.22-29.14,42.52-29.69h5.08v-.02Z"/>
  <path d="M124.1,107.46l-68.23,185.03h55.61l32.63-88.49h66.2l-32.63,88.49h43.44c7.35,0,13.66-4.64,16.22-11.11.03-.09.06-.12.09-.17l64.06-173.76h-55.61l-26.26,71.24h-66.2l26.26-71.24h-55.59ZM336.84,107.46l-68.21,185.03h55.59l68.21-185.03h-55.59ZM430.26,107.46l-68.21,185.03h55.59l26.15-70.96,13.9-10.67,36.87,71.5.02-.09c.05.09.07.12.09.17,3.02,6.27,9.66,10.41,17,9.91-.13,0-.27.09-.42.09h47.21l-58.73-113.87,92.63-71.13h-41.54l-90.62,69.58,25.65-69.58h-55.59v.02Z"/>
  <path d="M1544.13,123.81c0,10.31-8.09,18.39-18.61,18.39s-18.72-8.08-18.72-18.39,8.3-18.18,18.72-18.18,18.61,8.09,18.61,18.18M1511.45,123.81c0,8.09,5.98,14.52,14.17,14.52s13.86-6.43,13.86-14.41-5.87-14.62-13.96-14.62-14.07,6.54-14.07,14.52M1522.63,133.34h-4.2v-18.18c1.65-.33,3.98-.56,6.98-.56,3.43,0,4.98.56,6.31,1.33,1,.77,1.77,2.22,1.77,3.99,0,2-1.55,3.54-3.77,4.2v.23c1.77.66,2.78,2,3.33,4.43.56,2.78.89,3.89,1.32,4.55h-4.54c-.56-.66-.89-2.33-1.44-4.43-.33-2-1.44-2.88-3.77-2.88h-2v7.31h0ZM1522.74,123.03h2c2.33,0,4.22-.77,4.22-2.66,0-1.65-1.22-2.76-3.89-2.76-1.1,0-1.88.1-2.33.22v5.21h0Z"/>
</svg>