<?xml version="1.0" encoding="UTF-8"?>
<svg id="Capa_1" data-name="Capa 1" xmlns="http://www.w3.org/2000/svg" viewBox="0 0 1600 400">
  <polygon points="468.24 70.58 468.24 328.29 435.92 328.29 435.92 216.52 321.85 216.52 321.85 328.29 289.55 328.29 289.55 70.58 321.85 70.58 321.85 180.03 435.92 180.03 435.92 70.58 468.24 70.58"/>
  <path d="M500.22,108.01v-39.58h27.75v39.58h-27.75ZM500.22,133.61h27.75v194.67h-27.75v-194.67Z"/>
  <path d="M563.81,328.29V68.43h34.33v226.7h86.4v33.15h-120.72Z"/>
  <path d="M1151.49,328.29h-30.86V68.43h30.86v165.67l80.12-102.82,39.5.33-83.91,100.86,80.18,95.82h-37.06l-78.81-94.18v94.18Z"/>
  <path d="M749.83,178.94c11.29-13.16,26.24-19.73,44.87-19.73s33.4,6.58,44.68,19.73c7.36,8.58,12.31,18.94,14.87,31.05h36.43c-3.37-21.97-12.37-39.27-27.05-51.86-19.06-16.35-42.03-24.52-68.92-24.52s-50.05,8.17-69.11,24.52c-14.68,12.59-23.68,29.89-27.05,51.86h36.43c2.56-12.11,7.5-22.47,14.86-31.05Z"/>
  <path d="M839.38,282.96c-11.29,13.16-26.18,19.73-44.68,19.73s-33.59-6.58-44.87-19.73c-7.8-9.09-12.9-20.19-15.31-33.3h-36.3c3.1,23.06,12.21,41.1,27.36,54.1,19.06,16.35,42.09,24.52,69.11,24.52s49.86-8.17,68.92-24.52c15.16-13,24.26-31.05,27.36-54.1h-36.3c-2.41,13.11-7.51,24.21-15.31,33.3Z"/>
  <path d="M959.82,178.94c11.29-13.16,26.24-19.73,44.87-19.73s33.4,6.58,44.68,19.73c7.36,8.58,12.31,18.94,14.87,31.05h36.43c-3.37-21.97-12.37-39.27-27.05-51.86-19.06-16.35-42.03-24.52-68.92-24.52s-50.05,8.17-69.11,24.52c-14.68,12.59-23.68,29.89-27.05,51.86h36.43c2.56-12.11,7.5-22.47,14.86-31.05Z"/>
  <path d="M1049.38,282.96c-11.29,13.16-26.18,19.73-44.68,19.73s-33.59-6.58-44.87-19.73c-7.8-9.09-12.9-20.19-15.31-33.3h-36.3c3.1,23.06,12.21,41.1,27.36,54.1,19.06,16.35,42.09,24.52,69.11,24.52s49.87-8.17,68.92-24.52c15.16-13,24.26-31.05,27.36-54.1h-36.3c-2.41,13.11-7.51,24.21-15.31,33.3Z"/>
  <circle cx="795.28" cy="231.52" r="28.37"/>
  <circle cx="1005.81" cy="230.95" r="28.37"/>
</svg>