<?xml version="1.0" encoding="UTF-8"?>
<svg id="Capa_1" data-name="Capa 1" xmlns="http://www.w3.org/2000/svg" viewBox="0 0 1600 400">
  <defs>
    <style>
      .cls-1 {
        fill: #fff;
      }
    </style>
  </defs>
  <g>
    <g>
      <g>
        <path d="M604.87,259.7l-47.98.3-.49-84.48c-.05-8.26-7.03-16.36-16-14.1-7.74,1.95-18.45,11.12-18.51,20.1l-.55,78.47-48.59-.28.08-140.51,42.97-.17,1.51,18.77c11.9-15.27,28.78-21.24,47.77-21.59,16.5-.31,30.28,7.85,36.87,23.2,15.6-20.03,42.24-29.35,65.8-18.91,12.4,5.49,20.23,20.95,20.27,34.77l.32,104.7-47.46-.2-.36-83.78c-.01-2.95-2.99-8.91-4.65-11.26-1.89-2.68-9.29-4.54-13.3-3.02-7.33,2.77-17.27,11.9-17.31,20.22l-.38,77.76Z"/>
        <path d="M407.78,259.82c-34.94,6.85-68.81-2.14-100.67-19.4l21.14-45.89c14.21,11.19,67.12,31.15,72.24,14.74,1.28-4.1-2.79-10.84-7.19-12.39l-39.29-13.84c-12.15-4.28-25.57-11.83-32.15-23.5-13.07-23.18-7.94-53.67,10.65-72.27,31.15-31.18,81.35-18.85,117.42,1.52l-21.23,42.83c-13.4-9.36-58.23-27.23-62.17-9.98-6.09,26.66,87.71,10.35,88.04,80.39.14,28.54-16.64,51.88-46.8,57.79Z"/>
        <path d="M796.57,239.29c-11.73,14.21-27.36,23.62-46.04,23.25-21.42-.43-38.92-13.82-44.11-32.93-5.49-20.21,2.81-40.97,21.41-51.73,17.96-10.38,39.25-11.27,60.26-4.47,4.15-8.74-1.74-19.75-12.1-21.7-18.72-3.52-34.89,2.68-51.07,14.24l-13.81-31.66c27.05-17.95,60.28-22.9,91.22-13.1,58.51,18.53,20.98,92.11,44.38,96.57l.36,41.94c-12.09,2.85-23.43,4.17-35.05.57-8.53-2.64-11.82-10.83-15.46-20.97ZM777,224.04c11.48-4.13,15.1-13.32,11.48-23.92-13.47-5.99-36.82-4.44-38.12,11.25-.38,4.64,2.84,11.19,7.77,13.17,5.43,2.18,13.19,1.54,18.88-.5Z"/>
        <path d="M1053.07,212.72l8.45,39.29c-17.2,7.71-33.53,11.84-51.55,10.36-17.82-1.47-32.54-15-32.69-33.65l-.57-70.63-16.4-1.08.07-37.45,16.23-1.12.54-43.36h47.98s.19,43.52.19,43.52l26.16.78.29,37.65-26.47.58-.09,48.83c0,4.23,5.56,11.19,9.8,10.26l18.06-3.97Z"/>
        <path d="M912.93,259.73l-48.28.11.07-140.82,43.85.2,1.21,23.34c11.96-17.42,25.57-28.21,45.73-25.98l-.04,45.92c-16.57.46-31.3,1.95-42.42,13.21l-.11,84.03Z"/>
      </g>
      <g>
        <rect x="241.85" y="131.11" width="51.95" height="130.84"/>
        <circle cx="267.83" cy="88.46" r="25.98"/>
      </g>
    </g>
    <g>
      <path d="M313.82,295.4h23.84v4.46h-18.58v12.96h15.67v4.45h-15.67v15.04h19.21v4.46h-24.47v-41.36Z"/>
      <path d="M370.56,295.4h5.26v36.91h18.05v4.46h-23.32v-41.36Z"/>
      <path d="M422.75,295.4h23.84v4.46h-18.58v12.96h15.67v4.45h-15.67v15.04h19.21v4.46h-24.47v-41.36Z"/>
      <path d="M475.12,316.11c0-13.34,7.86-21.47,18.36-21.47,5.02,0,8.95,2.44,11.38,5.1l-2.88,3.43c-2.18-2.32-4.91-3.9-8.4-3.9-7.82,0-13.01,6.4-13.01,16.71s4.96,16.91,12.81,16.91c3.95,0,6.95-1.72,9.59-4.64l2.88,3.3c-3.27,3.79-7.32,5.97-12.69,5.97-10.3,0-18.02-7.97-18.02-21.4Z"/>
      <path d="M544.5,299.85h-12.51v-4.46h30.29v4.46h-12.51v36.91h-5.26v-36.91Z"/>
      <path d="M609.37,318.7c5.6-1.38,9.29-5.22,9.29-11.66,0-8.62-6.06-11.64-14.47-11.64h-12.96v41.36h5.26v-17.47h7.47l9.96,17.47h5.98l-10.53-18.06ZM603.44,315.01h-6.94v-15.33h6.94c6.44,0,9.96,1.93,9.96,7.36s-3.52,7.97-9.96,7.97Z"/>
      <path d="M646.25,315.93c0-13.25,7.29-21.29,17.68-21.29s17.68,8.06,17.68,21.29-7.29,21.59-17.68,21.59-17.68-8.34-17.68-21.59ZM676.17,315.93c0-10.3-4.86-16.66-12.24-16.66s-12.24,6.36-12.24,16.66,4.86,16.96,12.24,16.96,12.24-6.66,12.24-16.96Z"/>
      <path d="M712.06,295.4h5.44l14.97,26,4.47,8.56h.25c-.27-4.17-.67-8.83-.67-13.16v-21.41h5v41.36h-5.44l-14.97-26.03-4.46-8.54h-.25c.26,4.18.67,8.6.67,12.92v21.65h-5v-41.36Z"/>
      <path d="M774.39,295.4h5.26v41.36h-5.26v-41.36Z"/>
      <path d="M808.17,316.11c0-13.34,7.86-21.47,18.36-21.47,5.02,0,8.95,2.44,11.38,5.1l-2.88,3.43c-2.18-2.32-4.91-3.9-8.4-3.9-7.82,0-13.01,6.4-13.01,16.71s4.96,16.91,12.81,16.91c3.95,0,6.95-1.72,9.59-4.64l2.88,3.3c-3.27,3.79-7.32,5.97-12.69,5.97-10.3,0-18.02-7.97-18.02-21.4Z"/>
      <path d="M865.57,331.37l3.15-3.61c2.98,3.09,7.11,5.13,11.41,5.13,5.43,0,8.65-2.7,8.65-6.72,0-4.22-3-5.57-6.9-7.28l-5.94-2.62c-3.85-1.64-8.38-4.57-8.38-10.65s5.51-10.98,13.02-10.98c4.9,0,9.27,2.12,12.18,5.12l-2.79,3.38c-2.53-2.39-5.57-3.88-9.39-3.88-4.64,0-7.71,2.34-7.71,6.04,0,3.98,3.61,5.47,6.85,6.84l5.89,2.55c4.79,2.05,8.52,4.91,8.52,11.06,0,6.53-5.4,11.75-14.1,11.75-5.81,0-10.85-2.37-14.47-6.14Z"/>
      <path d="M931.42,331.37l3.15-3.61c2.98,3.09,7.11,5.13,11.41,5.13,5.43,0,8.65-2.7,8.65-6.72,0-4.22-3-5.57-6.9-7.28l-5.94-2.62c-3.85-1.64-8.38-4.57-8.38-10.65s5.51-10.98,13.02-10.98c4.9,0,9.27,2.12,12.18,5.12l-2.79,3.38c-2.53-2.39-5.57-3.88-9.39-3.88-4.64,0-7.71,2.34-7.71,6.04,0,3.98,3.61,5.47,6.85,6.84l5.89,2.55c4.79,2.05,8.52,4.91,8.52,11.06,0,6.53-5.4,11.75-14.1,11.75-5.81,0-10.85-2.37-14.47-6.14Z"/>
      <path d="M966.52,333.59c0-2.38,1.69-4,3.75-4s3.75,1.62,3.75,4-1.69,3.92-3.75,3.92-3.75-1.62-3.75-3.92Z"/>
      <path d="M998.2,295.4h-5.94l-13.98,41.35h5.35l3.98-12.59h15.08l3.92,12.59h5.59l-14-41.35ZM988.93,319.97l2-6.31c1.49-4.63,2.8-9.14,4.1-13.94h.24c1.33,4.78,2.67,9.31,4.16,13.94l1.96,6.31h-12.45Z"/>
      <path d="M1016.49,333.59c0-2.38,1.69-4,3.75-4s3.75,1.62,3.75,4-1.69,3.92-3.75,3.92-3.75-1.62-3.75-3.92Z"/>
      <path d="M1030.73,331.37l3.15-3.61c2.98,3.09,7.11,5.13,11.41,5.13,5.43,0,8.65-2.7,8.65-6.72,0-4.22-3-5.57-6.9-7.28l-5.94-2.62c-3.85-1.64-8.38-4.57-8.38-10.65s5.51-10.98,13.02-10.98c4.9,0,9.27,2.12,12.18,5.12l-2.79,3.38c-2.53-2.39-5.57-3.88-9.39-3.88-4.64,0-7.71,2.34-7.71,6.04,0,3.98,3.61,5.47,6.85,6.84l5.89,2.55c4.79,2.05,8.52,4.91,8.52,11.06,0,6.53-5.4,11.75-14.1,11.75-5.81,0-10.85-2.37-14.47-6.14Z"/>
    </g>
  </g>
  <rect x="1109.41" y="73.77" width="248.73" height="262.58" rx="36" ry="36"/>
  <path class="cls-1" d="M1201.46,74.37c-16.96,0-30.68,14.43-30.68,32.23,0,6.23,1.69,12.08,4.61,17.02l-30.66,35.21h-35.33v17.37h43.66l35.21-40.46c4,2,8.47,3.12,13.19,3.12,16.96,0,30.7-14.43,30.7-32.25s-13.74-32.23-30.7-32.23ZM1201.01,121.7c-7.73,0-14-7.04-14-15.72s6.27-15.72,14-15.72,14,7.04,14,15.72-6.27,15.72-14,15.72Z"/>
  <path class="cls-1" d="M1328.29,125.29c-13.19,0-24.39,9.35-28.31,22.29h-64.62l-46.99,52.42h-78.97v20.49h84.71l47.33-54.36h58.01c3.37,13.94,15.02,24.19,28.84,24.19,16.49,0,29.86-14.55,29.86-32.5s-13.37-32.52-29.86-32.52ZM1328.03,172.64c-7.73,0-14-7.04-14-15.72s6.27-15.72,14-15.72,14,7.04,14,15.72-6.27,15.72-14,15.72Z"/>
  <path class="cls-1" d="M1242.42,269.38c-4.65,0-9.06,1.16-13,3.22l-26.35-28.78h-93.67v19.51h85.67l21.35,22.25c-2.78,5.04-4.37,10.96-4.37,17.29,0,18.49,13.61,33.47,30.37,33.47s30.37-14.98,30.37-33.47-13.61-33.49-30.37-33.49ZM1241.92,318.8c-7.73,0-14-7.04-14-15.72s6.27-15.72,14-15.72,14,7.04,14,15.72-6.27,15.72-14,15.72Z"/>
  <rect class="cls-1" x="1229.96" y="200" width="65.79" height="20.49" rx="5.23" ry="5.23"/>
</svg>