<?xml version="1.0" encoding="UTF-8"?>
<svg id="Capa_1" data-name="Capa 1" xmlns="http://www.w3.org/2000/svg" viewBox="0 0 800 800">
  <path d="M195.69,687.34l-12.02-38.62h-50.21s-11.8,38.53-11.8,38.53l-19.56-.03,39.83-122.42c1.09-3.35,3.43-5.73,7.02-5.74l19.63-.02c3.85,0,5.92,3.33,6.96,6.51l10.16,31.14,16.13,49.32,13.61,41.25-19.75.09ZM178.31,631.42l-17.28-56.95c-1.46-.53-3.03-.5-4.73.04l-17.5,57.17,39.51-.26Z"/>
  <path d="M692.77,686.99c-4.3.67-8.19.2-12.58.23v-62.75s-63.72,0-63.72,0v62.76s-12.56-.03-12.56-.03v-128.12s12.58-.04,12.58-.04v53.79s63.72,0,63.72,0v-53.79s12.57.04,12.57.04v127.92Z"/>
  <path d="M424.5,624.46l-.19,39.64c-.02,4.15,2.34,11.18,7.37,11.22l55.44.39c1.62,3.13,2.47,6.7,1.49,10.52-5.25.08-10.09.27-15.31.62-13.9.95-27.56.4-41.76.29-10.52-.08-20.66-9.27-20.61-22.28l.38-86.54c.04-9.58,7.56-17.88,17.23-18.77,16.17-1.48,32.25-.13,48.84-.54,3.86-.09,7.58,1.97,11.65.61.3,3.99-.78,6.45-1.15,10.13l-53.39.02c-4.66,1.15-9.83,3.96-9.87,9.1l-.26,34.83h56.51s0,10.78,0,10.78l-56.38-.04Z"/>
  <path d="M301.51,685.19c-3.41,1.16-6.51,1.61-9.91,1.13s-6.04.82-9.07.82h-35.86c-10.62,0-22.12-8.82-22.15-19.91l-.32-108.21h18.87s.25,103.55.25,103.55c0,3.29,3.24,7.49,6.12,7.51l50.58.32c1.64,5.39-.79,8.99,1.48,14.8Z"/>
  <path d="M521.75,663.53c9.48,17.11,28.93,14.21,47.98,13.69,2.89-.08,15.58-2.27,16.45-.84,1.36,2.21.52,5.5,1.92,8.65-12.85,4.42-34.13,4.83-47.48,3.63-12.59-1.13-24.29-7.01-30.29-18.11-11.39-21.06-11.16-69.84-2.18-90.63,5.47-12.67,16.65-21.01,30.72-22.28,12.65-1.14,34.1-1,46.42,2.63l-1.29,9.28c-3.7,1.13-7.06-.46-10.69-.52-10.47-.19-20.71-.52-31.06.12-9.78.61-17.64,6.55-21.53,15.26-7.55,16.9-8,62.82,1.03,79.12Z"/>
  <path d="M38.21,685.8c1.09-4.79,1.98-9.11,2.19-13.71l16.15-.14c9.76-.09,17.45-8.96,17.49-19.34l.42-93.6h18.8s-.19,100.03-.19,100.03c-1.61,18.26-16.19,30.48-33.95,29.3-7.23-.48-14.14,0-20.92-2.54Z"/>
  <path d="M356.21,687c-4.31.62-8.2.24-12.59.19l.02-116.54-42.32-.03c-1.36-3.55-1.04-7.35-.26-11.58l97.22-.08.03,11.69h-42.14s.03,116.36.03,116.36Z"/>
  <path d="M751.85,601.16c-.35,12.78-22.78,9.91-32.06,9.61-4.13-.14-10.26-3.32-10.54-7.9-.62-10.26-.61-20.07,0-30.38.26-4.34,6.4-7.91,10.35-7.96,9.72-.13,31.85-3.09,32.24,9.68.28,9.16.26,17.81,0,26.96ZM740.74,605.7c2.81-.79,4.79-2.36,5.9-4.61v-26.82c-1.28-2.28-3.52-4.47-6.31-4.48l-19.7-.08c-4.05.51-6.77,3.2-7.24,7.26v21.43c.47,4.05,3.19,6.78,7.24,7.24l20.11.06Z"/>
  <path d="M731.64,591.65c-1.47-.07-4.12.6-5.25,1.87-1.44,1.62.47,4.62-.74,6.55-1.09,1.75-3.85,1.17-6.01.9.35-6.83-.42-13.48.29-20.31.62-5.93,6.86-7.87,12.12-7.19,4.25.55,7.51,2.49,8.5,6.46.87,3.49-.05,7.45-3.69,9.65l3.72,11.08c-1.34.63-4.67,1.22-5.76-.2-1.79-2.34-1.51-5.22-3.19-8.81ZM734.64,583.53c1.43-2.61-1.45-4.85-2.93-4.82s-4.31-.37-5.35,1.38c-1.13,1.89-.15,4.23-.29,7.42,2.2-1.4,6.93-.99,8.57-3.99Z"/>
  <g>
    <path d="M758.94,513.17l-232.61-.58c-29.77-.07-55.65-16.21-75.15-36.58-9.46-9.88-15.97-20.02-22.49-31.75-9.74-17.53-15.16-36.35-19.22-56.23l-48.18-235.9c-3.49-17.08-9.32-32.64-18.85-46.83-10.86-16.16-28.5-25.57-47.73-26.62-2.23-1.41-4.61.49-6.84-1.51l226.56.1c15.67,1.45,29.22,6.06,40.7,16.46,19.62,18.12,26.25,45.94,31.55,71.72l49.2,239.57c5.27,25.66,19.18,48.07,34.99,67.95,4.33,3.86,7.09,7.86,11.65,11.01,21.09,19.25,47.08,27.74,76.44,29.19Z"/>
    <path d="M371.21,436.66c-19.48,41.69-53.19,71.55-100.77,76.49l-232.88-.18c65.96-1.52,107.37-49.44,123.57-110.53l49.64-243.5c5.6-27.48,15.33-57.9,40.58-72.66,7.4-4.32,16.99-8.18,25.78-7.89,22.73.75,40.93,15.13,51.43,34.46,7.59,13.99,11.87,28.45,15.1,44.29l44.98,220.44-5.46,26.28c-2.41,11.58-6.99,22.14-11.97,32.81Z"/>
  </g>
</svg>