<?xml version="1.0" encoding="UTF-8"?>
<svg id="Capa_1" data-name="Capa 1" xmlns="http://www.w3.org/2000/svg" viewBox="0 0 1600 400">
  <path d="M506.15,259.35c7.92,6.98,6.65,17.14,5.33,29.43l206.94.16,1.12,36.45,305.94-.07,10.43,36.7-637.77.13-1.84-36.61,50.91-.38.27-33.63c2.97-3.25,9.16-3.26,14.82-2.27l.33-10.64c-6.1-2.04-12.69-3.22-19.14-3.29-16.49-.19-27.64-11.7-29.34-27.82l-4.7-44.52c-1.25-11.87-.02-24.59,7.14-34.52,11.13-15.42,33.21-21.95,50.93-14.97,15.07,5.93,22.42,21.14,23.61,36.47,1.39,17.89-6.43,35.24-22.8,42.89-12.54,5.85-25.4,4.23-39.6,1l-2.44,19.72c13.93-1.91,44.31-10.44,47.35,11.97.87,6.41.37,11.81-.06,18.79,6.74-3.6-3.1-15.29,8.04-25.32,6.67,9.37,2.91,17.04,6.21,27.12,1.66-11.23-2.14-21.44,6.41-29.38,7.86,9.1,4.7,19.13,5.97,28.95,1.4-9.02-.04-17.23,5.96-26.38Z"/>
  <path d="M1086.42,233.92c-8.9,40.43-24.28,78.74-70.88,80.2-50.02,1.57-99.09,2.17-149.7.05l53.77-252.02c51.18-2.09,102.22-1.97,153.54.19,16.2.68,28.11,8.27,33.89,23.43,7.75,25.64.38,52.77-5.27,78.46l-15.35,69.7ZM1036.42,226.31c7.95-26.72,13.75-53.42,16.72-80.66,1.14-10.46-5.06-19.32-15.04-20.73-10.96-1.56-22.13-2.25-33.43-2.03l-48.55.93-27.4,129.16,71.07.38c17.93.1,31.32-9.2,36.63-27.06Z"/>
  <path d="M1166.29,314.34c-21.06,46.07-67.44,47.97-111.8,47.11-5.5-12.45-8.89-23.68-11.34-36.82,32.39-20.85,51.46-45.39,58.3-83.73l20.74-108.51,12.6-70.36,85.78-.19-15.67,76.29-22.86,124.85c-4.12,18.02-8.2,34.87-15.75,51.38Z"/>
  <path d="M703.84,251.6c-19.05-19.73-8.5-32.86-41.11-32l-7.09,31.65-27.1.12c9.01-42.46,17.11-85.01,31.51-126.15l82.58.59c14.2.1,24.11,10.5,23.4,24.33-.67,13.06-4.51,25.17-8.4,37.62-5.36,17.17-17.77,29.53-37.2,31.37l19.93,32.08-36.52.38ZM718.49,188c11.43-2.02,16.33-17.9,11.27-26.72-6.53-11.37-39.66-5.78-51.58-5.8l-7.37,33.32c15.52.65,30.96,2.15,47.68-.8Z"/>
  <path d="M876.53,205.68c-5.79,21.82-16.17,43.79-40.94,45.51-20.09,1.4-40.05,1.2-60.17-.75-11.17-1.08-19.5-11.17-17.91-22.56,3.55-25.48,9.04-50.35,17.59-74.24,6-16.76,18.98-27.42,36.59-28.28,19.16-.94,38.18-.95,57.21.65,12.49,1.05,21.02,11.86,19.15,24.14-2.89,18.96-6.63,37.04-11.52,55.52ZM849.71,206c5.36-10.02,8.01-21.05,7.66-32.07-.32-10.09-8.5-18.27-18.58-18.6-15.67-.51-35.18,2.28-39.52,11.82-5.12,11.26-19.34,53.05,2.79,54.34,18.74,1.09,37.94,2.64,47.65-15.5Z"/>
  <path d="M493.32,119.41c-5.82,14.77-19.69,23.02-31.85,25.48-16.44,3.32-30.41-.41-42.31-10.91-5.29-4.66-11.12-7.35-18.34-10.17-2.83-1.1-3.21-8.54-5.09-10.87-4.53-5.61-11.3-11.13-14.44-17.92-4.1-8.87-1.33-18.61,7.34-23.5,6.76-3.82,14.86-4.95,23.3-6.02,5.87-18.53,24.04-29.72,43.69-27.37,15.09,1.81,27.15,10.88,35.72,23.71l30.05-1.5c7.56-.38,16.5,1.79,21.62,7.54-4.24,15.14-33.69,20.62-47.34,25.26-.27,8.38.84,18.14-2.35,26.25ZM487.95,96.21l-13.75,2.37-7.88-10.59c-3.39-4.55-7.27-7.69-13.02-9.11-2.69,7.44-5.31,14.81-2.6,22.66,1.32,3.81,10.31,4.03,13.92,2.59,6.91-2.75,12.43-.43,18.48,3.03,1.56.9,5-1.91,4.97-3.59l-.12-7.36ZM404.84,82.11c-5.45.16-9.34,1.58-10.29,3.78-.85,1.97,1.47,5.92,4.08,8.59l6.22-12.37Z"/>
  <path d="M628.14,199.56c-6.13,13.16-18.4,20.59-32.41,20.46l-55.46-.51-6.91,31.86-27.28-.44,29.86-125.62,58.66-.78c10.6-.14,20.81.37,31.13,1.62,10.88,2.6,18.14,10.7,16.97,22.47-1.73,17.25-6.84,34.39-14.55,50.93ZM609.37,162.3c-.2-4.38-4.15-7.77-8.35-7.7l-45.37.73-7.3,33.62c15.02.36,47.89,4.65,57.31-8.36,3.65-5.04,4.04-11.14,3.71-18.29Z"/>
</svg>