<?xml version="1.0" encoding="UTF-8"?>
<svg id="Capa_1" data-name="Capa 1" xmlns="http://www.w3.org/2000/svg" viewBox="0 0 1600 400">
  <polygon points="1552.31 276.09 1342.34 276.46 1191.71 124.47 1401.58 124.22 1552.31 276.09"/>
  <polygon points="952.19 220.18 832.27 220.42 829.11 238.68 969.11 238.82 960.78 278.23 757.95 278.21 790.44 123.53 993.11 123.43 985.03 163.28 844.57 163.42 840.94 180.33 960.11 180.47 952.19 220.18"/>
  <path d="M492.32,277.85l-77.39,1-66.69-66.48-14.33,65.8-62.11.04,32.37-154.59c51.35-7,133.51-17.7,178.04,5.38,15.87,8.39,24.98,22.98,22.49,40.8-4.63,33.22-32.83,49.04-63.74,56.91l51.36,51.15ZM432.49,181.4c3.43-6.06,7.24-13.77,2.17-19.76-12.6-14.86-56.02-9.29-74.56-6.87l-7.57,36.16c24.44,4.39,61.41,11.03,79.96-9.52Z"/>
  <path d="M752.54,217.72c-35.97,68.64-161.47,92.77-221.59,41.8-22.68-19.23-28.3-49.57-14.25-75.8,9.22-17.21,23.06-30.89,40.16-41.47,39.51-24.44,87.26-32.81,132.85-23.07,19.88,4.25,37.54,12.73,51.74,26.45,19.96,19.27,23.92,47.61,11.1,72.08ZM661.56,240c19.25-10.84,28.35-30.84,29.35-51.76.72-14.97-7.64-27.85-22.2-32.25-20.63-6.24-43.75-4.58-62.56,6.74s-29.54,34.57-27.72,57.05c2.78,34.27,55.32,35.89,83.13,20.23Z"/>
  <path d="M278.81,178.85c-18.11,56.77-110.27,59.17-157.95,48.02l-11.01,51.29h-62.17s32.55-154.54,32.55-154.54c51.67-7.04,133.47-17.66,178.02,5.38,19.29,10.2,27.16,29.11,20.55,49.85ZM209.9,178.88c2.72-4.11,4.15-11.11,2.17-15.13-8.63-17.54-59.96-11.57-76.45-8.54l-6.96,36.18c25.06,4.48,65.96,10.55,81.23-12.51Z"/>
  <polygon points="1202.35 238.82 1194.37 278.24 991.86 278.23 1024.48 123.9 1086.57 123.91 1062.45 238.67 1202.35 238.82"/>
</svg>