<?xml version="1.0" encoding="UTF-8"?>
<svg id="Capa_1" data-name="Capa 1" xmlns="http://www.w3.org/2000/svg" viewBox="0 0 1600 400">
  <g>
    <path d="M355.46,91.7v-2.38h24.77c4.59,0,9.13-.09,13.61-.26,4.48-.17,9.02-.26,13.61-.26,4.27,0,8.78.45,13.53,1.36,4.76.91,9.1,2.47,13.04,4.68,3.94,2.21,7.19,5.19,9.76,8.93,2.57,3.74,3.85,8.45,3.85,14.12,0,4.54-.98,8.42-2.95,11.65-1.97,3.23-4.51,5.87-7.63,7.91-3.12,2.04-6.59,3.6-10.42,4.68-3.83,1.08-7.6,1.79-11.32,2.13v.85c5.36,1.02,10.14,2.04,14.35,3.06,4.21,1.02,7.84,2.55,10.91,4.59,3.06,2.04,5.49,4.88,7.3,8.51,1.8,3.63,2.92,8.51,3.36,14.63.55,7.15.98,12.87,1.31,17.18.33,4.31.79,7.66,1.39,10.04.6,2.38,1.42,3.97,2.46,4.76,1.04.79,2.54,1.19,4.51,1.19,2.19,0,3.99-.65,5.41-1.96,1.42-1.3,2.68-2.52,3.77-3.66l1.64,1.53c-1.09,1.14-2.16,2.19-3.2,3.15-1.04.96-2.24,1.79-3.61,2.47-1.37.68-3.03,1.22-5,1.62-1.97.4-4.43.6-7.38.6-6.02,0-10.72-.99-14.11-2.98-3.39-1.98-5.9-4.45-7.54-7.4-1.64-2.95-2.65-6.15-3.03-9.61-.38-3.46-.63-6.72-.74-9.78-.22-4.65-.52-9.16-.9-13.53-.38-4.37-1.29-8.25-2.71-11.65-1.42-3.4-3.55-6.12-6.4-8.17-2.84-2.04-6.83-3.06-11.97-3.06h-10.82v61.42h15.09v2.38h-53.96v-2.38h15.09v-116.37h-15.09ZM401.06,144.27c4.92,0,8.8-.68,11.65-2.04,2.84-1.36,4.97-3.2,6.4-5.53,1.42-2.32,2.32-4.96,2.71-7.91.38-2.95.57-5.95.57-9.02,0-4.99-.33-9.27-.98-12.85-.66-3.57-1.75-6.52-3.28-8.85-1.53-2.32-3.64-4.05-6.31-5.19-2.68-1.13-6.1-1.7-10.25-1.7-1.2,0-2.41.06-3.61.17-1.2.11-2.41.23-3.61.34v52.57h6.72Z"/>
    <path d="M452.56,217.21c-6.72,0-11.94-1.14-15.94-3.48-4-2.34-7.05-5.36-9.06-8.97-1.93-3.47-3.14-7.3-3.59-11.37-.39-3.57-.65-6.98-.76-10.14-.21-4.53-.51-9.01-.89-13.27-.34-3.86-1.13-7.3-2.36-10.24-1.11-2.66-2.74-4.73-4.96-6.33-2.18-1.57-5.49-2.36-9.83-2.36h-6.89v52.68h15.09v11.12h-61.84v-11.12h15.09v-107.63h-15.09v-11.12h28.71c4.52,0,9.05-.09,13.48-.25,4.51-.17,9.14-.26,13.75-.26s9.24.48,14.2,1.42c5.13.98,9.89,2.69,14.15,5.09,4.45,2.5,8.19,5.93,11.11,10.18,3.09,4.51,4.66,10.15,4.66,16.77,0,5.4-1.22,10.15-3.63,14.1-2.29,3.76-5.28,6.86-8.89,9.23-1.94,1.27-4.02,2.38-6.22,3.32,3.66,1.1,6.94,2.6,9.77,4.49,3.65,2.43,6.58,5.85,8.72,10.14,2.1,4.22,3.35,9.58,3.84,16.4l1.31,17.16c.31,4.03.73,7.13,1.26,9.23.47,1.89.93,2.37.93,2.37.03.02.57.39,2.25.39,1.25,0,2.2-.31,2.9-.96,1.36-1.24,2.56-2.41,3.59-3.48l2.55-2.65,7.71,7.2-3.25,3.37c-1.16,1.2-2.29,2.31-3.36,3.31-1.31,1.21-2.83,2.26-4.52,3.1-1.67.83-3.6,1.46-5.91,1.93-2.23.45-4.87.67-8.09.67ZM424.61,151.48c.97,1.4,1.8,2.92,2.49,4.57,1.6,3.83,2.63,8.23,3.05,13.07.38,4.39.69,9.01.92,13.72.11,2.98.34,6.15.71,9.48.32,2.86,1.13,5.42,2.48,7.85,1.26,2.27,3.29,4.23,6.03,5.83,2.65,1.55,6.48,2.38,11.4,2.47-.61-1.15-1.12-2.53-1.53-4.15-.67-2.66-1.17-6.21-1.52-10.84l-1.31-17.18c-.39-5.5-1.36-9.83-2.89-12.89-1.48-2.97-3.4-5.22-5.88-6.87-2.68-1.79-5.95-3.15-9.72-4.07-1.34-.33-2.75-.65-4.23-.98ZM374.49,206.09h15.91v-112.53c-3.37.09-6.77.14-10.17.14h-5.74v112.39ZM398.27,139.9h2.79c4.36,0,7.75-.57,10.09-1.68,2.16-1.03,3.69-2.33,4.7-3.97,1.09-1.78,1.77-3.77,2.07-6.08.35-2.73.53-5.56.53-8.39,0-4.67-.31-8.7-.91-11.97-.54-2.93-1.41-5.34-2.6-7.14-1.08-1.64-2.57-2.85-4.54-3.68-2.22-.94-5.2-1.41-8.85-1.41-1.07,0-2.18.05-3.28.15v44.19ZM420.62,94.54c.24.31.46.63.68.96,1.87,2.84,3.2,6.39,3.96,10.56.71,3.84,1.06,8.46,1.06,13.72,0,3.25-.21,6.49-.61,9.64-.44,3.41-1.48,6.52-3.07,9.27,1.01-.23,2.02-.49,3.04-.78,3.44-.97,6.6-2.38,9.38-4.21,2.63-1.72,4.71-3.88,6.37-6.59,1.53-2.52,2.28-5.53,2.28-9.21,0-4.73-1-8.48-3.05-11.47-2.19-3.2-5.02-5.78-8.41-7.68-3.48-1.96-7.4-3.37-11.63-4.21Z"/>
  </g>
  <g>
    <path d="M506.67,200.43l24.29,76.2h.28l24.71-76.2h35.1v2.14h-12.92v104.66h12.92v2.14h-46.05v-2.14h12.78v-104.66h-.28l-34.54,106.8h-2.25l-34.68-106.8h-.28v104.66h12.92v2.14h-28.08v-2.14h12.92v-104.66h-12.92v-2.14h36.08Z"/>
    <path d="M594.98,313.75h-53.93v-10.88h12.78v-76.04l-28.11,86.92h-7.78l-28.25-87.01v76.13h12.92v10.88h-35.96v-10.88h12.92v-95.92h-12.92v-10.88h42.8l21.67,68,22.05-68h41.81v10.88h-12.92v95.92h12.92v10.88ZM561.71,305.01h12.48v-100.2h-12.48v100.2ZM490.94,204.8l30.89,95.12,6.23-19.28-24.18-75.84h-12.94Z"/>
  </g>
  <path d="M493.07,370.18c-49.34,0-101.05-29.87-134.45-83.59-24.3-39.09-35.41-84.86-31.29-128.88,4.15-44.32,23.21-81.58,53.69-104.91,62.67-47.97,154.6-21.16,204.92,59.78,50.32,80.94,40.28,185.81-22.39,233.79-21.08,16.13-45.47,23.81-70.47,23.81ZM451.55,39.16c-23.21,0-45.8,7.1-65.31,22.04-28.22,21.61-45.9,56.26-49.76,97.57-3.89,41.61,6.66,84.95,29.72,122.04,31.62,50.85,80.45,79.21,126.83,79.21,23.21,0,45.8-7.1,65.31-22.04,58.5-44.78,67.49-143.29,20.05-219.6-31.62-50.85-80.45-79.21-126.83-79.21Z"/>
  <g>
    <g>
      <path d="M622.94,119.62v-1.55h10c1.85,0,3.69-.06,5.5-.17,1.81-.11,3.64-.17,5.5-.17,1.72,0,3.54.3,5.46.89,1.92.59,3.67,1.6,5.27,3.04,1.59,1.44,2.9,3.38,3.94,5.81,1.04,2.43,1.56,5.5,1.56,9.18,0,2.95-.4,5.48-1.19,7.58-.79,2.1-1.82,3.82-3.08,5.15s-2.66,2.34-4.21,3.04c-1.55.7-3.07,1.16-4.57,1.38v.55c2.16.66,4.09,1.33,5.79,1.99,1.7.66,3.17,1.66,4.4,2.99,1.24,1.33,2.22,3.17,2.95,5.53.73,2.36,1.18,5.53,1.36,9.52.22,4.65.4,8.37.53,11.18.13,2.8.32,4.98.56,6.53.24,1.55.57,2.58.99,3.1.42.52,1.03.77,1.82.77.88,0,1.61-.42,2.19-1.27.57-.85,1.08-1.64,1.52-2.38l.66,1c-.44.74-.87,1.42-1.29,2.05-.42.63-.91,1.16-1.46,1.6-.55.44-1.22.79-2.02,1.05-.79.26-1.79.39-2.98.39-2.43,0-4.33-.65-5.7-1.94-1.37-1.29-2.38-2.89-3.05-4.81-.66-1.92-1.07-4-1.23-6.25-.15-2.25-.25-4.37-.3-6.36-.09-3.02-.21-5.96-.36-8.8-.15-2.84-.52-5.37-1.09-7.58-.57-2.21-1.44-3.98-2.58-5.31-1.15-1.33-2.76-1.99-4.83-1.99h-4.37v39.94h6.09v1.55h-21.79v-1.55h6.09v-75.68h-6.09ZM641.35,153.8c1.99,0,3.55-.44,4.7-1.33,1.15-.89,2.01-2.08,2.58-3.6.57-1.51.94-3.23,1.09-5.14.15-1.92.23-3.87.23-5.86,0-3.25-.13-6.03-.4-8.35-.26-2.32-.71-4.24-1.32-5.75-.62-1.51-1.47-2.64-2.55-3.37-1.08-.74-2.46-1.11-4.14-1.11-.49,0-.97.04-1.46.11-.49.07-.97.15-1.46.22v34.19h2.71Z"/>
      <path d="M662.15,198.76c-2.5,0-4.48-.68-5.91-2.02-1.41-1.32-2.46-2.99-3.14-4.96-.67-1.94-1.09-4.08-1.25-6.35-.16-2.23-.26-4.38-.3-6.38-.09-3.05-.21-6.01-.37-8.78-.15-2.79-.51-5.32-1.08-7.5-.56-2.14-1.4-3.88-2.51-5.16-1.08-1.25-2.62-1.88-4.6-1.88h-4.04v39.22h6.09v2.28h-22.44v-2.28h6.09v-74.95h-6.09v-2.28h10.33c1.83,0,3.67-.06,5.48-.17,1.8-.11,3.65-.17,5.51-.17,1.74,0,3.61.3,5.55.9,1.96.6,3.77,1.65,5.38,3.11,1.62,1.47,2.98,3.46,4.03,5.94,1.05,2.47,1.59,5.61,1.59,9.34,0,2.98-.41,5.58-1.22,7.72-.81,2.14-1.87,3.91-3.16,5.27-1.28,1.35-2.73,2.4-4.31,3.12-1.44.65-2.88,1.11-4.28,1.35,2.04.63,3.88,1.27,5.49,1.9,1.74.68,3.26,1.71,4.52,3.07,1.27,1.36,2.29,3.27,3.03,5.68.73,2.38,1.2,5.61,1.38,9.62l.53,11.17c.13,2.78.32,4.96.56,6.48.23,1.47.54,2.46.91,2.92.36.44.87.65,1.58.65.78,0,1.41-.37,1.92-1.13.56-.83,1.07-1.62,1.51-2.36l.26-.43,1.08,1.62-.13.21c-.45.75-.88,1.44-1.3,2.06-.44.65-.95,1.22-1.53,1.68-.58.46-1.29.84-2.12,1.11-.82.27-1.86.4-3.07.4ZM638.31,154.99h4.7c2.16,0,3.86.71,5.07,2.1,1.18,1.36,2.08,3.2,2.66,5.46.58,2.23.95,4.81,1.11,7.66.15,2.78.27,5.74.37,8.81.04,1.99.14,4.12.3,6.35.15,2.2.56,4.27,1.21,6.15.64,1.85,1.63,3.42,2.95,4.67,1.3,1.23,3.15,1.85,5.48,1.85,1.15,0,2.12-.13,2.89-.37.76-.25,1.4-.58,1.92-1,.52-.42.99-.93,1.39-1.53.37-.55.76-1.16,1.15-1.82l-.25-.37c-.38.63-.81,1.28-1.27,1.97-.64.94-1.46,1.42-2.45,1.42-.89,0-1.58-.3-2.07-.89-.47-.57-.82-1.65-1.07-3.28-.24-1.55-.43-3.76-.57-6.57l-.53-11.18c-.18-3.94-.63-7.11-1.34-9.42-.71-2.29-1.67-4.11-2.86-5.39-1.2-1.28-2.64-2.26-4.28-2.91-1.68-.66-3.62-1.32-5.77-1.98l-.24-.07v-1.15l.28-.04c1.47-.22,2.98-.67,4.49-1.36,1.5-.68,2.88-1.68,4.1-2.97,1.22-1.29,2.23-2.98,3-5.02.77-2.05,1.17-4.55,1.17-7.44,0-3.62-.51-6.65-1.52-9.03-1.01-2.37-2.31-4.29-3.85-5.68-1.54-1.4-3.28-2.4-5.14-2.97-1.88-.58-3.69-.87-5.38-.87-1.85,0-3.69.06-5.48.17-1.82.11-3.68.17-5.52.17h-9.67v.82h6.09v76.41h-6.09v.82h21.13v-.82h-6.09v-40.67ZM641.35,154.17h-3.04v-34.87l1.74-.26c.5-.08,1.01-.11,1.5-.11,1.73,0,3.18.39,4.31,1.16,1.13.77,2.03,1.96,2.68,3.53.63,1.55,1.08,3.52,1.35,5.86.27,2.33.4,5.16.4,8.4,0,1.97-.08,3.95-.23,5.9-.16,1.95-.53,3.72-1.12,5.25-.6,1.57-1.5,2.83-2.7,3.75-1.2.92-2.84,1.39-4.89,1.39ZM638.96,153.44h2.39c1.91,0,3.43-.42,4.52-1.26,1.09-.84,1.92-2,2.47-3.44.56-1.47.92-3.16,1.07-5.04.15-1.92.23-3.89.23-5.83,0-3.21-.13-6.01-.4-8.31-.26-2.27-.69-4.17-1.3-5.65-.59-1.44-1.41-2.52-2.42-3.21-1.03-.7-2.36-1.05-3.97-1.05-.46,0-.94.04-1.41.11l-1.17.18v33.51Z"/>
    </g>
    <g>
      <path d="M692.81,118.07v1.55h-6.09v75.68h6.09v1.55h-21.79v-1.55h6.09v-75.68h-6.09v-1.55h21.79Z"/>
      <path d="M693.13,197.21h-22.45v-2.28h6.09v-74.95h-6.09v-2.28h22.45v2.28h-6.09v74.95h6.09v2.28ZM671.35,196.48h21.13v-.82h-6.09v-76.41h6.09v-.82h-21.13v.82h6.09v76.41h-6.09v.82Z"/>
    </g>
    <g>
      <path d="M711.55,119.62c-1.63,0-3.09.28-4.37.83-1.28.55-2.43,1.51-3.44,2.88-1.02,1.37-1.92,3.26-2.71,5.7-.79,2.43-1.52,5.53-2.19,9.29h-.86v-20.25h41.52v20.25h-.86c-.66-3.76-1.39-6.86-2.19-9.29-.79-2.43-1.7-4.33-2.71-5.7-1.02-1.36-2.16-2.32-3.44-2.88-1.28-.55-2.74-.83-4.37-.83h-2.38v75.68h6.09v1.55h-21.79v-1.55h6.09v-75.68h-2.38Z"/>
      <path d="M729.95,197.21h-22.44v-2.28h6.09v-74.95h-2.06c-1.59,0-3.02.27-4.25.8-1.22.53-2.33,1.46-3.31,2.77-.99,1.33-1.88,3.21-2.66,5.59-.79,2.41-1.52,5.52-2.17,9.24l-.05.29h-1.46v-20.98h42.18v20.98h-1.46l-.05-.29c-.65-3.72-1.39-6.83-2.17-9.24-.78-2.38-1.67-4.26-2.66-5.59-.98-1.31-2.09-2.24-3.31-2.77-1.24-.53-2.67-.8-4.25-.8h-2.06v74.95h6.09v2.28ZM708.17,196.48h21.13v-.82h-6.09v-76.41h2.71c1.67,0,3.18.29,4.49.85,1.32.57,2.53,1.58,3.58,2.98,1.04,1.39,1.97,3.35,2.77,5.81.78,2.38,1.5,5.43,2.15,9.05h.26v-19.52h-40.87v19.52h.26c.65-3.63,1.37-6.67,2.15-9.05.8-2.46,1.73-4.41,2.77-5.81,1.05-1.41,2.25-2.41,3.58-2.98,1.31-.57,2.82-.85,4.49-.85h2.71v76.41h-6.09v.82Z"/>
    </g>
    <g>
      <path d="M761.35,118.07l11.46,55.1h.13l11.66-55.1h16.56v1.55h-6.09v75.68h6.09v1.55h-21.72v-1.55h6.03v-75.68h-.13l-16.29,77.23h-1.06l-16.36-77.23h-.13v75.68h6.09v1.55h-13.25v-1.55h6.09v-75.68h-6.09v-1.55h17.02Z"/>
      <path d="M801.48,197.21h-22.38v-2.28h6.03v-72.8l-15.83,75.07h-1.58l-.06-.28-15.84-74.8v72.8h6.09v2.28h-13.9v-2.28h6.09v-74.95h-6.09v-2.28h17.61l.06.28,11.21,53.89,11.46-54.17h17.15v2.28h-6.09v74.95h6.09v2.28ZM779.75,196.48h21.07v-.82h-6.09v-76.41h6.09v-.82h-15.97l-11.66,55.1h-.65l-.06-.28-11.4-54.82h-16.43v.82h6.09v76.41h-6.09v.82h12.59v-.82h-6.09v-76.41h.72l.06.28,16.3,76.95h.54l16.29-77.23h.72v76.41h-6.03v.82Z"/>
    </g>
    <g>
      <path d="M808.47,140.64c1.52-5.09,3.48-9.44,5.86-13.06,2.38-3.61,5.06-6.4,8.01-8.35,2.96-1.95,5.85-2.93,8.68-2.93,3.05,0,6.06.96,9.04,2.88,2.98,1.92,5.63,4.65,7.95,8.19,2.32,3.54,4.19,7.84,5.63,12.89,1.43,5.05,2.15,10.75,2.15,17.1,0,5.53-.67,10.79-2.02,15.77-1.35,4.98-3.16,9.35-5.43,13.11-2.27,3.76-4.9,6.73-7.88,8.91-2.98,2.18-6.13,3.26-9.44,3.26s-6.4-1.05-9.4-3.15c-3-2.1-5.64-4.98-7.91-8.63-2.27-3.65-4.1-7.95-5.46-12.89-1.37-4.94-2.05-10.29-2.05-16.04,0-6.27.76-11.95,2.28-17.04ZM817.77,176.76c.53,5.05,1.36,9.07,2.48,12.06,1.13,2.99,2.58,5.07,4.37,6.25,1.79,1.18,3.92,1.77,6.39,1.77,3.27,0,5.83-1.01,7.68-3.04,1.85-2.03,3.25-4.83,4.17-8.41.93-3.58,1.51-7.82,1.76-12.72.24-4.9.36-10.23.36-15.99,0-5.16-.1-10.09-.3-14.77-.2-4.68-.76-8.81-1.69-12.39-.93-3.58-2.33-6.42-4.21-8.52-1.88-2.1-4.47-3.15-7.78-3.15-3.09,0-5.56.98-7.42,2.93-1.85,1.96-3.27,4.7-4.24,8.24-.97,3.54-1.61,7.75-1.92,12.61-.31,4.87-.46,10.22-.46,16.04,0,7.67.27,14.03.79,19.09Z"/>
      <path d="M831.01,198.76c-3.32,0-6.54-1.08-9.58-3.21-3.02-2.12-5.72-5.06-8.01-8.73-2.28-3.67-4.14-8.04-5.51-12.99-1.37-4.95-2.07-10.39-2.07-16.15,0-6.28.77-12.05,2.3-17.15,1.53-5.1,3.51-9.53,5.91-13.16,2.4-3.64,5.13-6.48,8.11-8.45,3-1.98,5.97-2.98,8.84-2.98,3.09,0,6.19.98,9.2,2.93,3.01,1.94,5.71,4.73,8.05,8.29,2.32,3.55,4.23,7.92,5.68,12.99,1.44,5.07,2.17,10.86,2.17,17.2,0,5.54-.68,10.88-2.03,15.87-1.35,4.99-3.19,9.44-5.47,13.21-2.29,3.79-4.97,6.82-7.97,9.01-3.02,2.21-6.26,3.32-9.62,3.32ZM831.01,116.66c-2.75,0-5.61.97-8.51,2.88-2.91,1.92-5.57,4.7-7.92,8.26-2.35,3.57-4.31,7.93-5.81,12.96h0c-1.51,5.03-2.27,10.72-2.27,16.92,0,5.69.69,11.05,2.04,15.94,1.35,4.88,3.17,9.18,5.42,12.79,2.24,3.59,4.87,6.46,7.82,8.53,2.93,2.06,6.04,3.1,9.23,3.1s6.34-1.08,9.26-3.2c2.93-2.14,5.55-5.1,7.79-8.81,2.24-3.71,4.06-8.09,5.39-13.01,1.33-4.92,2.01-10.19,2.01-15.66,0-6.27-.72-11.99-2.14-16.99-1.42-5-3.3-9.3-5.58-12.79-2.28-3.48-4.92-6.2-7.85-8.09-2.91-1.88-5.9-2.83-8.87-2.83ZM831.01,197.21c-2.52,0-4.73-.61-6.56-1.82-1.84-1.21-3.36-3.38-4.51-6.42-1.13-3.01-1.98-7.1-2.51-12.16h0c-.53-5.05-.8-11.49-.8-19.13,0-5.82.16-11.22.46-16.07.31-4.86.96-9.13,1.93-12.69.98-3.58,2.44-6.41,4.33-8.4,1.91-2.01,4.48-3.03,7.64-3.03,3.38,0,6.08,1.1,8.02,3.26,1.91,2.14,3.35,5.06,4.29,8.67.93,3.59,1.5,7.79,1.7,12.48.2,4.66.3,9.64.3,14.79,0,5.72-.12,11.1-.36,16.01-.24,4.92-.84,9.22-1.77,12.81-.94,3.62-2.37,6.5-4.26,8.57-1.91,2.09-4.57,3.15-7.91,3.15ZM818.09,176.72c.52,4.99,1.35,9.02,2.46,11.96,1.09,2.9,2.52,4.95,4.24,6.08,1.73,1.14,3.82,1.72,6.22,1.72,3.16,0,5.67-.99,7.45-2.94,1.81-1.97,3.18-4.75,4.09-8.25.92-3.53,1.5-7.78,1.74-12.64.24-4.89.36-10.26.36-15.97,0-5.14-.1-10.11-.3-14.75-.2-4.63-.76-8.77-1.68-12.31-.91-3.5-2.29-6.31-4.12-8.36-1.81-2.02-4.34-3.05-7.55-3.05-2.99,0-5.41.95-7.19,2.83-1.81,1.9-3.2,4.62-4.15,8.09-.96,3.51-1.6,7.73-1.91,12.53-.31,4.83-.46,10.22-.46,16.02,0,7.61.27,14.02.79,19.04h0Z"/>
    </g>
    <g>
      <path d="M896.24,118.07l11.46,55.1h.13l11.66-55.1h16.56v1.55h-6.09v75.68h6.09v1.55h-21.72v-1.55h6.03v-75.68h-.13l-16.29,77.23h-1.06l-16.36-77.23h-.13v75.68h6.09v1.55h-13.25v-1.55h6.09v-75.68h-6.09v-1.55h17.02Z"/>
      <path d="M936.37,197.21h-22.38v-2.28h6.03v-72.8l-15.83,75.07h-1.58l-.06-.28-15.84-74.79v72.79h6.09v2.28h-13.9v-2.28h6.09v-74.95h-6.09v-2.28h17.61l.06.28,11.21,53.89,11.46-54.17h17.15v2.28h-6.09v74.95h6.09v2.28ZM914.65,196.48h21.07v-.82h-6.09v-76.41h6.09v-.82h-15.97l-11.66,55.1h-.65l-.06-.28-11.4-54.82h-16.43v.82h6.09v76.41h-6.09v.82h12.59v-.82h-6.09v-76.41h.72l.06.28,16.3,76.95h.54l16.29-77.23h.72v76.41h-6.03v.82Z"/>
    </g>
    <g>
      <path d="M962.27,118.07v1.55h-6.09v49.68c0,3.47.1,6.84.3,10.12.2,3.28.66,6.22,1.39,8.8.73,2.58,1.81,4.67,3.25,6.25,1.43,1.59,3.37,2.38,5.79,2.38s4.38-.46,5.99-1.38c1.61-.92,2.95-2.14,4.01-3.65,1.06-1.51,1.88-3.21,2.45-5.09.57-1.88.99-3.76,1.26-5.64s.42-3.65.46-5.31c.04-1.66.07-3.04.07-4.15v-52h-6.03v-1.55h13.25v1.55h-6.16v51.89c0,1.18-.02,2.67-.07,4.48-.05,1.81-.22,3.71-.53,5.7-.31,1.99-.77,3.98-1.39,5.97-.62,1.99-1.52,3.78-2.71,5.37-1.19,1.59-2.69,2.88-4.5,3.87-1.81,1-4.04,1.49-6.69,1.49-4.28,0-7.73-.79-10.33-2.38-2.61-1.58-4.6-3.65-5.99-6.2-1.39-2.54-2.31-5.44-2.75-8.69-.44-3.25-.66-6.53-.66-9.85v-51.67h-6.16v-1.55h21.85Z"/>
      <path d="M966.31,198.76c-4.32,0-7.85-.82-10.49-2.42-2.64-1.61-4.7-3.74-6.12-6.33-1.41-2.58-2.35-5.54-2.79-8.82-.44-3.25-.67-6.59-.67-9.9v-51.31h-6.16v-2.28h22.51v2.28h-6.09v49.32c0,3.46.1,6.86.3,10.1.2,3.24.66,6.17,1.38,8.71.71,2.51,1.77,4.57,3.16,6.1,1.36,1.51,3.23,2.27,5.56,2.27s4.29-.45,5.84-1.34c1.56-.89,2.87-2.09,3.9-3.55,1.03-1.47,1.84-3.14,2.4-4.98.57-1.86.98-3.74,1.24-5.58.26-1.85.42-3.62.46-5.27.04-1.66.07-3.04.07-4.14v-51.64h-6.03v-2.28h13.9v2.28h-6.16v51.53c0,1.18-.02,2.68-.07,4.49-.04,1.82-.23,3.75-.54,5.75-.31,2-.78,4.03-1.4,6.03-.63,2.03-1.56,3.87-2.77,5.48-1.21,1.62-2.76,2.95-4.61,3.97-1.85,1.02-4.15,1.53-6.83,1.53ZM940.74,119.25h6.16v52.04c0,3.28.22,6.57.66,9.79.43,3.18,1.34,6.06,2.71,8.55,1.35,2.48,3.33,4.52,5.87,6.07,2.54,1.55,5.97,2.33,10.17,2.33,2.59,0,4.79-.49,6.54-1.46,1.76-.97,3.24-2.24,4.4-3.78,1.16-1.54,2.05-3.31,2.66-5.25.61-1.97,1.07-3.96,1.38-5.92.31-1.97.48-3.87.53-5.65.04-1.8.07-3.29.07-4.47v-52.26h6.16v-.82h-12.59v.82h6.03v52.37c0,1.11-.02,2.5-.07,4.16-.04,1.68-.2,3.48-.47,5.36-.26,1.88-.69,3.8-1.27,5.7-.59,1.92-1.43,3.66-2.5,5.2-1.08,1.55-2.47,2.81-4.11,3.75-1.65.94-3.72,1.42-6.14,1.42s-4.54-.84-6.03-2.49c-1.47-1.62-2.59-3.77-3.33-6.4-.73-2.59-1.21-5.58-1.4-8.88-.2-3.26-.3-6.67-.3-10.15v-50.04h6.09v-.82h-21.2v.82Z"/>
    </g>
    <g>
      <path d="M994.99,172.28c.09.89.24,2.05.46,3.48.22,1.44.54,2.99.96,4.65.42,1.66.95,3.36,1.59,5.09.64,1.73,1.42,3.34,2.35,4.81,1.01,1.7,2,2.99,2.95,3.87.95.89,1.85,1.53,2.71,1.94.86.41,1.68.63,2.45.66.77.04,1.49.06,2.15.06,2.34,0,4.26-.61,5.76-1.83,1.5-1.22,2.68-2.71,3.54-4.48.86-1.77,1.47-3.63,1.82-5.59.35-1.95.53-3.67.53-5.14,0-2.73-.39-4.98-1.16-6.75-.77-1.77-1.8-3.25-3.08-4.43-1.28-1.18-2.74-2.18-4.37-2.99-1.63-.81-3.31-1.64-5.03-2.49-1.72-.85-3.4-1.84-5.03-2.99-1.63-1.14-3.09-2.62-4.37-4.43-1.28-1.81-2.31-4.04-3.08-6.69-.77-2.66-1.16-5.97-1.16-9.96,0-2.95.4-5.79,1.19-8.52.79-2.73,1.9-5.15,3.31-7.25,1.41-2.1,3.1-3.8,5.07-5.09,1.96-1.29,4.09-1.94,6.39-1.94,1.46,0,2.74.22,3.84.66s2.07.9,2.91,1.38c.84.48,1.58.94,2.22,1.38s1.22.66,1.76.66c.62,0,1.03-.17,1.22-.5s.41-.94.63-1.83h1.06v21.02h-.86c-.53-2.58-1.09-5.13-1.69-7.63-.6-2.51-1.36-4.77-2.28-6.81-.93-2.03-2.1-3.67-3.51-4.92-1.41-1.25-3.2-1.88-5.36-1.88-1.77,0-3.32.41-4.67,1.22-1.35.81-2.48,1.88-3.41,3.21s-1.63,2.8-2.12,4.43c-.49,1.62-.73,3.28-.73,4.98,0,2.58.41,4.72,1.22,6.42.82,1.7,1.89,3.15,3.21,4.37,1.33,1.22,2.84,2.27,4.54,3.15s3.44,1.81,5.23,2.77c1.79.96,3.53,2.01,5.23,3.15,1.7,1.15,3.21,2.6,4.54,4.37,1.32,1.77,2.39,3.91,3.21,6.42.82,2.51,1.22,5.61,1.22,9.29s-.44,7.04-1.32,10.29c-.88,3.25-2.13,6.09-3.74,8.52-1.61,2.43-3.53,4.37-5.76,5.81-2.23,1.44-4.71,2.16-7.45,2.16-1.37,0-2.73-.22-4.07-.66-1.35-.44-2.61-.9-3.77-1.38-1.17-.48-2.21-.94-3.11-1.38s-1.58-.66-2.02-.66c-.62,0-1.06.17-1.32.5-.27.33-.51,1.02-.73,2.05h-1.06v-24.56h.99Z"/>
      <path d="M1010.08,198.76c-1.39,0-2.8-.23-4.17-.68-1.36-.45-2.64-.92-3.79-1.39-1.16-.47-2.21-.94-3.13-1.39-1.07-.52-1.62-.63-1.89-.63-.52,0-.88.13-1.08.37-.16.2-.4.68-.66,1.89l-.06.28h-1.65v-25.29h1.62l.03.32c.09.89.24,2.05.46,3.46.22,1.42.54,2.97.95,4.61.42,1.65.95,3.35,1.58,5.05.63,1.7,1.41,3.29,2.32,4.74,1,1.67,1.97,2.95,2.89,3.8.92.86,1.81,1.49,2.63,1.88.82.39,1.61.6,2.34.64.77.04,1.48.06,2.14.06,2.26,0,4.13-.59,5.57-1.76,1.46-1.18,2.62-2.65,3.45-4.36.84-1.73,1.44-3.57,1.79-5.49.35-1.92.52-3.63.52-5.07,0-2.66-.38-4.88-1.12-6.59-.75-1.71-1.76-3.16-2.99-4.3-1.25-1.15-2.69-2.14-4.29-2.94-1.63-.81-3.31-1.64-5.03-2.49-1.73-.85-3.44-1.86-5.08-3.01-1.66-1.16-3.16-2.68-4.45-4.51-1.3-1.83-2.35-4.12-3.13-6.81-.78-2.68-1.18-6.06-1.18-10.07,0-2.97.41-5.88,1.21-8.63.8-2.76,1.93-5.23,3.36-7.35,1.43-2.13,3.17-3.87,5.16-5.19,2.01-1.32,4.22-1.99,6.56-1.99,1.49,0,2.82.23,3.95.68,1.1.44,2.1.91,2.95,1.4.85.49,1.61.96,2.24,1.4.58.4,1.12.61,1.58.61.34,0,.79-.06.95-.33.18-.3.38-.88.59-1.72l.07-.27h1.64v21.75h-1.45l-.06-.28c-.53-2.58-1.1-5.14-1.69-7.62-.58-2.46-1.34-4.73-2.26-6.73-.9-1.97-2.05-3.59-3.42-4.8-1.35-1.2-3.08-1.8-5.16-1.8-1.7,0-3.22.39-4.51,1.17-1.3.78-2.41,1.83-3.31,3.11-.9,1.29-1.59,2.74-2.07,4.32-.47,1.58-.71,3.21-.71,4.86,0,2.51.4,4.61,1.19,6.25.79,1.64,1.84,3.08,3.13,4.26,1.3,1.19,2.8,2.24,4.47,3.1,1.7.88,3.44,1.81,5.23,2.77,1.78.96,3.55,2.02,5.26,3.17,1.73,1.16,3.28,2.66,4.62,4.45,1.34,1.79,2.44,3.99,3.27,6.53.83,2.54,1.24,5.71,1.24,9.42s-.45,7.13-1.34,10.39c-.89,3.27-2.16,6.17-3.79,8.63-1.63,2.46-3.6,4.45-5.86,5.91-2.27,1.46-4.83,2.21-7.62,2.21ZM997.1,193.94c.49,0,1.19.23,2.15.69.91.44,1.95.91,3.09,1.37,1.14.47,2.41.93,3.75,1.38,1.31.43,2.65.65,3.98.65,2.67,0,5.12-.71,7.28-2.11,2.18-1.41,4.09-3.33,5.66-5.71,1.58-2.39,2.83-5.22,3.69-8.41.87-3.2,1.31-6.63,1.31-10.18s-.41-6.71-1.21-9.17c-.8-2.46-1.86-4.58-3.16-6.31-1.29-1.73-2.79-3.17-4.45-4.29-1.69-1.14-3.44-2.19-5.2-3.14-1.79-.96-3.53-1.88-5.23-2.76-1.72-.89-3.27-1.97-4.61-3.2-1.35-1.24-2.46-2.75-3.29-4.48-.84-1.74-1.26-3.96-1.26-6.59,0-1.73.25-3.44.75-5.09.49-1.65,1.22-3.18,2.17-4.53.95-1.36,2.13-2.47,3.51-3.31,1.39-.84,3.01-1.26,4.83-1.26,2.23,0,4.1.66,5.57,1.96,1.44,1.28,2.65,2.98,3.6,5.04.94,2.05,1.71,4.37,2.31,6.88.57,2.39,1.12,4.87,1.63,7.36h.27v-20.29h-.48c-.21.79-.41,1.33-.6,1.66-.26.44-.76.66-1.5.66-.59,0-1.24-.24-1.93-.72-.62-.43-1.36-.89-2.2-1.37-.83-.47-1.8-.93-2.87-1.36-1.06-.43-2.32-.64-3.73-.64-2.22,0-4.32.63-6.22,1.88-1.92,1.26-3.59,2.94-4.97,4.99-1.38,2.06-2.48,4.46-3.26,7.14-.78,2.68-1.18,5.51-1.18,8.41,0,3.93.38,7.24,1.14,9.85.75,2.6,1.77,4.82,3.02,6.58,1.25,1.77,2.69,3.23,4.29,4.34,1.61,1.13,3.29,2.13,4.99,2.96,1.72.85,3.4,1.68,5.03,2.49,1.65.82,3.15,1.85,4.45,3.04,1.31,1.21,2.37,2.74,3.17,4.55.79,1.81,1.19,4.14,1.19,6.91,0,1.49-.18,3.25-.54,5.22-.36,1.99-.98,3.9-1.85,5.69-.88,1.81-2.1,3.36-3.64,4.6-1.55,1.26-3.56,1.9-5.95,1.9-.67,0-1.39-.02-2.17-.06-.81-.04-1.67-.27-2.57-.69-.88-.41-1.82-1.08-2.8-1.99-.97-.9-1.98-2.23-3.01-3.95-.93-1.49-1.74-3.13-2.38-4.88-.64-1.73-1.18-3.45-1.6-5.13-.42-1.66-.74-3.24-.97-4.68-.19-1.26-.34-2.33-.43-3.18h-.37v23.83h.47c.22-.94.46-1.58.74-1.92.33-.41.86-.62,1.57-.62Z"/>
    </g>
    <g>
      <path d="M1057.1,118.07v1.55h-6.09v75.68h6.09v1.55h-21.79v-1.55h6.09v-75.68h-6.09v-1.55h21.79Z"/>
      <path d="M1057.43,197.21h-22.45v-2.28h6.09v-74.95h-6.09v-2.28h22.45v2.28h-6.09v74.95h6.09v2.28ZM1035.64,196.48h21.13v-.82h-6.09v-76.41h6.09v-.82h-21.13v.82h6.09v76.41h-6.09v.82Z"/>
    </g>
    <g>
      <path d="M1102.33,140.64c-.49-2.43-1.07-5-1.76-7.69-.68-2.69-1.57-5.16-2.65-7.41-1.08-2.25-2.43-4.09-4.04-5.53-1.61-1.44-3.61-2.16-5.99-2.16-3.22,0-5.76,1-7.62,2.99-1.85,1.99-3.26,4.76-4.21,8.3-.95,3.54-1.56,7.76-1.82,12.67-.26,4.91-.4,10.27-.4,16.1,0,7.67.26,14.02.79,19.03.53,5.02,1.36,9,2.48,11.95,1.13,2.95,2.58,5.02,4.37,6.2,1.79,1.18,3.92,1.77,6.39,1.77,1.99,0,3.79-.66,5.4-1.99,1.61-1.33,3.04-3.08,4.27-5.26,1.24-2.17,2.27-4.66,3.11-7.47.84-2.8,1.46-5.72,1.85-8.74h1.06v23.46h-1.06c-.22-.89-.49-1.49-.79-1.83s-.77-.5-1.39-.5c-.53,0-1.21.2-2.05.61-.84.41-1.8.85-2.88,1.33-1.08.48-2.26.92-3.54,1.33-1.28.4-2.63.61-4.04.61-3.22,0-6.34-1.05-9.34-3.15-3-2.1-5.64-4.98-7.91-8.63-2.27-3.65-4.09-7.95-5.46-12.89-1.37-4.94-2.05-10.29-2.05-16.04,0-6.27.76-11.95,2.28-17.04,1.52-5.09,3.48-9.44,5.86-13.06,2.38-3.61,5.04-6.4,7.98-8.35,2.94-1.95,5.82-2.93,8.64-2.93,1.41,0,2.73.22,3.94.66,1.21.44,2.34.9,3.38,1.38,1.04.48,1.98.94,2.81,1.38s1.55.66,2.12.66c.62,0,1.08-.13,1.39-.39.31-.26.53-.9.66-1.94h1.06v22.57h-.86Z"/>
      <path d="M1087.83,198.76c-3.27,0-6.47-1.08-9.51-3.21-3.02-2.12-5.72-5.06-8.01-8.73-2.28-3.66-4.13-8.03-5.51-12.99-1.37-4.95-2.07-10.38-2.07-16.15,0-6.28.77-12.05,2.3-17.15,1.53-5.1,3.51-9.53,5.91-13.16,2.4-3.64,5.12-6.48,8.08-8.45,2.98-1.98,5.94-2.98,8.81-2.98,1.44,0,2.8.23,4.04.68,1.2.44,2.35.91,3.4,1.39,1.07.5,2,.95,2.83,1.39,1.61.85,2.69.72,3.17.31.13-.11.38-.48.53-1.7l.04-.31h1.67v23.3h-1.45l-.06-.29c-.48-2.41-1.07-5-1.75-7.67-.68-2.65-1.56-5.12-2.62-7.34-1.06-2.2-2.39-4.02-3.96-5.42-1.55-1.38-3.49-2.08-5.79-2.08-3.12,0-5.61.97-7.39,2.89-1.81,1.94-3.19,4.68-4.12,8.14-.94,3.49-1.54,7.73-1.81,12.59-.26,4.88-.4,10.29-.4,16.08,0,7.63.27,14.02.79,18.99.52,4.96,1.35,8.95,2.46,11.85,1.09,2.87,2.52,4.89,4.24,6.03,1.73,1.14,3.82,1.72,6.22,1.72,1.91,0,3.66-.65,5.2-1.92,1.57-1.3,2.98-3.03,4.19-5.16,1.22-2.14,2.25-4.63,3.08-7.39.83-2.78,1.45-5.7,1.84-8.68l.04-.31h1.67v24.18h-1.64l-.07-.27c-.21-.82-.44-1.38-.71-1.66-.47-.5-1.41-.62-3.09.18-.84.41-1.8.85-2.89,1.33-1.09.48-2.29.93-3.57,1.34-1.31.41-2.7.62-4.13.62ZM1087.83,116.66c-2.75,0-5.6.97-8.47,2.88-2.88,1.92-5.54,4.7-7.88,8.26-2.35,3.57-4.31,7.93-5.82,12.96-1.51,5.03-2.27,10.72-2.27,16.92,0,5.69.69,11.06,2.04,15.94,1.35,4.88,3.18,9.19,5.42,12.79,2.24,3.59,4.87,6.46,7.82,8.53,2.93,2.06,6.02,3.1,9.16,3.1,1.37,0,2.7-.2,3.95-.59,1.26-.4,2.44-.84,3.51-1.32,1.08-.48,2.04-.92,2.87-1.32.89-.43,1.61-.64,2.19-.64.7,0,1.25.2,1.62.6.32.34.59.91.81,1.72h.48v-22.73h-.45c-.4,2.92-1.01,5.77-1.83,8.49-.84,2.82-1.9,5.36-3.15,7.55-1.25,2.2-2.72,4-4.35,5.35-1.66,1.37-3.54,2.06-5.59,2.06-2.52,0-4.73-.61-6.56-1.82-1.84-1.21-3.36-3.36-4.51-6.37-1.13-2.97-1.98-7.02-2.51-12.05-.53-5-.8-11.42-.8-19.07,0-5.81.13-11.23.4-16.12.27-4.91.88-9.2,1.84-12.75.96-3.58,2.4-6.43,4.29-8.46,1.91-2.05,4.55-3.09,7.85-3.09,2.45,0,4.53.75,6.2,2.24,1.63,1.46,3.02,3.36,4.12,5.64,1.09,2.27,1.99,4.78,2.67,7.49.66,2.58,1.23,5.08,1.7,7.43h.27v-21.84h-.45c-.15.96-.4,1.57-.74,1.86-.7.59-1.98.75-3.85-.24-.81-.43-1.75-.89-2.8-1.38-1.04-.48-2.17-.94-3.35-1.37-1.18-.43-2.47-.65-3.84-.65Z"/>
    </g>
    <g>
      <path d="M1111.41,195.3l19.73-80.33h1.79l20.86,80.33h5.7v1.55h-22.25v-1.55h6.16l-7.68-29.65h-15.89l-7.35,29.65h5.89v1.55h-12.52v-1.55h5.56ZM1120.15,164.09h15.23l-7.82-30.21-7.42,30.21Z"/>
      <path d="M1159.81,197.21h-22.91v-2.28h6.05l-7.49-28.92h-15.4l-7.17,28.92h5.79v2.28h-13.17v-2.28h5.64l19.73-80.33h2.29l.07.26,20.79,80.07h5.78v2.28ZM1137.56,196.48h21.6v-.82h-5.61l-.07-.26-20.79-80.07h-1.29l-19.73,80.33h-5.49v.82h11.86v-.82h-6l7.53-30.38h16.39l.07.26,7.8,30.12h-6.27v.82ZM1135.82,164.46h-16.1l7.84-31.92,8.26,31.92ZM1120.58,163.73h14.37l-7.37-28.49-6.99,28.49Z"/>
    </g>
    <g>
      <path d="M1182.59,118.07v1.55h-6.09v75.68h10.93c1.46,0,2.92-.4,4.4-1.22,1.48-.81,2.87-2.16,4.17-4.04,1.3-1.88,2.47-4.32,3.51-7.3,1.04-2.99,1.84-6.62,2.42-10.9h.86v25.01h-41.99v-1.55h6.09v-75.68h-6.09v-1.55h21.79Z"/>
      <path d="M1203.12,197.21h-42.64v-2.28h6.09v-74.95h-6.09v-2.28h22.44v2.28h-6.09v74.95h10.6c1.4,0,2.83-.4,4.26-1.18,1.43-.78,2.79-2.11,4.06-3.93,1.28-1.85,2.44-4.28,3.46-7.21,1.02-2.95,1.83-6.59,2.4-10.82l.04-.31h1.47v25.73ZM1161.13,196.48h41.33v-24.28h-.25c-.57,4.15-1.38,7.74-2.39,10.67-1.04,3-2.24,5.49-3.56,7.39-1.33,1.92-2.77,3.31-4.29,4.14-1.52.83-3.05,1.26-4.55,1.26h-11.25v-76.41h6.09v-.82h-21.13v.82h6.09v76.41h-6.09v.82Z"/>
    </g>
  </g>
  <g>
    <g>
      <path d="M663.84,231.84c-.47-2.07-1.03-4.25-1.69-6.55-.66-2.29-1.51-4.39-2.56-6.31-1.04-1.91-2.34-3.49-3.9-4.71-1.55-1.22-3.48-1.84-5.78-1.84-3.11,0-5.56.85-7.35,2.54-1.79,1.69-3.14,4.05-4.06,7.06-.92,3.01-1.5,6.61-1.76,10.79-.26,4.18-.38,8.75-.38,13.7,0,6.53.26,11.93.77,16.2.51,4.27,1.31,7.66,2.4,10.17,1.09,2.51,2.49,4.27,4.22,5.28,1.73,1.01,3.78,1.51,6.17,1.51,1.92,0,3.65-.57,5.21-1.7,1.55-1.13,2.93-2.62,4.12-4.47,1.19-1.85,2.19-3.97,3-6.36.81-2.39,1.41-4.87,1.79-7.44h1.02v19.97h-1.02c-.21-.75-.47-1.27-.77-1.55-.3-.28-.75-.42-1.34-.42-.51,0-1.17.17-1.98.52-.81.35-1.74.72-2.78,1.13-1.05.41-2.18.78-3.42,1.13-1.24.34-2.53.52-3.9.52-3.11,0-6.11-.9-9.01-2.68-2.9-1.79-5.44-4.24-7.64-7.35-2.19-3.11-3.95-6.77-5.27-10.97-1.32-4.21-1.98-8.76-1.98-13.66,0-5.34.73-10.17,2.2-14.51,1.47-4.33,3.35-8.04,5.65-11.11,2.3-3.08,4.87-5.45,7.7-7.11,2.83-1.66,5.61-2.5,8.34-2.5,1.36,0,2.63.19,3.8.57,1.17.38,2.26.77,3.26,1.18,1,.41,1.91.8,2.72,1.18.81.38,1.49.57,2.04.57.6,0,1.04-.11,1.34-.33.3-.22.51-.77.64-1.65h1.02v19.22h-.83Z"/>
      <path d="M649.85,281.37c-3.15,0-6.24-.92-9.17-2.73-2.92-1.8-5.52-4.31-7.73-7.44-2.21-3.13-4-6.85-5.32-11.08-1.33-4.22-2-8.86-2-13.78,0-5.36.75-10.28,2.22-14.63,1.48-4.35,3.4-8.12,5.71-11.22,2.32-3.1,4.94-5.52,7.8-7.2,2.87-1.68,5.72-2.54,8.49-2.54,1.39,0,2.7.19,3.89.58,1.16.37,2.26.77,3.28,1.19,1.05.43,1.94.82,2.73,1.18,1.56.73,2.61.62,3.08.27.12-.09.35-.39.5-1.4l.04-.31h1.63v19.94h-1.41l-.06-.28c-.47-2.08-1.04-4.27-1.69-6.52-.65-2.25-1.5-4.35-2.52-6.23-1.02-1.86-2.3-3.41-3.81-4.6-1.49-1.17-3.37-1.77-5.59-1.77-3.02,0-5.42.83-7.14,2.46-1.73,1.64-3.07,3.97-3.96,6.9-.9,2.97-1.49,6.56-1.74,10.69-.25,4.13-.38,8.74-.38,13.68,0,6.49.26,11.92.76,16.15.5,4.22,1.3,7.6,2.37,10.06,1.05,2.43,2.42,4.15,4.07,5.11,1.67.97,3.69,1.46,6.01,1.46,1.84,0,3.53-.55,5.03-1.64,1.52-1.1,2.87-2.58,4.03-4.38,1.17-1.82,2.17-3.93,2.96-6.28.8-2.36,1.4-4.84,1.77-7.37l.05-.31h1.63v20.7h-1.59l-.07-.26c-.24-.85-.5-1.22-.67-1.39-.45-.43-1.38-.53-2.99.16-.81.35-1.74.72-2.79,1.13-1.06.41-2.22.8-3.45,1.14-1.26.35-2.6.53-3.98.53ZM649.85,211.48c-2.66,0-5.41.83-8.18,2.45-2.78,1.63-5.34,3.99-7.6,7.02-2.27,3.03-4.15,6.74-5.6,11.01-1.45,4.27-2.18,9.11-2.18,14.38,0,4.84.66,9.39,1.96,13.54,1.3,4.15,3.06,7.8,5.22,10.87,2.16,3.06,4.69,5.5,7.54,7.25,2.83,1.75,5.81,2.64,8.85,2.64,1.32,0,2.61-.17,3.82-.51,1.21-.34,2.35-.72,3.39-1.12,1.04-.41,1.96-.78,2.77-1.13,1.9-.81,3-.65,3.65-.03.31.3.57.78.79,1.47h.46v-19.24h-.42c-.39,2.48-.98,4.9-1.76,7.2-.82,2.4-1.84,4.57-3.04,6.44-1.21,1.88-2.62,3.41-4.21,4.57-1.6,1.17-3.42,1.76-5.39,1.76-2.43,0-4.56-.52-6.32-1.55-1.78-1.04-3.25-2.87-4.36-5.44-1.1-2.53-1.91-5.99-2.42-10.28-.51-4.26-.77-9.73-.77-16.25,0-4.96.13-9.58.38-13.73.26-4.19.85-7.85,1.77-10.88.93-3.06,2.33-5.49,4.16-7.22,1.84-1.75,4.38-2.63,7.56-2.63,2.36,0,4.37.64,5.97,1.9,1.58,1.25,2.93,2.87,3.99,4.82,1.05,1.93,1.92,4.08,2.59,6.39.62,2.17,1.17,4.28,1.64,6.29h.25v-18.49h-.42c-.15.82-.39,1.34-.73,1.59-.67.5-1.9.63-3.69-.2-.78-.36-1.67-.75-2.7-1.17-1-.41-2.09-.8-3.24-1.17-1.14-.37-2.38-.55-3.71-.55Z"/>
    </g>
    <g>
      <path d="M672.59,278.37l19.04-68.38h1.72l20.13,68.38h5.5v1.32h-21.47v-1.32h5.94l-7.41-25.24h-15.33l-7.09,25.24h5.69v1.32h-12.08v-1.32h5.37ZM681.03,251.81h14.7l-7.54-25.71-7.16,25.71Z"/>
      <path d="M719.31,280.05h-22.12v-2.05h5.82l-7.2-24.52h-14.85l-6.89,24.52h5.57v2.05h-12.73v-2.05h5.45l19.04-68.38h2.21l.07.25,20.05,68.13h5.58v2.05ZM697.84,279.33h20.81v-.59h-5.41l-.07-.25-20.05-68.13h-1.24l-19.04,68.38h-5.28v.59h11.42v-.59h-5.8l7.3-25.97h15.81l.07.25,7.55,25.72h-6.07v.59ZM696.18,252.17h-15.59l7.59-27.28,8,27.28ZM681.47,251.44h13.8l-7.08-24.15-6.72,24.15Z"/>
    </g>
    <g>
      <path d="M741.28,212.62v1.32h-5.88v64.43h10.54c1.41,0,2.82-.34,4.25-1.04,1.43-.69,2.77-1.84,4.03-3.44,1.26-1.6,2.38-3.67,3.39-6.22,1-2.54,1.78-5.64,2.33-9.28h.83v21.29h-40.51v-1.32h5.88v-64.43h-5.88v-1.32h21.02Z"/>
      <path d="M761.09,280.05h-41.17v-2.05h5.88v-63.7h-5.88v-2.05h21.68v2.05h-5.88v63.7h10.22c1.36,0,2.74-.34,4.12-1.01,1.37-.67,2.69-1.79,3.91-3.34,1.23-1.56,2.35-3.62,3.33-6.12.99-2.51,1.76-5.6,2.31-9.19l.05-.3h1.44v22.02ZM720.58,279.33h39.85v-20.56h-.23c-.55,3.52-1.33,6.57-2.31,9.06-1.01,2.57-2.17,4.69-3.44,6.31-1.28,1.64-2.68,2.82-4.14,3.53-1.46.71-2.93,1.07-4.38,1.07h-10.87v-65.16h5.88v-.59h-20.37v.59h5.88v65.16h-5.88v.59Z"/>
    </g>
    <g>
      <path d="M786.96,212.62v1.32h-5.88v64.43h5.88v1.32h-21.02v-1.32h5.88v-64.43h-5.88v-1.32h21.02Z"/>
      <path d="M787.29,280.05h-21.68v-2.05h5.88v-63.7h-5.88v-2.05h21.68v2.05h-5.88v63.7h5.88v2.05ZM766.27,279.33h20.36v-.59h-5.88v-65.16h5.88v-.59h-20.36v.59h5.88v65.16h-5.88v.59Z"/>
    </g>
    <g>
      <path d="M866.13,231.84c-.47-2.07-1.03-4.25-1.69-6.55-.66-2.29-1.51-4.39-2.56-6.31-1.04-1.91-2.34-3.49-3.9-4.71-1.55-1.22-3.48-1.84-5.78-1.84-3.11,0-5.56.85-7.35,2.54-1.79,1.69-3.14,4.05-4.06,7.06-.92,3.01-1.5,6.61-1.76,10.79-.26,4.18-.38,8.75-.38,13.7,0,6.53.26,11.93.77,16.2.51,4.27,1.31,7.66,2.4,10.17,1.09,2.51,2.49,4.27,4.22,5.28,1.73,1.01,3.78,1.51,6.17,1.51,1.92,0,3.65-.57,5.21-1.7,1.55-1.13,2.93-2.62,4.12-4.47,1.19-1.85,2.19-3.97,3-6.36.81-2.39,1.41-4.87,1.79-7.44h1.02v19.97h-1.02c-.21-.75-.47-1.27-.77-1.55-.3-.28-.75-.42-1.34-.42-.51,0-1.17.17-1.98.52-.81.35-1.74.72-2.78,1.13-1.05.41-2.18.78-3.42,1.13-1.24.34-2.53.52-3.9.52-3.11,0-6.11-.9-9.01-2.68-2.9-1.79-5.44-4.24-7.64-7.35-2.19-3.11-3.95-6.77-5.27-10.97-1.32-4.21-1.98-8.76-1.98-13.66,0-5.34.73-10.17,2.2-14.51,1.47-4.33,3.35-8.04,5.65-11.11,2.3-3.08,4.87-5.45,7.7-7.11,2.83-1.66,5.61-2.5,8.34-2.5,1.36,0,2.63.19,3.8.57,1.17.38,2.26.77,3.26,1.18,1,.41,1.91.8,2.72,1.18.81.38,1.49.57,2.04.57.6,0,1.04-.11,1.34-.33.3-.22.51-.77.64-1.65h1.02v19.22h-.83Z"/>
      <path d="M852.14,281.37c-3.15,0-6.24-.92-9.17-2.73-2.92-1.8-5.52-4.31-7.73-7.44-2.21-3.13-4-6.85-5.32-11.08-1.33-4.22-2-8.86-2-13.78,0-5.36.75-10.28,2.22-14.63,1.48-4.35,3.4-8.12,5.71-11.22,2.32-3.1,4.94-5.52,7.8-7.2,2.87-1.68,5.72-2.54,8.49-2.54,1.39,0,2.7.19,3.89.58,1.16.37,2.26.77,3.28,1.19,1.04.43,1.94.81,2.73,1.18,1.56.73,2.6.62,3.08.27.12-.09.35-.39.5-1.4l.04-.31h1.63v19.94h-1.41l-.06-.28c-.47-2.08-1.04-4.27-1.69-6.52-.65-2.25-1.5-4.35-2.52-6.23-1.02-1.86-2.3-3.41-3.81-4.6-1.49-1.17-3.37-1.77-5.59-1.77-3.02,0-5.42.83-7.14,2.46-1.73,1.64-3.07,3.97-3.96,6.9-.9,2.97-1.49,6.56-1.74,10.69-.25,4.13-.38,8.74-.38,13.68,0,6.49.26,11.92.76,16.15.5,4.22,1.3,7.6,2.37,10.06,1.05,2.43,2.42,4.15,4.07,5.11,1.67.97,3.69,1.46,6.01,1.46,1.84,0,3.53-.55,5.03-1.64,1.52-1.1,2.87-2.58,4.03-4.38,1.17-1.82,2.17-3.93,2.96-6.28.8-2.36,1.4-4.84,1.77-7.37l.05-.31h1.63v20.7h-1.59l-.07-.26c-.24-.85-.5-1.22-.67-1.39-.45-.43-1.38-.53-2.99.16-.81.35-1.74.72-2.79,1.13-1.06.41-2.22.8-3.45,1.14-1.26.35-2.6.53-3.98.53ZM852.14,211.48c-2.66,0-5.41.83-8.18,2.45-2.78,1.63-5.34,3.99-7.6,7.02-2.27,3.03-4.15,6.74-5.6,11.01-1.45,4.27-2.18,9.11-2.18,14.38,0,4.84.66,9.39,1.96,13.54,1.3,4.15,3.06,7.8,5.22,10.87,2.16,3.06,4.69,5.5,7.54,7.25,2.83,1.75,5.81,2.64,8.85,2.64,1.32,0,2.61-.17,3.82-.51,1.21-.34,2.35-.72,3.39-1.12,1.04-.41,1.96-.78,2.77-1.13,1.9-.81,3-.65,3.65-.03.31.3.57.78.79,1.47h.46v-19.24h-.42c-.39,2.48-.98,4.9-1.76,7.2-.82,2.4-1.84,4.57-3.04,6.44-1.21,1.88-2.62,3.41-4.21,4.57-1.6,1.17-3.42,1.76-5.39,1.76-2.43,0-4.56-.52-6.32-1.55-1.78-1.04-3.25-2.87-4.36-5.44-1.1-2.53-1.91-5.99-2.42-10.28-.51-4.26-.77-9.73-.77-16.25,0-4.96.13-9.58.38-13.73.26-4.19.85-7.85,1.77-10.88.93-3.06,2.33-5.49,4.16-7.22,1.84-1.75,4.38-2.63,7.56-2.63,2.36,0,4.37.64,5.97,1.9,1.58,1.25,2.93,2.87,3.99,4.82,1.05,1.93,1.92,4.08,2.59,6.39.62,2.17,1.17,4.28,1.64,6.29h.25v-18.49h-.42c-.15.82-.39,1.34-.73,1.59-.67.5-1.9.63-3.69-.2-.79-.37-1.67-.75-2.7-1.17-1-.41-2.09-.8-3.24-1.17-1.14-.37-2.38-.55-3.71-.55Z"/>
    </g>
    <g>
      <path d="M876,231.84c1.47-4.33,3.35-8.04,5.65-11.11,2.3-3.08,4.88-5.45,7.73-7.11,2.85-1.66,5.64-2.5,8.37-2.5,2.94,0,5.85.82,8.72,2.45,2.87,1.63,5.43,3.96,7.67,6.97,2.24,3.01,4.05,6.67,5.43,10.97,1.38,4.3,2.08,9.15,2.08,14.55,0,4.71-.65,9.18-1.95,13.42-1.3,4.24-3.05,7.96-5.24,11.16-2.2,3.2-4.73,5.73-7.6,7.58-2.88,1.85-5.91,2.78-9.1,2.78s-6.18-.9-9.07-2.68c-2.9-1.79-5.44-4.24-7.63-7.35-2.2-3.11-3.95-6.77-5.27-10.97-1.32-4.21-1.98-8.76-1.98-13.66,0-5.34.73-10.17,2.2-14.51ZM884.98,262.59c.51,4.3,1.31,7.72,2.4,10.27,1.09,2.54,2.49,4.32,4.22,5.32,1.72,1.01,3.78,1.51,6.17,1.51,3.15,0,5.62-.86,7.41-2.59,1.79-1.73,3.13-4.11,4.03-7.16.89-3.05,1.46-6.66,1.69-10.83.23-4.18.35-8.71.35-13.61,0-4.4-.1-8.59-.29-12.58-.19-3.99-.73-7.5-1.63-10.55-.89-3.05-2.25-5.46-4.06-7.25s-4.31-2.68-7.51-2.68c-2.98,0-5.37.83-7.16,2.5-1.79,1.66-3.15,4-4.09,7.02-.94,3.01-1.55,6.59-1.85,10.74-.3,4.14-.45,8.7-.45,13.66,0,6.53.26,11.95.77,16.25Z"/>
      <path d="M897.76,281.37c-3.19,0-6.3-.92-9.23-2.73-2.92-1.8-5.52-4.31-7.73-7.44-2.21-3.13-4-6.85-5.32-11.08-1.33-4.23-2-8.86-2-13.78,0-5.36.75-10.28,2.22-14.63h0c1.48-4.35,3.4-8.13,5.71-11.22,2.32-3.1,4.95-5.52,7.83-7.2,2.89-1.68,5.76-2.54,8.52-2.54,2.98,0,5.96.84,8.87,2.49,2.9,1.65,5.52,4.03,7.77,7.06,2.25,3.03,4.09,6.76,5.49,11.08,1.39,4.33,2.1,9.26,2.1,14.68,0,4.73-.66,9.28-1.97,13.54-1.3,4.25-3.08,8.04-5.29,11.26-2.21,3.23-4.8,5.81-7.7,7.68-2.91,1.88-6.03,2.83-9.27,2.83ZM876.31,231.97c-1.45,4.27-2.18,9.11-2.18,14.38,0,4.84.66,9.39,1.96,13.54,1.3,4.15,3.06,7.8,5.22,10.87,2.15,3.06,4.69,5.5,7.54,7.25,2.83,1.75,5.83,2.64,8.91,2.64s6.13-.92,8.94-2.73c2.82-1.82,5.35-4.34,7.51-7.49,2.16-3.16,3.91-6.88,5.19-11.06,1.28-4.18,1.93-8.66,1.93-13.3,0-5.33-.69-10.18-2.06-14.43-1.37-4.25-3.18-7.9-5.38-10.86-2.19-2.96-4.74-5.27-7.56-6.88-2.82-1.6-5.7-2.41-8.57-2.41-2.66,0-5.42.83-8.22,2.45-2.8,1.63-5.37,3.99-7.63,7.02-2.27,3.03-4.15,6.74-5.6,11.01h0ZM897.76,280.05c-2.43,0-4.56-.52-6.32-1.55-1.78-1.04-3.25-2.88-4.36-5.49-1.1-2.56-1.91-6.06-2.43-10.37h0c-.51-4.3-.77-9.79-.77-16.3,0-4.94.15-9.55.45-13.69.3-4.16.93-7.8,1.87-10.83.95-3.06,2.36-5.48,4.19-7.18,1.84-1.71,4.32-2.58,7.37-2.58,3.26,0,5.86.93,7.73,2.78,1.85,1.82,3.24,4.32,4.15,7.41.9,3.06,1.45,6.64,1.64,10.64.19,3.98.29,8.21.29,12.59,0,4.87-.12,9.45-.35,13.63-.24,4.19-.81,7.86-1.71,10.92-.91,3.09-2.29,5.56-4.12,7.32-1.84,1.78-4.41,2.68-7.63,2.68ZM885.3,262.55c.5,4.24,1.3,7.66,2.37,10.16,1.05,2.46,2.42,4.19,4.07,5.16,1.67.97,3.69,1.46,6.01,1.46,3.06,0,5.48-.84,7.2-2.5,1.74-1.68,3.06-4.03,3.93-7,.88-3,1.45-6.62,1.68-10.74.23-4.16.35-8.73.35-13.59,0-4.37-.1-8.59-.29-12.56-.19-3.94-.73-7.46-1.61-10.46-.87-2.97-2.21-5.36-3.96-7.09-1.74-1.72-4.19-2.59-7.29-2.59-2.89,0-5.23.81-6.95,2.41-1.73,1.61-3.08,3.92-3.99,6.86-.92,2.97-1.54,6.55-1.83,10.65-.3,4.12-.45,8.71-.45,13.63,0,6.48.26,11.93.76,16.2h0Z"/>
    </g>
    <g>
      <path d="M948.3,212.62v1.32h-5.88v64.43h10.54c1.41,0,2.82-.34,4.25-1.04,1.43-.69,2.77-1.84,4.03-3.44,1.26-1.6,2.38-3.67,3.39-6.22,1-2.54,1.78-5.64,2.33-9.28h.83v21.29h-40.51v-1.32h5.88v-64.43h-5.88v-1.32h21.02Z"/>
      <path d="M968.11,280.05h-41.17v-2.05h5.88v-63.7h-5.88v-2.05h21.68v2.05h-5.88v63.7h10.22c1.36,0,2.74-.34,4.12-1.01,1.37-.67,2.69-1.79,3.91-3.34,1.23-1.56,2.35-3.62,3.33-6.12.99-2.51,1.76-5.6,2.31-9.19l.05-.3h1.44v22.02ZM927.61,279.33h39.85v-20.56h-.23c-.55,3.52-1.33,6.57-2.31,9.06-1.01,2.57-2.17,4.69-3.44,6.31-1.28,1.64-2.68,2.82-4.14,3.53-1.46.71-2.93,1.07-4.38,1.07h-10.87v-65.16h5.88v-.59h-20.37v.59h5.88v65.16h-5.88v.59Z"/>
    </g>
    <g>
      <path d="M975.36,231.84c1.47-4.33,3.35-8.04,5.65-11.11,2.3-3.08,4.88-5.45,7.73-7.11,2.85-1.66,5.64-2.5,8.37-2.5,2.94,0,5.85.82,8.72,2.45,2.87,1.63,5.43,3.96,7.67,6.97,2.24,3.01,4.05,6.67,5.43,10.97,1.38,4.3,2.08,9.15,2.08,14.55,0,4.71-.65,9.18-1.95,13.42s-3.05,7.96-5.24,11.16c-2.2,3.2-4.73,5.73-7.6,7.58-2.88,1.85-5.91,2.78-9.1,2.78s-6.18-.9-9.07-2.68c-2.9-1.79-5.44-4.24-7.63-7.35-2.2-3.11-3.95-6.77-5.27-10.97-1.32-4.21-1.98-8.76-1.98-13.66,0-5.34.73-10.17,2.2-14.51ZM984.33,262.59c.51,4.3,1.31,7.72,2.4,10.27,1.09,2.54,2.49,4.32,4.22,5.32,1.72,1.01,3.78,1.51,6.17,1.51,3.15,0,5.62-.86,7.41-2.59,1.79-1.73,3.13-4.11,4.03-7.16.89-3.05,1.46-6.66,1.69-10.83.23-4.18.35-8.71.35-13.61,0-4.4-.1-8.59-.29-12.58-.19-3.99-.73-7.5-1.63-10.55-.89-3.05-2.25-5.46-4.06-7.25-1.81-1.79-4.31-2.68-7.51-2.68-2.98,0-5.37.83-7.16,2.5-1.79,1.66-3.15,4-4.09,7.02-.94,3.01-1.55,6.59-1.85,10.74-.3,4.14-.45,8.7-.45,13.66,0,6.53.26,11.95.77,16.25Z"/>
      <path d="M997.11,281.37c-3.19,0-6.3-.92-9.23-2.73-2.92-1.8-5.52-4.31-7.73-7.44-2.21-3.12-4-6.85-5.32-11.08-1.33-4.22-2-8.86-2-13.78,0-5.36.75-10.28,2.23-14.63,1.48-4.35,3.4-8.13,5.71-11.22,2.32-3.1,4.95-5.52,7.83-7.2,2.89-1.68,5.76-2.54,8.52-2.54,2.98,0,5.96.84,8.87,2.49,2.9,1.65,5.52,4.03,7.77,7.06,2.25,3.03,4.09,6.76,5.49,11.08,1.39,4.32,2.1,9.26,2.1,14.68,0,4.73-.66,9.28-1.97,13.54-1.31,4.26-3.08,8.05-5.29,11.26-2.22,3.23-4.81,5.81-7.7,7.68-2.91,1.88-6.03,2.83-9.27,2.83ZM997.11,211.48c-2.66,0-5.42.83-8.22,2.45-2.8,1.63-5.37,3.99-7.63,7.02-2.27,3.03-4.15,6.74-5.6,11.01-1.45,4.27-2.18,9.11-2.18,14.38,0,4.84.66,9.39,1.96,13.54,1.3,4.15,3.06,7.81,5.22,10.87,2.16,3.06,4.69,5.5,7.54,7.25,2.83,1.75,5.83,2.64,8.91,2.64s6.13-.92,8.94-2.73c2.82-1.82,5.34-4.33,7.51-7.49,2.16-3.16,3.91-6.88,5.19-11.06,1.28-4.18,1.93-8.66,1.93-13.3,0-5.33-.69-10.19-2.06-14.43-1.37-4.25-3.18-7.9-5.38-10.86-2.19-2.96-4.74-5.27-7.56-6.88-2.82-1.6-5.7-2.41-8.57-2.41ZM997.11,280.05c-2.43,0-4.56-.52-6.32-1.55-1.78-1.04-3.25-2.88-4.36-5.49-1.09-2.57-1.91-6.06-2.42-10.37h0c-.51-4.29-.77-9.77-.77-16.3,0-4.95.15-9.56.45-13.69.3-4.15.93-7.8,1.87-10.83.95-3.06,2.36-5.48,4.19-7.18,1.84-1.71,4.32-2.58,7.37-2.58,3.26,0,5.86.93,7.72,2.78,1.85,1.83,3.24,4.32,4.15,7.41.9,3.07,1.45,6.65,1.64,10.64.19,3.98.29,8.21.29,12.59,0,4.84-.12,9.43-.35,13.63-.24,4.19-.81,7.87-1.71,10.92-.91,3.09-2.3,5.56-4.12,7.32-1.84,1.78-4.41,2.68-7.63,2.68ZM997.11,212.8c-2.89,0-5.23.81-6.95,2.41-1.73,1.61-3.08,3.92-3.99,6.86-.92,2.97-1.54,6.56-1.84,10.65-.3,4.11-.45,8.69-.45,13.63,0,6.49.26,11.94.76,16.2h0c.5,4.24,1.3,7.66,2.37,10.16,1.05,2.46,2.42,4.19,4.08,5.16,1.67.97,3.69,1.46,6.01,1.46,3.06,0,5.48-.84,7.2-2.5,1.73-1.68,3.06-4.03,3.93-7,.88-2.99,1.44-6.61,1.68-10.74.23-4.19.35-8.76.35-13.59,0-4.37-.1-8.59-.29-12.56-.19-3.93-.73-7.45-1.61-10.46-.87-2.97-2.21-5.35-3.97-7.09-1.74-1.72-4.19-2.59-7.29-2.59Z"/>
    </g>
    <g>
      <path d="M1042.29,212.62l11.05,46.91h.13l11.25-46.91h15.97v1.32h-5.88v64.43h5.88v1.32h-20.96v-1.32h5.81v-64.43h-.13l-15.72,65.75h-1.02l-15.78-65.75h-.13v64.43h5.88v1.32h-12.78v-1.32h5.88v-64.43h-5.88v-1.32h16.42Z"/>
      <path d="M1081.02,280.05h-21.61v-2.05h5.81v-61.81l-15.26,63.85h-1.53l-.06-.27-15.27-63.59v61.81h5.88v2.05h-13.44v-2.05h5.88v-63.7h-5.88v-2.05h17l10.87,46.11,11.06-46.11h16.56v2.05h-5.88v63.7h5.88v2.05ZM1060.06,279.33h20.3v-.59h-5.88v-65.16h5.88v-.59h-15.39l-11.25,46.91h-.63l-11.05-46.91h-15.84v.59h5.88v65.16h-5.88v.59h12.12v-.59h-5.88v-65.16h.71l.06.27,15.72,65.48h.52l15.72-65.75h.71v65.16h-5.81v.59Z"/>
    </g>
    <g>
      <path d="M1085.1,213.94v-1.32h9.65c1.79,0,3.56-.05,5.3-.14,1.75-.09,3.51-.14,5.3-.14,1.66,0,3.41.25,5.24.75,1.83.5,3.5,1.35,5.02,2.54,1.51,1.19,2.76,2.8,3.74,4.8.98,2.01,1.47,4.52,1.47,7.54,0,2.7-.48,4.98-1.44,6.83-.96,1.85-2.12,3.38-3.48,4.57-1.36,1.19-2.78,2.1-4.25,2.73-1.47.63-2.72,1.04-3.74,1.22v.38c1.66.19,3.39.6,5.18,1.22,1.79.63,3.43,1.62,4.92,2.97,1.49,1.35,2.73,3.12,3.71,5.32.98,2.2,1.47,4.96,1.47,8.29,0,3.64-.63,6.66-1.88,9.04-1.26,2.39-2.79,4.27-4.6,5.65-1.81,1.38-3.74,2.34-5.78,2.87-2.04.53-3.88.8-5.49.8-1.79,0-3.57-.03-5.34-.09-1.77-.06-3.55-.09-5.33-.09h-9.65v-1.32h5.88v-64.43h-5.88ZM1102.86,243.05c1.92,0,3.43-.38,4.54-1.13,1.11-.75,1.94-1.77,2.49-3.06.55-1.29.9-2.75,1.05-4.38.15-1.63.22-3.3.22-4.99,0-2.76-.13-5.13-.38-7.11-.26-1.98-.68-3.61-1.28-4.9-.6-1.29-1.42-2.24-2.46-2.87-1.05-.63-2.38-.94-3.99-.94-.47,0-.94.03-1.41.09-.47.06-.94.13-1.41.19v29.11h2.62ZM1103.95,278.65c1.36,0,2.59-.24,3.67-.71,1.09-.47,2.01-1.37,2.78-2.68.77-1.32,1.35-3.16,1.76-5.51.4-2.35.61-5.45.61-9.28,0-1.07-.06-2.5-.19-4.29s-.48-3.56-1.05-5.32c-.57-1.76-1.45-3.28-2.62-4.57-1.17-1.29-2.82-1.93-4.95-1.93h-3.71v34c1.15.19,2.38.28,3.71.28Z"/>
      <path d="M1105.42,280.24c-1.74,0-3.54-.03-5.35-.09-1.73-.06-3.52-.09-5.32-.09h-9.98v-2.05h5.88v-63.7h-5.88v-2.05h9.98c1.78,0,3.56-.05,5.29-.14,1.75-.09,3.54-.14,5.32-.14,1.68,0,3.47.26,5.32.76,1.87.51,3.59,1.39,5.13,2.6,1.55,1.22,2.84,2.88,3.84,4.93,1,2.06,1.51,4.65,1.51,7.71,0,2.75-.5,5.11-1.48,7.01-.98,1.89-2.18,3.46-3.57,4.67-1.38,1.21-2.84,2.15-4.33,2.79-1.07.46-2.03.8-2.87,1.03,1.39.22,2.83.6,4.29,1.11,1.82.64,3.51,1.66,5.03,3.03,1.52,1.38,2.79,3.21,3.79,5.44,1,2.24,1.5,5.08,1.5,8.45,0,3.69-.65,6.8-1.93,9.23-1.28,2.42-2.86,4.36-4.7,5.77-1.84,1.4-3.82,2.39-5.89,2.93-2.06.54-3.93.81-5.57.81ZM1085.43,279.33h9.32c1.81,0,3.61.03,5.34.09,1.8.06,3.59.09,5.33.09,1.59,0,3.41-.27,5.42-.79,1.99-.52,3.9-1.47,5.67-2.82,1.76-1.34,3.28-3.21,4.5-5.53,1.22-2.32,1.84-5.3,1.84-8.86,0-3.25-.48-5.99-1.43-8.13-.96-2.14-2.17-3.89-3.62-5.2-1.45-1.31-3.07-2.29-4.81-2.9-1.76-.62-3.48-1.02-5.11-1.21l-.29-.03v-1.01l.27-.05c1-.18,2.23-.59,3.67-1.21,1.43-.61,2.83-1.51,4.16-2.68,1.32-1.16,2.47-2.66,3.4-4.46.92-1.79,1.39-4.02,1.39-6.65,0-2.94-.48-5.41-1.43-7.36-.95-1.95-2.18-3.53-3.64-4.68-1.47-1.16-3.12-1.99-4.91-2.49-1.8-.49-3.53-.74-5.16-.74-1.77,0-3.55.05-5.29.14-1.74.09-3.53.14-5.32.14h-9.32v.59h5.88v65.16h-5.88v.59ZM1103.95,279.02c-1.33,0-2.59-.1-3.75-.29l-.28-.05v-34.68h4.03c2.21,0,3.95.68,5.18,2.04,1.2,1.32,2.11,2.9,2.7,4.7.58,1.78.94,3.6,1.07,5.42.13,1.78.19,3.23.19,4.32,0,3.84-.21,6.98-.61,9.35-.41,2.39-1.02,4.29-1.8,5.64-.8,1.38-1.79,2.33-2.94,2.83-1.12.49-2.39.73-3.79.73ZM1100.57,278.05c1.05.16,2.18.23,3.38.23,1.32,0,2.51-.23,3.55-.68,1.02-.44,1.9-1.3,2.62-2.54.74-1.27,1.31-3.08,1.71-5.38.4-2.32.6-5.42.6-9.21,0-1.07-.06-2.5-.19-4.26-.13-1.75-.47-3.51-1.04-5.23-.56-1.7-1.41-3.19-2.54-4.43-1.1-1.21-2.69-1.83-4.72-1.83h-3.38v33.32ZM1102.86,243.41h-2.95v-29.79l1.69-.23c.49-.06.97-.1,1.44-.1,1.66,0,3.06.33,4.15.99,1.1.66,1.97,1.68,2.6,3.03.61,1.32,1.05,3,1.31,5.01.26,1.99.39,4.4.39,7.16,0,1.69-.08,3.38-.23,5.03-.15,1.67-.52,3.18-1.08,4.5-.58,1.35-1.46,2.43-2.62,3.22-1.16.79-2.74,1.18-4.71,1.18ZM1100.57,242.68h2.29c1.84,0,3.31-.36,4.37-1.08,1.05-.71,1.84-1.69,2.37-2.91.53-1.24.88-2.68,1.02-4.26.15-1.62.22-3.29.22-4.95,0-2.73-.13-5.1-.38-7.06-.25-1.93-.67-3.54-1.25-4.78-.56-1.21-1.35-2.13-2.32-2.72-.99-.6-2.28-.9-3.84-.9-.44,0-.9.03-1.37.09l-1.12.15v28.42Z"/>
    </g>
    <g>
      <path d="M1150.14,212.62v1.32h-5.88v64.43h5.88v1.32h-21.02v-1.32h5.88v-64.43h-5.88v-1.32h21.02Z"/>
      <path d="M1150.47,280.05h-21.68v-2.05h5.88v-63.7h-5.88v-2.05h21.68v2.05h-5.88v63.7h5.88v2.05ZM1129.45,279.33h20.36v-.59h-5.88v-65.16h5.88v-.59h-20.36v.59h5.88v65.16h-5.88v.59Z"/>
    </g>
    <g>
      <path d="M1156.4,278.37l19.04-68.38h1.72l20.13,68.38h5.5v1.32h-21.47v-1.32h5.94l-7.41-25.24h-15.33l-7.09,25.24h5.69v1.32h-12.08v-1.32h5.37ZM1164.84,251.81h14.7l-7.54-25.71-7.16,25.71Z"/>
      <path d="M1203.12,280.05h-22.13v-2.05h5.82l-7.2-24.52h-14.86l-6.89,24.52h5.57v2.05h-12.73v-2.05h5.45l19.04-68.38h2.21l.07.25,20.05,68.13h5.59v2.05ZM1181.65,279.33h20.81v-.59h-5.41l-.07-.25-20.05-68.13h-1.24l-19.04,68.38h-5.28v.59h11.42v-.59h-5.8l7.3-25.97h15.81l.07.25,7.55,25.72h-6.07v.59ZM1179.99,252.17h-15.59l7.59-27.28,8,27.28ZM1165.28,251.44h13.8l-7.08-24.15-6.72,24.15Z"/>
    </g>
  </g>
  <g>
    <ellipse cx="805.53" cy="253.15" rx="7.23" ry="8.02"/>
    <path d="M805.53,261.54c-4.17,0-7.55-3.76-7.55-8.38s3.39-8.38,7.55-8.38,7.55,3.76,7.55,8.38-3.39,8.38-7.55,8.38ZM805.53,245.5c-3.8,0-6.9,3.43-6.9,7.65s3.09,7.65,6.9,7.65,6.9-3.43,6.9-7.65-3.09-7.65-6.9-7.65Z"/>
  </g>
  <polygon points="1222.87 304.62 596.07 304.62 596.07 294.42 1213.68 294.42 1213.68 102.09 569.18 102.09 569.18 91.89 1222.87 91.89 1222.87 304.62"/>
</svg>