<?xml version="1.0" encoding="UTF-8"?>
<svg id="Capa_1" data-name="Capa 1" xmlns="http://www.w3.org/2000/svg" viewBox="0 0 1600 400">
  <defs>
    <style>
      .cls-1 {
        stroke-width: 2px;
      }

      .cls-1, .cls-2, .cls-3 {
        stroke: #000;
        stroke-miterlimit: 10;
      }

      .cls-4 {
        font-family: ArialMT, Arial;
        font-size: 67.38px;
      }

      .cls-2 {
        stroke-width: .5px;
      }

      .cls-3 {
        fill: none;
        stroke-width: 6px;
      }
    </style>
  </defs>
  <g>
    <path class="cls-1" d="M162.26,191.38c.5,2.25,1.38,5.21,2.64,8.86,1.25,3.66,3.07,7.6,5.47,11.82,2.39,4.22,5.4,8.54,9.05,12.95,3.64,4.41,8.11,8.49,13.39,12.24,5.78,4.32,11.37,7.6,16.78,9.85,5.4,2.25,10.56,3.89,15.46,4.92,4.9,1.03,9.55,1.6,13.95,1.69,4.39.1,8.49.14,12.26.14,13.32,0,24.26-1.55,32.81-4.64,8.54-3.09,15.27-6.89,20.18-11.4,4.9-4.5,8.36-9.24,10.37-14.21,2.01-4.97,3.02-9.33,3.02-13.08,0-6.94-2.21-12.66-6.6-17.16-4.4-4.5-10.25-8.25-17.53-11.26-7.3-3-15.59-5.53-24.89-7.6-9.31-2.06-18.86-4.17-28.66-6.33-9.8-2.15-19.36-4.69-28.66-7.6-9.3-2.91-17.6-6.66-24.89-11.26-7.29-4.59-13.14-10.27-17.53-17.02-4.4-6.75-6.6-15.2-6.6-25.33,0-7.5,2.26-14.72,6.79-21.67,4.53-6.94,10.81-13.08,18.86-18.43,8.04-5.35,17.66-9.66,28.85-12.94,11.18-3.28,23.31-4.92,36.39-4.92,8.3,0,15.58.56,21.87,1.69,6.28,1.13,11.81,2.3,16.59,3.52,4.77,1.22,8.99,2.39,12.63,3.52,3.64,1.13,6.98,1.69,9.99,1.69,3.52,0,5.85-.42,6.98-1.26,1.13-.85,2.32-2.39,3.58-4.64h6.03v53.46h-4.9c-3.02-6.56-6.22-13.04-9.62-19.42-3.39-6.37-7.73-12.15-13.01-17.3-5.28-5.16-11.94-9.33-19.98-12.52-8.05-3.19-18.23-4.78-30.55-4.78-10.06,0-18.92,1.04-26.58,3.1-7.67,2.07-14.14,4.78-19.42,8.16-5.28,3.38-9.3,7.13-12.07,11.26-2.77,4.13-4.15,8.35-4.15,12.66,0,6.57,2.32,12.01,6.98,16.32,4.65,4.32,10.75,8.02,18.29,11.12,7.54,3.09,16.15,5.77,25.83,8.02,9.68,2.25,19.61,4.6,29.79,7.03,10.18,2.44,20.11,5.11,29.79,8.02,9.68,2.91,18.29,6.61,25.83,11.12s13.64,9.95,18.29,16.32c4.65,6.38,6.98,14.26,6.98,23.64s-2.52,17.92-7.54,26.17c-5.03,8.26-12.13,15.48-21.3,21.67-9.18,6.19-20.12,11.12-32.81,14.77-12.7,3.66-26.84,5.49-42.43,5.49-7.79,0-15.52-.57-23.19-1.69-7.67-1.13-14.84-2.29-21.5-3.52-6.66-1.22-12.57-2.39-17.72-3.52-5.16-1.12-8.99-1.69-11.5-1.69-3.52,0-6.03.42-7.54,1.27-1.51.84-2.9,2.58-4.15,5.21h-6.03v-62.47h5.66Z"/>
    <path class="cls-1" d="M514.09,249.91v3.94h-124.07v-3.94h34.69V57.43h-34.69v-3.94h34.69c12.82,0,25.64-.14,38.46-.42,12.82-.28,25.64-.42,38.47-.42,11.32,0,23.51.71,36.58,2.11,13.07,1.41,25.14,4.04,36.2,7.88,11.06,3.85,20.3,9.19,27.72,16.04,7.41,6.85,11.13,15.71,11.13,26.59,0,7.32-2.4,14.21-7.17,20.68-4.78,6.47-12.07,12.1-21.87,16.88s-22.12,8.58-36.96,11.4c-14.84,2.81-32.31,4.22-52.42,4.22h-15.46v91.45h34.69ZM491.09,154.51c21.36,0,36.82-3.61,46.38-10.83,9.55-7.22,14.33-19.46,14.33-36.72,0-16.32-4.15-28.79-12.45-37.43-8.3-8.63-23.38-12.94-45.25-12.94-2.77,0-5.41.1-7.92.28-2.52.19-4.78.38-6.79.56v97.08h11.69Z"/>
    <path class="cls-1" d="M643.81,249.91l112.38-204.29h10.18l118.79,204.29h32.43v3.94h-126.71v-3.94h35.07l-43.74-75.41h-90.51l-41.86,75.41h33.56v3.94h-71.27v-3.94h31.68ZM693.59,170.56h86.74l-44.5-76.82-42.24,76.82Z"/>
    <path class="cls-1" d="M1046.56,53.5v3.94h-34.69v192.47h34.69v3.94h-124.07v-3.94h34.69V57.43h-34.69v-3.94h124.07Z"/>
    <path class="cls-1" d="M1163.08,53.5l125.57,133.94h.75V57.43h-34.69v-3.94h75.42v3.94h-34.69v196.41h-10.18l-169.69-180.37h-.75v176.43h34.69v3.94h-75.42v-3.94h34.69V57.43h-34.69v-3.94h89Z"/>
  </g>
  <text class="cls-4" transform="translate(1379.8 112.57) scale(.94 1)"><tspan x="0" y="0">R</tspan></text>
  <circle class="cls-3" cx="1401.39" cy="87.95" r="42.01"/>
  <g>
    <path class="cls-2" d="M576.71,349.54v-54.95h18.08c3.18,0,5.61.17,7.29.52,2.35.45,4.33,1.31,5.92,2.57,1.59,1.26,2.87,3.03,3.84,5.3.97,2.27,1.45,4.77,1.45,7.5,0,4.67-1.3,8.63-3.89,11.86-2.59,3.24-7.28,4.85-14.06,4.85h-12.29v22.34h-6.34ZM583.05,320.71h12.39c4.1,0,7.01-.87,8.73-2.62,1.72-1.75,2.58-4.21,2.58-7.38,0-2.3-.51-4.27-1.52-5.9-1.01-1.64-2.35-2.72-4-3.24-1.07-.32-3.04-.49-5.92-.49h-12.26v19.64Z"/>
    <path class="cls-2" d="M621.46,349.54v-54.95h21.25c4.27,0,7.52.49,9.74,1.48,2.22.99,4,2.73,5.33,5.23,1.33,2.5,1.99,5.26,1.99,8.28,0,3.9-1.1,7.18-3.3,9.86-2.2,2.67-5.6,4.37-10.2,5.1,1.68.92,2.95,1.84,3.82,2.74,1.85,1.95,3.61,4.39,5.26,7.31l8.34,14.95h-7.98l-6.34-11.43c-1.85-3.3-3.38-5.82-4.58-7.57-1.2-1.75-2.27-2.97-3.22-3.67-.95-.7-1.91-1.19-2.89-1.46-.72-.17-1.9-.26-3.53-.26h-7.36v24.4h-6.34ZM627.81,318.84h13.63c2.9,0,5.17-.34,6.8-1.03,1.63-.69,2.88-1.79,3.73-3.3.85-1.51,1.27-3.15,1.27-4.93,0-2.6-.82-4.73-2.47-6.41-1.65-1.67-4.24-2.51-7.8-2.51h-15.17v18.18Z"/>
    <path class="cls-2" d="M667.79,322.78c0-9.12,2.14-16.26,6.41-21.42,4.27-5.16,9.79-7.74,16.54-7.74,4.42,0,8.41,1.21,11.96,3.64,3.55,2.42,6.26,5.8,8.12,10.14,1.86,4.34,2.8,9.25,2.8,14.75s-.98,10.56-2.94,14.95c-1.96,4.4-4.74,7.73-8.34,9.99-3.6,2.26-7.48,3.39-11.64,3.39-4.51,0-8.54-1.25-12.1-3.75-3.55-2.5-6.24-5.91-8.07-10.23-1.83-4.32-2.75-8.9-2.75-13.72ZM674.33,322.89c0,6.62,1.55,11.84,4.66,15.65,3.11,3.81,7,5.72,11.69,5.72s8.7-1.92,11.79-5.77c3.08-3.85,4.63-9.31,4.63-16.38,0-4.47-.66-8.38-1.98-11.71-1.32-3.34-3.25-5.92-5.79-7.76-2.54-1.84-5.39-2.75-8.55-2.75-4.49,0-8.35,1.77-11.59,5.3-3.24,3.54-4.85,9.44-4.85,17.71Z"/>
    <path class="cls-2" d="M722.12,349.54v-54.95h32.33v6.48h-25.99v17.02h22.49v6.48h-22.49v24.96h-6.34Z"/>
    <path class="cls-2" d="M762.82,349.54v-54.95h34.65v6.48h-28.31v16.83h26.51v6.45h-26.51v18.7h29.42v6.48h-35.76Z"/>
    <path class="cls-2" d="M805.19,331.88l5.98-.6c.28,2.75.94,5,1.98,6.77,1.04,1.76,2.64,3.19,4.82,4.27,2.18,1.09,4.63,1.63,7.36,1.63,2.42,0,4.55-.41,6.41-1.24,1.85-.82,3.23-1.95,4.14-3.39.9-1.44,1.36-3,1.36-4.7s-.44-3.23-1.31-4.52c-.87-1.29-2.31-2.37-4.32-3.24-1.29-.57-4.13-1.47-8.53-2.68-4.4-1.21-7.49-2.35-9.25-3.43-2.29-1.37-3.99-3.08-5.12-5.12-1.12-2.04-1.68-4.32-1.68-6.84,0-2.77.69-5.37,2.06-7.78,1.37-2.41,3.38-4.24,6.02-5.49,2.64-1.25,5.57-1.87,8.79-1.87,3.55,0,6.69.66,9.4,1.97,2.71,1.31,4.8,3.24,6.26,5.79,1.46,2.55,2.24,5.43,2.35,8.66l-6.08.52c-.33-3.47-1.43-6.1-3.32-7.87-1.89-1.77-4.67-2.66-8.35-2.66s-6.63.81-8.39,2.42c-1.75,1.61-2.63,3.55-2.63,5.83,0,1.97.62,3.6,1.86,4.87,1.22,1.27,4.41,2.58,9.56,3.92,5.15,1.34,8.69,2.51,10.61,3.5,2.79,1.47,4.85,3.34,6.18,5.6,1.33,2.26,1.99,4.87,1.99,7.81s-.73,5.68-2.19,8.26c-1.46,2.59-3.56,4.6-6.29,6.03-2.74,1.44-5.81,2.15-9.24,2.15-4.34,0-7.97-.72-10.9-2.17-2.93-1.45-5.23-3.63-6.9-6.54-1.67-2.91-2.54-6.2-2.63-9.88Z"/>
    <path class="cls-2" d="M849.84,331.88l5.98-.6c.28,2.75.94,5,1.98,6.77,1.04,1.76,2.64,3.19,4.82,4.27,2.18,1.09,4.63,1.63,7.36,1.63,2.42,0,4.55-.41,6.41-1.24,1.85-.82,3.23-1.95,4.14-3.39.9-1.44,1.36-3,1.36-4.7s-.44-3.23-1.31-4.52c-.87-1.29-2.31-2.37-4.32-3.24-1.29-.57-4.13-1.47-8.53-2.68-4.4-1.21-7.49-2.35-9.25-3.43-2.29-1.37-3.99-3.08-5.12-5.12-1.12-2.04-1.68-4.32-1.68-6.84,0-2.77.69-5.37,2.06-7.78,1.37-2.41,3.38-4.24,6.02-5.49,2.64-1.25,5.57-1.87,8.79-1.87,3.55,0,6.69.66,9.4,1.97,2.71,1.31,4.8,3.24,6.26,5.79,1.46,2.55,2.24,5.43,2.35,8.66l-6.08.52c-.33-3.47-1.43-6.1-3.32-7.87-1.89-1.77-4.67-2.66-8.35-2.66s-6.63.81-8.39,2.42c-1.75,1.61-2.63,3.55-2.63,5.83,0,1.97.62,3.6,1.86,4.87,1.22,1.27,4.41,2.58,9.56,3.92,5.15,1.34,8.69,2.51,10.61,3.5,2.79,1.47,4.85,3.34,6.18,5.6,1.33,2.26,1.99,4.87,1.99,7.81s-.73,5.68-2.19,8.26c-1.46,2.59-3.56,4.6-6.29,6.03-2.74,1.44-5.81,2.15-9.24,2.15-4.34,0-7.97-.72-10.9-2.17-2.93-1.45-5.23-3.63-6.9-6.54-1.67-2.91-2.54-6.2-2.63-9.88Z"/>
    <path class="cls-2" d="M897.74,349.54v-54.95h6.34v54.95h-6.34Z"/>
    <path class="cls-2" d="M913.33,322.78c0-9.12,2.14-16.26,6.41-21.42,4.27-5.16,9.79-7.74,16.54-7.74,4.42,0,8.41,1.21,11.96,3.64,3.55,2.42,6.26,5.8,8.12,10.14,1.86,4.34,2.8,9.25,2.8,14.75s-.98,10.56-2.94,14.95c-1.96,4.4-4.74,7.73-8.34,9.99-3.6,2.26-7.48,3.39-11.64,3.39-4.51,0-8.54-1.25-12.1-3.75-3.55-2.5-6.24-5.91-8.07-10.23-1.83-4.32-2.75-8.9-2.75-13.72ZM919.87,322.89c0,6.62,1.55,11.84,4.66,15.65,3.11,3.81,7,5.72,11.69,5.72s8.7-1.92,11.79-5.77c3.08-3.85,4.63-9.31,4.63-16.38,0-4.47-.66-8.38-1.98-11.71-1.32-3.34-3.25-5.92-5.79-7.76-2.54-1.84-5.39-2.75-8.55-2.75-4.49,0-8.35,1.77-11.59,5.3-3.24,3.54-4.85,9.44-4.85,17.71Z"/>
    <path class="cls-2" d="M967.27,349.54v-54.95h6.51l25.17,43.14v-43.14h6.08v54.95h-6.51l-25.17-43.18v43.18h-6.08Z"/>
    <path class="cls-2" d="M1010.42,349.54l18.4-54.95h6.83l19.61,54.95h-7.22l-5.59-16.64h-20.04l-5.26,16.64h-6.73ZM1024.25,326.97h16.25l-5-15.22c-1.53-4.62-2.66-8.42-3.4-11.39-.61,3.52-1.47,7.02-2.58,10.49l-5.26,16.12Z"/>
    <path class="cls-2" d="M1060.08,349.54v-54.95h6.34v48.46h23.6v6.48h-29.95Z"/>
    <path class="cls-2" d="M1104.74,349.54l18.4-54.95h6.83l19.61,54.95h-7.22l-5.59-16.64h-20.04l-5.26,16.64h-6.73ZM1118.57,326.97h16.25l-5-15.22c-1.53-4.62-2.66-8.42-3.4-11.39-.61,3.52-1.47,7.02-2.58,10.49l-5.26,16.12Z"/>
    <path class="cls-2" d="M1186.11,294.59h6.34v31.75c0,5.52-.55,9.91-1.63,13.16-1.09,3.25-3.06,5.89-5.9,7.93-2.84,2.04-6.58,3.05-11.2,3.05s-8.16-.89-11.02-2.66c-2.86-1.77-4.89-4.34-6.11-7.7-1.22-3.36-1.83-7.95-1.83-13.77v-31.75h6.34v31.71c0,4.77.39,8.29,1.16,10.55.77,2.26,2.1,4,3.99,5.23,1.88,1.22,4.19,1.84,6.91,1.84,4.66,0,7.99-1.21,9.97-3.64,1.98-2.42,2.97-7.08,2.97-13.98v-31.71Z"/>
    <path class="cls-2" d="M1203.01,349.54v-54.95h16.51c3.73,0,6.57.26,8.53.79,2.75.72,5.09,2.04,7.03,3.94,2.53,2.45,4.42,5.58,5.67,9.39,1.25,3.81,1.88,8.17,1.88,13.06,0,4.17-.42,7.87-1.27,11.09-.85,3.22-1.94,5.89-3.27,8-1.33,2.11-2.78,3.77-4.36,4.98-1.58,1.21-3.49,2.13-5.72,2.75-2.23.62-4.8.94-7.7.94h-17.29ZM1209.35,343.05h10.23c3.16,0,5.64-.34,7.44-1.01,1.8-.67,3.23-1.62,4.3-2.85,1.5-1.72,2.67-4.04,3.51-6.95.84-2.91,1.26-6.44,1.26-10.59,0-5.75-.82-10.16-2.47-13.25-1.65-3.09-3.65-5.15-6-6.2-1.7-.75-4.44-1.12-8.21-1.12h-10.07v41.98Z"/>
    <path class="cls-2" d="M1252.44,349.54v-54.95h6.34v54.95h-6.34Z"/>
    <path class="cls-2" d="M1268.03,322.78c0-9.12,2.14-16.26,6.41-21.42,4.27-5.16,9.79-7.74,16.54-7.74,4.42,0,8.41,1.21,11.96,3.64,3.55,2.42,6.26,5.8,8.12,10.14,1.86,4.34,2.8,9.25,2.8,14.75s-.98,10.56-2.94,14.95c-1.96,4.4-4.74,7.73-8.34,9.99-3.6,2.26-7.48,3.39-11.64,3.39-4.51,0-8.54-1.25-12.1-3.75-3.55-2.5-6.24-5.91-8.07-10.23-1.83-4.32-2.75-8.9-2.75-13.72ZM1274.57,322.89c0,6.62,1.55,11.84,4.66,15.65,3.11,3.81,7,5.72,11.69,5.72s8.7-1.92,11.79-5.77c3.08-3.85,4.63-9.31,4.63-16.38,0-4.47-.66-8.38-1.98-11.71-1.32-3.34-3.25-5.92-5.79-7.76-2.54-1.84-5.39-2.75-8.55-2.75-4.49,0-8.35,1.77-11.59,5.3-3.24,3.54-4.85,9.44-4.85,17.71Z"/>
  </g>
  <g>
    <polygon points="196.08 315.53 207.96 291.53 212.3 315.54 238.54 315.55 214.98 330.37 219.32 354.38 200.42 339.54 176.86 354.36 188.74 330.36 169.83 315.51 196.08 315.53"/>
    <polygon points="271.8 315.53 283.68 291.53 288.02 315.54 314.27 315.55 290.71 330.37 295.05 354.38 276.14 339.54 252.58 354.36 264.46 330.36 245.56 315.51 271.8 315.53"/>
    <polygon points="347.53 315.12 359.41 291.11 363.75 315.12 389.99 315.14 366.43 329.96 370.77 353.97 351.87 339.13 328.31 353.95 340.19 329.95 321.29 315.1 347.53 315.12"/>
    <polygon points="423.26 315.12 435.14 291.11 439.48 315.12 465.72 315.14 442.16 329.96 446.5 353.97 427.6 339.13 404.03 353.95 415.91 329.95 397.01 315.1 423.26 315.12"/>
    <polygon points="498.98 315.12 510.86 291.11 515.2 315.12 541.45 315.14 517.88 329.96 522.22 353.97 503.32 339.13 479.76 353.95 491.64 329.95 472.74 315.1 498.98 315.12"/>
  </g>
</svg>