<?xml version="1.0" encoding="UTF-8"?>
<svg id="Capa_1" data-name="Capa 1" xmlns="http://www.w3.org/2000/svg" viewBox="0 0 1600 400">
  <polygon points="864.98 184.37 864.65 72.06 847.08 169.47 824.65 169.47 804.81 72.96 804.58 184.32 780.53 184.36 780.52 32.74 822.31 32.73 836.91 103.99 849.47 32.75 893.02 32.78 893.01 184.33 864.98 184.37"/>
  <path d="M616.78,318.01l-5.86-25.42c-19.24,25.23-38.72,46.31-65.37,63.6-19.38,12.56-40.82,20.99-64.07,20.49-19.11-.41-36.77-6.78-51.59-18.73-10.72-8.64-18.71-19.73-22.35-33.17-3.78-13.99-3.88-28.59.17-42.5,9.21-31.68,39.91-46.11,70.89-46.66,16.48-.29,31.78,3.69,45.7,12.37,10.61,6.62,20.31,13.92,29.97,21.85,3.5,2.87,6.83,5.47,10.82,7.56,6.84,3.6,15.63-2.68,22.18-5.75l2.66,4.13-32.51,17.91-9.3-8.37c-10.14-9.12-20.72-16.92-32.47-23.85-20.05-11.82-40.31-19.94-64.04-14.81-18.55,4.01-32.89,17.97-36.85,36.63-6.99,33,11.87,63.52,43.34,74.72,10.38,3.69,20.81,5.07,31.89,5.27,18.05.33,35.18-3.97,50.98-12.64,26.57-14.58,51.59-40.75,68.73-65.4-1.32-8.15-2.56-15.47-2.44-23.52.27-17.69,4.66-34.92,12.77-50.49,3.47-6.65,10.35-17.5,18.61-17.36,3.86.07,6.63,2.86,8.09,6.3,9.18,21.59-13.2,57.1-24.52,75.59l7.17,29.37c3.4,13.92,6.05,27.54,7.92,42.24l80.94-100.03c7.44-9.2,14.81-17.89,23.08-26.2,12.25-12.31,30.09-22.7,47.88-22.41l-10.14,33.82c-1.74-.16-3.59-.46-5.01-.79l1.38-7.31c1.58-8.39-17.44-11.8-33.05,3.15-16.09,15.41-22.26,34.88-27.04,56.29s-8.34,41.75-11.47,62.98c-.53,3.58-.75,6.99-.62,10.45.31,8.32,13.3,3.15,17.57,1.11.96,1.43,1.69,2.73,2.4,4.31l-20.5,7.95-18.57,7.46c.49-7.81,1.21-14.77,2.27-22.32,3.81-27.11,9.25-53.23,15.38-80.23l-80.58,99.9c-1.26-.54-2.36-1.31-3.55-2.36,3.54-6.77,4.93-13.52,4.4-21.17-.81-11.47-2.63-22.48-5.28-33.98ZM635.52,209.42c-2.15-2.54-5.83-2.42-8.04.12-10.02,11.5-9.14,42.23-6.12,57.3,6.89-11.02,22.76-47.23,14.16-57.42Z"/>
  <polygon points="1094.2 184.3 1066.64 184.38 1066.6 117.88 1037.96 117.88 1037.95 184.35 1011.2 184.34 1011.2 32.75 1037.94 32.73 1037.96 90.83 1066.6 90.84 1066.64 32.72 1094.2 32.75 1094.2 184.3"/>
  <path d="M735.27,149.22h-30.26s-5.88,35.14-5.88,35.14l-24.87-.13,27.7-151.48,41.33-.03,25.03,151.58-27.34.08-5.71-35.15ZM731.1,123.53l-10.73-65.56-11.08,65.54,21.8.02Z"/>
  <path d="M1166.97,149.26l-30.3-.05-5.89,35.15-24.87-.05,27.72-151.58h41.33s25.02,151.58,25.02,151.58l-27.36.05-5.66-35.1ZM1162.78,123.51l-10.73-65.77-11.11,65.78h21.84Z"/>
  <path d="M965.81,149.28l-30.35-.02-5.83,35.04h-24.87s27.72-151.58,27.72-151.58h41.34s25.01,151.58,25.01,151.58l-27.34.06-5.68-35.08ZM961.62,123.52l-10.74-65.79-11.12,65.8h21.86Z"/>
  <polygon points="683.3 32.85 652.68 122.9 652.61 184.36 622.9 184.34 622.9 125.58 593.49 32.82 620.27 32.72 638.3 91.12 658.18 32.72 683.3 32.85"/>
  <path d="M912.58,270.47l-16.1,26.38c-1.27-.38-2.88-1.52-3.52-2.49l3.22-7.69c1.14-2.71-.63-5.33-3.28-6.02-7.53-1.96-14.87.86-19.91,6.73-4.09,4.77-5.93,11.22-3.53,17.34,2.25,5.74,4.84,11.08,7.45,16.74,3.13,6.78,4.32,14.34,2.74,21.72-3.07,14.33-18.88,26.85-31.49,32.73-6.32,2.52-12.93,3.58-19.08.92-5.58-2.23-8.47-7.41-7.12-13.59l-29.96,11.92c1.82-14.8,6.57-28.03,11.56-42.43-12.74,14.58-24.57,28.82-41.89,38.54-3.76,1.88-7.45,3.43-11.59,3.88-5.35.58-9.53-3.13-9.57-8.65-.04-6.42,1.46-12.74,4.26-18.75l21.29-45.73c1.93-4.14,7.63-15.16,4.71-18.41-2.24-2.5-7.27-.44-10.67.18l-1.1-4.01c10.92-3.26,20.98-6.53,32.03-10.98.08,5.96-1.21,12.03-3.88,17.68l-17.67,37.38c-4.65,9.83-9.27,19.08-12.77,29.31-.91,2.67-1.6,6.53.43,8.56,5.34,5.31,18.67-5.9,22.88-10.14,12.39-12.49,22.77-26.45,32.03-41.5,6.08-11.15,10.93-22.28,15.73-34.31,5.94-.94,11.54-2.6,17.63-4.89l-10.05,20.94c-7.38,16.8-14.38,33.33-20.88,50.48-1.42,3.74-5.52,13.98-3.08,16.25,2.36,2.19,8.92.11,11.86-.93l1.63-2.86c1.92,2.66,3.58,5.17,5.87,7.46,10.16,10.15,26.12,6.98,34.19-4.68,3.5-5.05,4.58-11.31,2.04-17.06l-8.39-19.04c-3.63-8.23-3.52-17.06,1.02-24.95,4.38-7.6,10.3-13.88,17.26-19.25,3.69-2.51,7.44-4.43,11.64-5.82,7.81-1.62,15.17-2.36,24.04-.93Z"/>
  <path d="M482.38,21.51c48.52-2.68,89.33,34.52,91.94,82.18,2.64,48.16-34.19,89.23-82.26,91.89-47.94,2.66-88.94-33.86-91.89-81.7-2.95-47.94,33.58-89.68,82.21-92.37ZM489.16,185.54c42.34-1.06,75.45-36.11,75.15-77.51-.31-41.68-33.95-75.79-75.68-76.53-41.57-.74-76.57,31.83-78.4,73.75-1.93,44.2,34.16,81.41,78.94,80.29Z"/>
  <path d="M1094.72,345.44c-1.62,3.81-5.64,13.36-3.71,15.89,2.44,3.19,11.29-2.93,14.31-4.16l2.44,3.64c-10.88,7.66-24.51,12.93-37.39,15.88.45-6.1,1.62-11.26,3.7-16.52l10.18-25.8c-9.15,10-18.21,19.42-29.03,27.52-8.52,6.38-21.07,15.36-31.73,15.32-4.43-.02-7.64-3.05-8.21-7.46-2.32-17.9,9.71-38.34,21.28-51.5,25.07-28.48,59.78-46.72,97.99-48.37,1.03-.04,2.65.51,3.28.9,2.89,1.76-1.1,9.62-2.7,12.24-22.47-3.22-41.43-1.45-61.14,10.12-17.61,10.34-31.86,25.35-40.01,44.07-2.94,6.75-7.18,24.11-.34,28.07,6.72,3.89,17.86-6.13,23.17-11.14,18.68-17.62,32.84-41.55,38.49-66.82,7.7,4.11,6.03,16.13,3.93,22.29-2.31,6.75-5.99,12.16-10.32,18.43,4.96-.58,9.39-1.88,14.56-3.15l-8.76,20.54Z"/>
  <path d="M1157.89,358.7c-7.29,6.35-19.64,15.69-28.94,17.93-4.04.98-7.52-1.47-8.64-5.54-2.9-10.48,4.57-29.75,8.87-40.17l35.37-85.7c3.42-8.29,6.47-15.98,9.09-24.55.29-.93-.21-3.08-.81-3.73-.67-.73-2.67-1.19-3.72-.9l-8.18,2.24-1.15-4.01,33.69-13.93c-.23,14.66-10.12,38.34-16.1,52.36l-27.47,64.36c-4.71,11.03-8.58,21.81-12.14,33.19-1.13,3.62-3.08,10.85.09,12.92,4.23,2.76,13.25-5.4,17.43-8.05.91,1.08,1.69,2.15,2.61,3.57Z"/>
  <path d="M969.17,366.18c19.08-.32,33.13-17.81,41.64-33.06l5.68-10.17c5.66,9.85-6.11,23.39-12.26,29.58-12.47,12.53-30.51,26.95-49.08,26.05-7.86-.38-13.52-5.32-14.73-13.13-2.93-18.92,7.17-39.07,18.47-53.88,16.18-21.78,46.46-46.07,75.87-42.67l-18.1,33.9-4.82.07c1.18-4.05,9.64-17.78,2.67-19.44-11.79-2.81-23.62,1.25-31.57,10.65-10.85,12.84-18.98,27.84-23.97,43.96-1.83,5.93-2.71,11.85-1.84,17.74.92,6.24,5.76,10.52,12.03,10.41Z"/>
  <path d="M895.98,377.87c.05-10.58,2.19-20.45,6.32-29.9l12.65-28.96c3.66-8.38,11.46-24.72,13.05-32.99.16-.83-.38-2.5-.96-3.03-2.62-2.39-11.04,2.06-14.55,2.91l-1.29-4.28,35.94-14.53c-.15,8.26-1.75,15.16-4.71,22.12l-21.29,50.01c-2.72,6.38-5.2,12.16-7.27,18.82-.29.93.2,3.07.86,3.66,2.93,2.61,8.22-.68,11.78-1.65.62,1.05,1.22,2.41,1.66,3.96l-32.17,13.86Z"/>
  <path d="M952.04,249.09c-2.02.14-4.24-.97-5.17-2.12-1.18-1.47-1.69-3.64-1.26-5.55.77-3.42,3.45-6.16,6.82-7.04,2-.52,4.34-.16,5.86,1.14,1.36,1.16,2.39,3.5,2.05,5.72-.63,4.05-3.97,7.54-8.3,7.85Z"/>
  <path d="M491.49,125.79c-1.22-1.11-2.87-2.07-4.34-2.77l-4.06,2.34-.02,41.64h-8.33s-.06-36.69-.06-36.69c-7.05,3.95-10.95,6.64-18.81,4.53-2.24-.6-4.18-.94-6.36.24-4.2,2.27-2.05,6.74-5.41,7.37l-18.66,3.45c-.51.09-1.27-.13-1.61-.35s-.29-1.74.1-2.19l12.64-14.82c1.63-1.91,4.61,1.77,8.86-.66,4.88-2.79,1.57-10.12,10.87-15.87l5.74-3.55-31.7-18.32c1.2-2.49,2.47-4.72,4.04-7.27l35.96,20.74c1.35-.5,3.65-1.49,4.08-2.5.53-1.22.26-3.25.07-4.7l-35.87-20.71,4.05-7.25,31.88,18.34.27-7.18c.39-10.41,8.25-11.22,8.26-16.98,0-5.13-4.81-5.12-3.72-8.2l6.35-18.05c.14-.4.96-1.15,1.37-1.22.51-.09,1.48.73,1.66,1.24l6.25,17.78c1.2,3.42-3.33,3.28-3.6,7.87-.37,6.34,7.79,7.02,8.11,17.08l.24,7.75,31.99-18.43,4.08,7.25-36.02,20.79c-.24,1.3-.52,3.58.1,4.61.7,1.16,2.8,2,4.26,2.47l35.92-20.7,4.15,7.21-32.06,18.49,6.31,3.68c4.04,2.36,6.46,6.46,7.4,10.97.88,4.23,4.92,6.66,9.03,5.02,1.15-.46,2.53-.18,3.49.93l12.16,14.2c.26.31.42,1.4.31,1.75-.14.45-1.2.91-1.81.8l-18.99-3.53c-.73-.13-1.8-1.43-1.88-2.13-.43-3.99-4.3-6.99-8.25-5.75-4.95,1.56-10.1,1.35-14.62-1.11l-5.71-3.1-.05,36.73h-8.09s.01-41.22.01-41.22ZM487.22,94.05l4.26-2.33-.07-12.58c-.01-2.23-2.6-3.83-4.36-3.73s-3.95,1.6-3.95,3.71l-.02,12.65,4.13,2.28ZM487.22,114.05l4.74-2.64v-5.72s-4.77-2.66-4.77-2.66l-4.85,2.73.04,5.59,4.84,2.71ZM474.63,120.57c.11-1.59.35-4.02-.28-4.83-.67-.87-2.72-1.81-3.94-2.28l-10.03,5.72c-2.29,1.3-3.15,3.89-1.74,6.1,1.17,1.83,3.65,2.47,5.79,1.22l10.2-5.94ZM509.96,126.45c2.56,1.47,4.97.51,6.11-1.64s.17-4.34-1.98-5.58l-9.95-5.73c-1.35.47-3.58,1.41-4.2,2.45-.72,1.21-.41,3.69.09,4.77l9.93,5.73Z"/>
</svg>