<?xml version="1.0" encoding="UTF-8"?>
<svg id="Capa_3" data-name="Capa 3" xmlns="http://www.w3.org/2000/svg" viewBox="190 50 550 376">
  <defs>
    <style>
      .cls-1 {
        fill-rule: evenodd;
      }

      .cls-1, .cls-2 {
        fill: #15195a;
      }

      .cls-3 {
        fill: #fff;
        stroke: #d9d9d9;
        stroke-miterlimit: 45.71;
        stroke-width: 7.87px;
      }
    </style>
  </defs>
  <path class="cls-2" d="M433.73,309.37h-37.24l23.3-135.03h37.24l-23.29,135.03Z"/>
  <path class="cls-2" d="M568.74,177.64c-7.35-2.73-19-5.75-33.4-5.75-36.78,0-62.68,18.39-62.84,44.67-.31,19.39,18.54,30.17,32.64,36.63,14.41,6.61,19.31,10.92,19.31,16.81-.15,9.05-11.64,13.22-22.37,13.22-14.87,0-22.84-2.15-34.94-7.18l-4.9-2.16-5.21,30.31c8.74,3.73,24.83,7.04,41.54,7.19,39.08,0,64.52-18.1,64.82-46.12.15-15.37-9.8-27.15-31.26-36.78-13.03-6.18-21-10.35-21-16.67.15-5.75,6.75-11.63,21.45-11.63,12.11-.29,21,2.44,27.74,5.17l3.37,1.43,5.07-29.16h0Z"/>
  <path class="cls-1" d="M635.41,174.34h28.81l30.05,135.03h-34.48s-3.37-15.51-4.44-20.26h-47.82c-1.38,3.59-7.82,20.26-7.82,20.26h-39.08l55.32-123.83c3.83-8.76,10.58-11.2,19.47-11.2ZM633.11,223.75s-11.8,30.02-14.87,37.78h30.96c-1.53-6.75-8.58-39.07-8.58-39.07l-2.6-11.63c-1.1,3-2.68,7.12-3.75,9.89-.72,1.88-1.21,3.15-1.15,3.03Z"/>
  <path class="cls-1" d="M235.12,174.34h59.92c8.12.28,14.71,2.73,16.86,11.35l13.02,62.04s0,0,0,.01l3.99,18.67,36.47-92.08h39.38l-58.54,134.89h-39.38l-33.2-117.33c-11.45-6.28-24.52-11.33-39.14-14.83l.61-2.73Z"/>
</svg>